<?xml version="1.0" encoding="UTF-8"?><svg id="Ebene_2" xmlns="http://www.w3.org/2000/svg" viewBox="0 0 283.43 283.28"><defs><style>.cls-1{fill:#306da5;}</style></defs><g id="dtp_snowshoeing_forbidden_regular"><g><path class="cls-1" d="M240.92,0H42.52C19.04,0,0,19.03,0,42.49V240.8c0,23.47,19.04,42.48,42.52,42.48H240.92c23.49,0,42.52-19.02,42.52-42.48V42.49c0-23.47-19.03-42.49-42.52-42.49ZM42.52,8H240.92c19.04,0,34.52,15.48,34.52,34.5V127.9c-24.58,4.96-63.76,23.87-86.36,36.35l3.69,3.69c22.07-12.05,59.34-29.93,82.67-34.92v107.78c0,5.21-1.16,10.14-3.24,14.58l-.12-.12-84.49-84.45-3.66-3.66-40.77-40.74-25.43-25.41-1.6-1.6-14.51-14.5L27.92,11.23c1.89-.89,3.87-1.6,5.92-2.14,2.77-.72,5.68-1.1,8.68-1.1ZM240.92,275.29H42.52c-19.04,0-34.52-15.47-34.52-34.49v-26.58c4.55-1.8,42.66-16.57,80.28-20.67,1.38-.15,2.37-1.38,2.22-2.75-.15-1.38-1.39-2.36-2.76-2.22-35.06,3.82-70.45,16.72-79.74,20.27V42.49c0-2.82,.34-5.57,.99-8.19,.5-2.08,1.2-4.09,2.07-6L83.76,100.97l12.38,12.37,11.98,11.97,8,8,17.43,17.42,37.57,37.55,21.45,21.44,5.47,5.47,4.39,4.39,5.05,5.05,47.51,47.48,.14,.15c-4.34,1.96-9.14,3.05-14.2,3.05Z"/><path class="cls-1" d="M144.65,187.76c-.21-1.37-1.49-2.3-2.85-2.1-5.19,.79-10.48,1.35-15.73,1.66-1.38,.08-2.43,1.26-2.35,2.64,.08,1.33,1.18,2.36,2.5,2.36,.05,0,.1-.01,.15-.01,5.4-.32,10.84-.89,16.18-1.7,1.37-.21,2.31-1.49,2.1-2.85Z"/><path class="cls-1" d="M144.78,74.83c1.26,.32,2.53,.48,3.77,.48,6.67,0,12.76-4.48,14.51-11.23l2.17-8.35c2.08-8.02-2.74-16.19-10.76-18.27-8.02-2.08-16.21,2.74-18.28,10.75l-2.17,8.34c-2.08,8.02,2.74,16.2,10.76,18.28Z"/><path class="cls-1" d="M80.71,105.98l-12.03,19.79c-2.44,4.01-1.16,9.23,2.85,11.66,1.38,.84,2.9,1.24,4.4,1.24,2.88,0,5.68-1.45,7.28-4.09l9.88-16.24-12.38-12.36Z"/><path class="cls-1" d="M122.89,98.1l22.56,22.55,3.06-7.77,6.94,11.91c.61,1.05,1.44,1.95,2.43,2.66l28.34,20.12c1.49,1.06,3.21,1.57,4.91,1.57,2.66,0,5.28-1.24,6.94-3.57,2.72-3.83,1.82-9.13-2.01-11.85l-26.84-19.06-16.85-28.93c-.86-1.48-2.1-2.6-3.52-3.31-.01-.01-.01-.02-.02-.02-1.39-1.22-3.01-2.23-4.84-2.95-3.43-1.36-7.05-1.48-10.37-.59-.5,.01-1.02,.06-1.53,.16l-23.72,4.57,11.64,11.63,2.88,2.88Z"/><path class="cls-1" d="M160.12,232.39c-15.66-.46-18.43-2.43-21.94-4.92-1.64-1.16-2.87-4.97-1.65-5.98,3.18-2.65,7.44-3.91,17.8-4.21l.59,2.5c1.25,5.3,5.97,8.86,11.18,8.86,.88,0,1.76-.1,2.65-.31,5.39-1.27,8.99-6.14,8.85-11.45,4.25-.34,7.76-.81,10.75-1.22,.65-.09,1.27-.17,1.85-.25l-4.8-4.81c-2.54,.33-5.43,.68-8.8,.94l-3-12.73-43.16-43.13-6.57-6.57-12.79-12.77-.41-.41-4.85-4.85-2.94,7.45c-.63,1.59-.99,3.21-1.11,4.83-.54,1.28-.84,2.68-.87,4.16l-.82,40.31-13.01,33.85c-9-2.4-11.73-1.92-15.35-.91-3.64,1.02-6.05,6.23-6.38,7.68-.34,1.46-1.58,6.87,.52,10.9,2.44,4.69,5.11,8.29,17.23,11.95,10.77,3.24,19.11,4.43,25.54,4.43,10.27,0,15.7-3.01,18.43-5.47,2.87-2.59,4.36-5.94,4.36-9.61,0-.89-.08-1.8-.26-2.72-1.84-9.46-7.27-9.91-15.5-10.59-1.76-.14-3.72-.31-5.91-.56l12.52-32.58c.48-1.25,.73-2.56,.76-3.89l.54-26.68,22.32,17.9,7.18,30.41c-10.82,.44-15.16,2.73-19.06,4.78-4.05,2.13-6.12,10.33,1.04,15.17,4.15,2.8,7.61,5.41,24.91,5.92,1.99,.06,3.9,.08,5.73,.08,23.12,0,33.6-4.48,38.34-8.63l-3.81-3.82c-4.95,4.11-17.41,7.63-40.1,6.97Zm-44.92,.5c4.19,.35,6.56,.59,8.01,1.39,1.44,.8,1.97,2.15,2.46,4.71,.54,2.79-.27,5.26-2.35,7.14-5.97,5.39-20.41,5.32-38.61-.17-10.81-3.26-12.18-5.88-13.9-9.18-1.5-2.88,.1-9.98,2.41-10.62,2.51-.7,4.31-1.2,11.83,.76h0s-.07,.2-.07,.2c-2.28,5.93,.68,12.57,6.61,14.85,1.35,.52,2.75,.77,4.12,.77,4.62,0,8.98-2.81,10.74-7.38l1.24-3.22c2.85,.37,5.33,.58,7.51,.76Z"/></g></g></svg>