<?xml version="1.0" encoding="UTF-8"?><svg id="Ebene_2" xmlns="http://www.w3.org/2000/svg" viewBox="0 0 279.96 279.97"><defs><style>.cls-1{fill:#306da5;}</style></defs><g id="dtp_calendar_filled2"><path class="cls-1" d="M219.16,66.22v1.7c0,4.17-3.38,7.55-7.54,7.55s-7.55-3.38-7.55-7.55v-3.92h-22.44v3.92c0,4.17-3.38,7.55-7.55,7.55s-7.55-3.38-7.55-7.55v-3.92h-22.43v3.92c0,4.17-3.38,7.55-7.55,7.55s-7.55-3.38-7.55-7.55v-3.92h-22.44v3.92c0,4.17-3.38,7.55-7.54,7.55s-7.55-3.38-7.55-7.55v-3.92h-22.44v3.92c0,4.17-3.38,7.55-7.55,7.55-3.58,0-6.58-2.5-7.34-5.85-4.52,4.04-7.36,9.9-7.36,16.42v8.74l184.79,.79v-9.53c0-8.7-5.07-16.24-12.41-19.82ZM46.78,109.87v90.65c0,12.15,9.89,22.03,22.04,22.03H209.54c12.15,0,22.03-9.88,22.03-22.03V110.67l-184.79-.8Zm152.69,40.33H78.21c-4.17,0-7.54-3.38-7.54-7.55s3.37-7.55,7.54-7.55h121.26c4.17,0,7.55,3.38,7.55,7.55s-3.38,7.55-7.55,7.55ZM46.78,200.52c0,12.15,9.89,22.03,22.04,22.03H209.54c12.15,0,22.03-9.88,22.03-22.03V110.67l-184.79-.8v90.65Zm31.43-65.42h121.26c4.17,0,7.55,3.38,7.55,7.55s-3.38,7.55-7.55,7.55H78.21c-4.17,0-7.54-3.38-7.54-7.55s3.37-7.55,7.54-7.55ZM219.16,66.22v1.7c0,4.17-3.38,7.55-7.54,7.55s-7.55-3.38-7.55-7.55v-3.92h-22.44v3.92c0,4.17-3.38,7.55-7.55,7.55s-7.55-3.38-7.55-7.55v-3.92h-22.43v3.92c0,4.17-3.38,7.55-7.55,7.55s-7.55-3.38-7.55-7.55v-3.92h-22.44v3.92c0,4.17-3.38,7.55-7.54,7.55s-7.55-3.38-7.55-7.55v-3.92h-22.44v3.92c0,4.17-3.38,7.55-7.55,7.55-3.58,0-6.58-2.5-7.34-5.85-4.52,4.04-7.36,9.9-7.36,16.42v8.74l184.79,.79v-9.53c0-8.7-5.07-16.24-12.41-19.82ZM139.98,0C62.67,0,0,62.68,0,139.99s62.67,139.98,139.98,139.98,139.98-62.67,139.98-139.98S217.29,0,139.98,0Zm69.56,237.65H68.82c-20.48,0-37.14-16.66-37.14-37.13V86.04c0-15.19,9.17-28.27,22.26-34.02v-9.13c0-4.17,3.37-7.55,7.54-7.55s7.55,3.38,7.55,7.55v6.02h22.44v-6.02c0-4.17,3.38-7.55,7.55-7.55s7.54,3.38,7.54,7.55v6.02h22.44v-6.02c0-4.17,3.38-7.55,7.55-7.55s7.55,3.38,7.55,7.55v6.02h22.43v-6.02c0-4.17,3.38-7.55,7.55-7.55s7.55,3.38,7.55,7.55v6.02h22.44v-6.02c0-4.17,3.38-7.55,7.55-7.55s7.54,3.38,7.54,7.55v7.29c15.82,4.24,27.51,18.71,27.51,35.86v114.48c0,20.47-16.66,37.13-37.13,37.13ZM46.78,200.52c0,12.15,9.89,22.03,22.04,22.03H209.54c12.15,0,22.03-9.88,22.03-22.03V110.67l-184.79-.8v90.65Zm31.43-65.42h121.26c4.17,0,7.55,3.38,7.55,7.55s-3.38,7.55-7.55,7.55H78.21c-4.17,0-7.54-3.38-7.54-7.55s3.37-7.55,7.54-7.55ZM219.16,66.22v1.7c0,4.17-3.38,7.55-7.54,7.55s-7.55-3.38-7.55-7.55v-3.92h-22.44v3.92c0,4.17-3.38,7.55-7.55,7.55s-7.55-3.38-7.55-7.55v-3.92h-22.43v3.92c0,4.17-3.38,7.55-7.55,7.55s-7.55-3.38-7.55-7.55v-3.92h-22.44v3.92c0,4.17-3.38,7.55-7.54,7.55s-7.55-3.38-7.55-7.55v-3.92h-22.44v3.92c0,4.17-3.38,7.55-7.55,7.55-3.58,0-6.58-2.5-7.34-5.85-4.52,4.04-7.36,9.9-7.36,16.42v8.74l184.79,.79v-9.53c0-8.7-5.07-16.24-12.41-19.82Zm0,0v1.7c0,4.17-3.38,7.55-7.54,7.55s-7.55-3.38-7.55-7.55v-3.92h-22.44v3.92c0,4.17-3.38,7.55-7.55,7.55s-7.55-3.38-7.55-7.55v-3.92h-22.43v3.92c0,4.17-3.38,7.55-7.55,7.55s-7.55-3.38-7.55-7.55v-3.92h-22.44v3.92c0,4.17-3.38,7.55-7.54,7.55s-7.55-3.38-7.55-7.55v-3.92h-22.44v3.92c0,4.17-3.38,7.55-7.55,7.55-3.58,0-6.58-2.5-7.34-5.85-4.52,4.04-7.36,9.9-7.36,16.42v8.74l184.79,.79v-9.53c0-8.7-5.07-16.24-12.41-19.82ZM46.78,109.87v90.65c0,12.15,9.89,22.03,22.04,22.03H209.54c12.15,0,22.03-9.88,22.03-22.03V110.67l-184.79-.8Zm152.69,40.33H78.21c-4.17,0-7.54-3.38-7.54-7.55s3.37-7.55,7.54-7.55h121.26c4.17,0,7.55,3.38,7.55,7.55s-3.38,7.55-7.55,7.55ZM46.78,109.87v90.65c0,12.15,9.89,22.03,22.04,22.03H209.54c12.15,0,22.03-9.88,22.03-22.03V110.67l-184.79-.8Zm152.69,40.33H78.21c-4.17,0-7.54-3.38-7.54-7.55s3.37-7.55,7.54-7.55h121.26c4.17,0,7.55,3.38,7.55,7.55s-3.38,7.55-7.55,7.55Zm19.69-83.98v1.7c0,4.17-3.38,7.55-7.54,7.55s-7.55-3.38-7.55-7.55v-3.92h-22.44v3.92c0,4.17-3.38,7.55-7.55,7.55s-7.55-3.38-7.55-7.55v-3.92h-22.43v3.92c0,4.17-3.38,7.55-7.55,7.55s-7.55-3.38-7.55-7.55v-3.92h-22.44v3.92c0,4.17-3.38,7.55-7.54,7.55s-7.55-3.38-7.55-7.55v-3.92h-22.44v3.92c0,4.17-3.38,7.55-7.55,7.55-3.58,0-6.58-2.5-7.34-5.85-4.52,4.04-7.36,9.9-7.36,16.42v8.74l184.79,.79v-9.53c0-8.7-5.07-16.24-12.41-19.82Z"/></g></svg>