<?xml version="1.0" encoding="UTF-8"?><svg id="Ebene_2" xmlns="http://www.w3.org/2000/svg" viewBox="0 0 283.46 283.46"><defs><style>.cls-1{fill:#306da5;}</style></defs><g id="dtp_skitouring_allowed_regular"><g><path class="cls-1" d="M84.44,254.14c-2.37,0-4.62-1.42-5.56-3.75-1.07-2.63-.13-5.57,2.09-7.14l-27.18,11.02c-3.07,1.25-4.55,4.74-3.31,7.81,.95,2.33,3.19,3.75,5.56,3.75,.75,0,1.51-.14,2.25-.44l147.1-57.97c.55-.2,2.06-.78,4.06-1.82l-122.75,48.1c-.74,.3-1.5,.44-2.25,.44Z"/><path class="cls-1" d="M251.16,163.72c-3.27-.58-6.37,1.6-6.95,4.87-2,11.34-14.39,15.81-14.48,15.85-.11,.04-.22,.08-.33,.12l-2.53,1.02c.3-1.03,.55-2.1,.75-3.21,.58-3.26-1.6-6.38-4.87-6.95-3.26-.57-6.37,1.6-6.95,4.87-1.37,7.79-7.66,12.34-11.48,14.44l-3.33,1.53-12.22,4.78,25.77-88.68c1.21-1.54,1.9-3.49,1.82-5.6-.19-4.69-4.16-8.35-8.84-8.15l-22.53,.92-26.39-21.33c-.48-.39-.99-.71-1.51-.98-.63-.38-1.28-.73-1.97-1.03-8.36-3.63-18.08,.2-21.71,8.56l-23.25,53.53c-.92,2.11-1.35,4.3-1.37,6.46-.04,.9,0,1.81,.18,2.73l7.4,38.44-26.32,38.62c-3.16,4.64-2.46,10.76,1.36,14.59l-5.46,2.14c-2.22,1.57-3.15,4.51-2.09,7.14,.95,2.33,3.19,3.75,5.56,3.75,.75,0,1.51-.14,2.25-.44l117.75-46.1,24.35-9.87c2.18-.79,19.14-7.46,22.24-25.05,.58-3.26-1.6-6.38-4.87-6.95Zm-69.03-47.07c.12,0,.23,0,.35,0l21.7-.89-25.98,89.41-10.79,4.22,11.5-47.23c1.39-5.71-1.75-11.55-7.28-13.54l-25.93-9.33,15.96-36.74,15.13,12.22c1.52,1.22,3.4,1.89,5.34,1.89Zm-44.05,78.25c1.72-2.53,2.37-5.64,1.79-8.65l-5.1-26.46,19.34,6.96-9.99,41.03c-.87,3.59,.05,7.18,2.17,9.86l-32.34,12.65,24.11-35.39Z"/><path class="cls-1" d="M153.57,70.92c2.22,1.16,4.59,1.71,6.93,1.71,5.41,0,10.63-2.93,13.31-8.06l3.02-5.78c3.83-7.34,.99-16.4-6.35-20.24-7.34-3.83-16.4-.99-20.24,6.35l-3.02,5.78c-3.83,7.34-.99,16.4,6.35,20.24Z"/><path class="cls-1" d="M93.66,134.43c1.61,.63,3.27,.93,4.9,.93,5.4,0,10.5-3.26,12.58-8.6l17.92-45.79c2.71-6.95-2.92-8.01-10.11-9.98-12.05-3.3-19.73,13.45-22.44,20.4l-10.52,25.56c-2.71,6.95,.73,14.77,7.67,17.48Z"/><path class="cls-1" d="M240.94,0H42.52C19.04,0,0,19.04,0,42.52V240.94c0,23.48,19.04,42.52,42.52,42.52H240.94c23.48,0,42.52-19.04,42.52-42.52V42.52c0-23.48-19.04-42.52-42.52-42.52Zm34.52,240.94c0,19.03-15.49,34.52-34.52,34.52H42.52c-19.03,0-34.52-15.49-34.52-34.52V42.52C8,23.49,23.49,8,42.52,8H240.94c19.03,0,34.52,15.49,34.52,34.52V240.94Z"/></g></g></svg>