<?xml version="1.0" encoding="UTF-8"?><svg id="Ebene_2" xmlns="http://www.w3.org/2000/svg" viewBox="0 0 283.44 283.29"><defs><style>.cls-1{fill:#306da5;}</style></defs><g id="dtp_snowboarding_allowed_regular"><g><path class="cls-1" d="M177.43,167.66c-1.32-.6-2.96-1.33-4.79-2.09,1.43,7.63-1.66,15.58-8.13,20.2l-36.26,25.82c-3.27,2.33-7.09,3.62-11.08,3.75l-7.29,9.55c-3.68,4.83-9.27,7.6-15.34,7.6-4.25,0-8.29-1.37-11.68-3.95-7.35-5.6-9.55-15.49-5.76-23.54-7.82,3.69-15.65,6.94-23.48,9.66-29.21,4.17-19.77,24.23-10.85,33.64l.3,.32c10.55,10.18,25.01,14.09,34.8,7.79,37.33-19.98,70.66-43.63,101.81-69.31,2.33-1.51,3.85-3.59,4.52-5.93,1.49-5.14-1.69-11.2-6.78-13.52Z"/><path class="cls-1" d="M185,86.62c2.33,1.12,4.8,1.65,7.23,1.65,5.75,0,11.27-2.97,14.36-8.12l2.91,1.39,4.29-8.94c4.83-10.08,.57-22.16-9.51-26.98-10.08-4.83-22.17-.57-27,9.51l-4.29,8.94,3.53,1.69c-2.96,8.02,.62,17.11,8.48,20.87Z"/><path class="cls-1" d="M240.92,0H42.52C19.03,0,0,19.02,0,42.49V240.8c0,23.47,19.03,42.49,42.52,42.49H240.92c23.48,0,42.52-19.02,42.52-42.49V42.49c0-23.47-19.03-42.49-42.52-42.49Zm0,275.29H42.52c-19.03,0-34.52-15.48-34.52-34.5v-45.74s0,0,0,0c.4-.23,40.95-23.11,95.98-48.48,2.51-1.16,3.6-4.12,2.45-6.63-1.16-2.51-4.13-3.6-6.63-2.44-44.31,20.43-79.32,39.27-91.79,46.12V42.49C8,23.47,23.48,8,42.52,8H240.92c19.03,0,34.52,15.48,34.52,34.5v31.51c-26.04,5.94-55.25,14.91-86.97,26.7l-4.14-7.16c-.43-.74-.93-1.41-1.51-2.01,.01,0,0,0-.01-.02-.82-1.25-1.78-2.45-2.86-3.56-6.2-6.34-15.04-8.52-23.06-6.51-.61-.04-1.24-.02-1.87,.05l-44.01,5.09c-1.32,.15-2.61,.55-3.79,1.17l-34.74,18.33c-5.25,2.78-7.26,9.27-4.49,14.52,1.93,3.66,5.66,5.74,9.52,5.74,1.69,0,3.41-.4,5.01-1.25l32.96-17.39,11.19-1.29h-.01c-.28,.25-.55,.51-.82,.77l-7.66,7.49c-3.34,3.27-5.54,7.27-6.56,11.5,0,0,0,.01,0,.02-.88,1.91-1.33,4.07-1.22,6.32l1.71,35.73-28.01,36.74c-4.56,5.97-3.41,14.5,2.57,19.06,2.47,1.88,5.37,2.79,8.24,2.79,4.1,0,8.16-1.85,10.84-5.36l9.1-11.93c.68,.1,1.36,.15,2.05,.15,2.92,0,5.87-.88,8.43-2.71l36.26-25.82c5.34-3.8,7.48-10.7,5.21-16.86l-8.1-22.01-.29-.8,.82-.87c1.17-1.14,2.52-2.1,3.82-2.99,2.2-1.51,3.86-3.03,5.09-4.56l9.09-8.87,7.3,12.61,13.77,29.85c1.82,3.94,5.71,6.26,9.77,6.26,1.51,0,3.04-.32,4.5-.99,5.39-2.49,7.75-8.87,5.26-14.26l-13.97-30.3c-.14-.31-.29-.6-.46-.89l-9.84-17c29.8-11.02,57.28-19.48,81.89-25.22V240.8c0,19.02-15.48,34.5-34.52,34.5Zm-102.35-119.68s.03,0,.04-.01l.15,.31,2.86,5.76-2.37,4.31-.68,1.23v-11.59Z"/></g></g></svg>