<?xml version="1.0" encoding="UTF-8"?><svg id="Ebene_2" xmlns="http://www.w3.org/2000/svg" viewBox="0 0 283.46 283.46"><defs><style>.cls-1{fill:none;}.cls-2{fill:#306da5;}</style></defs><g id="dtp_document_regular"><g><g><path class="cls-2" d="M205.37,242.49H78.09c-5.98,0-10.85-4.87-10.85-10.85V51.82c0-5.98,4.87-10.85,10.85-10.85h127.28c5.98,0,10.85,4.87,10.85,10.85V231.64c0,5.98-4.87,10.85-10.85,10.85ZM78.09,49.47c-1.3,0-2.35,1.05-2.35,2.35V231.64c0,1.3,1.05,2.35,2.35,2.35h127.28c1.3,0,2.35-1.05,2.35-2.35V51.82c0-1.3-1.05-2.35-2.35-2.35H78.09Z"/><path class="cls-2" d="M137.68,77.74h-41.38c-2.35,0-4.25-1.9-4.25-4.25s1.9-4.25,4.25-4.25h41.38c2.35,0,4.25,1.9,4.25,4.25s-1.9,4.25-4.25,4.25Z"/><path class="cls-2" d="M188.18,104.88H96.3c-2.35,0-4.25-1.9-4.25-4.25s1.9-4.25,4.25-4.25h91.89c2.35,0,4.25,1.9,4.25,4.25s-1.9,4.25-4.25,4.25Z"/><path class="cls-2" d="M188.18,132.01H96.3c-2.35,0-4.25-1.9-4.25-4.25s1.9-4.25,4.25-4.25h91.89c2.35,0,4.25,1.9,4.25,4.25s-1.9,4.25-4.25,4.25Z"/><path class="cls-2" d="M188.18,159.15H96.3c-2.35,0-4.25-1.9-4.25-4.25s1.9-4.25,4.25-4.25h91.89c2.35,0,4.25,1.9,4.25,4.25s-1.9,4.25-4.25,4.25Z"/><path class="cls-2" d="M188.18,186.28H96.3c-2.35,0-4.25-1.9-4.25-4.25s1.9-4.25,4.25-4.25h91.89c2.35,0,4.25,1.9,4.25,4.25s-1.9,4.25-4.25,4.25Z"/><path class="cls-2" d="M188.18,213.42h-39.38c-2.35,0-4.25-1.9-4.25-4.25s1.9-4.25,4.25-4.25h39.38c2.35,0,4.25,1.9,4.25,4.25s-1.9,4.25-4.25,4.25Z"/></g><g><rect class="cls-1" x="8" y="8" width="267.46" height="267.46" rx="34.52" ry="34.52"/><path class="cls-2" d="M240.94,0H42.52C19.04,0,0,19.04,0,42.52V240.94c0,23.48,19.04,42.52,42.52,42.52H240.94c23.48,0,42.52-19.04,42.52-42.52V42.52c0-23.48-19.04-42.52-42.52-42.52Zm34.52,240.94c0,19.03-15.49,34.52-34.52,34.52H42.52c-19.03,0-34.52-15.49-34.52-34.52V42.52c0-19.03,15.49-34.52,34.52-34.52H240.94c19.03,0,34.52,15.49,34.52,34.52V240.94Z"/></g></g></g></svg>