<?xml version="1.0" encoding="UTF-8"?><svg id="Ebene_2" xmlns="http://www.w3.org/2000/svg" viewBox="0 0 283.46 283.46"><defs><style>.cls-1{fill:#306da5;}</style></defs><g id="dtp_designatedpathsplaces_forbidden_regular"><g><path class="cls-1" d="M240.94,0H42.52C19.04,0,0,19.04,0,42.52V240.94c0,23.48,19.04,42.52,42.52,42.52H240.94c23.48,0,42.52-19.04,42.52-42.52V42.52c0-23.48-19.04-42.52-42.52-42.52Zm0,8c19.03,0,34.52,15.49,34.52,34.52V240.94c0,5.21-1.17,10.16-3.25,14.59l-94.62-94.62-48.39-48.39-59.07-59.07L27.93,11.25c4.44-2.08,9.38-3.25,14.59-3.25H240.94ZM42.52,275.46c-19.03,0-34.52-15.49-34.52-34.52V42.52c0-5.06,1.1-9.86,3.07-14.19L46.49,63.75l38.1,38.1,10.68,10.68,48.39,48.39,111.34,111.34,.14,.14c-4.33,1.96-9.14,3.07-14.19,3.07H42.52Z"/><polygon class="cls-1" points="28.87 77.66 59.54 101.85 76.52 101.85 41.98 67.31 28.87 77.66"/><polygon class="cls-1" points="201.26 101.85 201.26 53.46 78.2 53.46 126.59 101.85 201.26 101.85"/><polygon class="cls-1" points="89.78 160.92 135.6 160.92 89.78 115.11 89.78 160.92"/><polygon class="cls-1" points="185.66 160.92 231.5 160.92 262.17 136.72 231.5 112.53 137.27 112.53 185.66 160.92"/><polygon class="cls-1" points="142.33 170.05 142.33 263.63 158.41 263.63 158.41 183.73 144.73 170.05 142.33 170.05"/><path class="cls-1" d="M158.41,33.88c0-4.91-3.6-8.88-8.04-8.88s-8.04,3.98-8.04,8.88v9.15l15.52-.05,.57-9.11Z"/></g></g></svg>