<?xml version="1.0" encoding="UTF-8"?><svg id="Ebene_2" xmlns="http://www.w3.org/2000/svg" viewBox="0 0 283.46 283.46"><defs><style>.cls-1{fill:#306da5;}</style></defs><g id="dtp_noisetaperecordersplayers_allowed_regular"><g><path class="cls-1" d="M240.94,8c19.03,0,34.52,15.49,34.52,34.52V240.94c0,19.03-15.49,34.52-34.52,34.52H42.52c-19.03,0-34.52-15.49-34.52-34.52V42.52C8,23.49,23.49,8,42.52,8H240.94m0-8H42.52C19.04,0,0,19.04,0,42.52V240.94c0,23.48,19.04,42.52,42.52,42.52H240.94c23.48,0,42.52-19.04,42.52-42.52V42.52c0-23.48-19.04-42.52-42.52-42.52h0Z"/><path class="cls-1" d="M237.5,84.76h-9.94v-14.83c1.78-.07,3.21-1.53,3.21-3.33s-1.5-3.34-3.34-3.34h-5.44c-1.85,0-3.34,1.5-3.34,3.34s1.43,3.26,3.21,3.33v14.83h-29.22v-1.25c0-8.96-7.29-16.24-16.24-16.24H107.06c-8.96,0-16.24,7.29-16.24,16.24v1.25H47.31c-8.4,0-15.2,6.81-15.2,15.2v106.39c0,7.65,6.2,13.85,13.85,13.85H237.5c7.65,0,13.85-6.2,13.85-13.85V98.62c0-7.65-6.2-13.85-13.85-13.85Zm-136.75-1.25c0-3.48,2.83-6.31,6.31-6.31h69.34c3.48,0,6.31,2.83,6.31,6.31v9.55c0,3.48-2.83,6.31-6.31,6.31H107.06c-3.48,0-6.31-2.83-6.31-6.31v-9.55Zm-17.61,119.39c-19.39,0-35.11-15.72-35.11-35.11s15.72-35.11,35.11-35.11,35.11,15.72,35.11,35.11-15.72,35.11-35.11,35.11Zm35.71-72.39c-4.07,0-7.37-3.3-7.37-7.37v-3.31c0-4.07,3.3-7.37,7.37-7.37h43.09c4.07,0,7.37,3.3,7.37,7.37v3.31c0,4.07-3.3,7.37-7.37,7.37h-43.09Zm79.98,72.39c-19.39,0-35.11-15.72-35.11-35.11s15.72-35.11,35.11-35.11,35.11,15.72,35.11,35.11-15.72,35.11-35.11,35.11Z"/></g></g></svg>