<?xml version="1.0" encoding="UTF-8"?><svg id="Ebene_2" xmlns="http://www.w3.org/2000/svg" viewBox="0 0 283.46 283.46"><defs><style>.cls-1{fill:#306da5;}</style></defs><g id="dtp_disposingofwaste_allowed_regular2"><g><path class="cls-1" d="M130.67,160.57c-2.21-.16-4.12,1.48-4.29,3.68l-5.48,71.96s-.04,.08-.08,.08c-.37,0-.74,.05-1.1,.16-13.18,3.78-25.61,3.79-38.01,.02-.38-.12-.77-.17-1.16-.17-.04,0-.08-.03-.09-.12l-7.13-72.01c-.22-2.2-2.18-3.81-4.37-3.59-2.2,.22-3.8,2.18-3.59,4.37l7.12,71.96c.35,3.98,3.46,7.03,7.37,7.35,6.72,1.99,13.58,2.99,20.53,2.99s13.99-1,21.08-2.99c3.95-.32,7.15-3.5,7.41-7.48l5.48-71.93c.17-2.2-1.48-4.12-3.68-4.29Z"/><path class="cls-1" d="M93.36,131.82v11.36c0,2.01,12.35,3.34,12.35,3.34v18.03l10.49-16.37v-16.37l-9.88,2.67-2.47-15.37h-29.01l8.03,16.04,10.49-3.34Z"/><path class="cls-1" d="M175.23,54.2c.44,7.99,7.05,14.19,14.96,14.19,.27,0,.55,0,.83-.02,8.27-.45,14.61-7.52,14.16-15.79l-.45-8.24c-.45-8.27-7.52-14.61-15.79-14.16-8.27,.45-14.61,7.52-14.16,15.79l.45,8.24Z"/><path class="cls-1" d="M211.27,188.22l-1.14-46.65c0-.36-.04-.72-.08-1.07l-1.19-51.5c-.21-9.11-7.81-16.34-16.88-16.12-3.66,.08-7,1.37-9.69,3.45-1.06,.49-2.04,1.19-2.85,2.13l-23.14,26.54-33.91,4.94c-4.65,.68-7.86,4.99-7.19,9.64,.62,4.23,4.25,7.28,8.4,7.28,.41,0,.82-.03,1.24-.09l37.02-5.4c2.01-.29,3.85-1.29,5.18-2.82l9.24-10.6,.78,33.74-19.16,41.75c-.53,1.16-.87,2.41-.99,3.69l-4.75,48.91c-.61,6.32,4.01,11.94,10.33,12.56,.38,.04,.75,.05,1.12,.05,5.85,0,10.86-4.45,11.43-10.39l4.56-46.99,8.28-18.03,.4,16.54c.02,.66,.09,1.32,.22,1.97l9.52,47.65c1.09,5.47,5.89,9.25,11.26,9.25,.75,0,1.51-.07,2.27-.23,6.23-1.24,10.27-7.3,9.02-13.53l-9.33-46.67Z"/><path class="cls-1" d="M240.94,0H42.52C19.04,0,0,19.04,0,42.52V240.94c0,23.48,19.04,42.52,42.52,42.52H240.94c23.48,0,42.52-19.04,42.52-42.52V42.52c0-23.48-19.04-42.52-42.52-42.52Zm34.52,240.94c0,19.03-15.49,34.52-34.52,34.52H42.52c-19.03,0-34.52-15.49-34.52-34.52V42.52c0-19.03,15.49-34.52,34.52-34.52H240.94c19.03,0,34.52,15.49,34.52,34.52V240.94Z"/></g></g></svg>