<?xml version="1.0" encoding="UTF-8"?><svg id="Ebene_2" xmlns="http://www.w3.org/2000/svg" viewBox="0 0 283.46 283.46"><defs><style>.cls-1{fill:#306da5;}</style></defs><g id="dtp_hiking_allowed_regular"><g><path class="cls-1" d="M240.94,0H42.52C19.04,0,0,19.04,0,42.52V240.94c0,23.48,19.04,42.52,42.52,42.52H240.94c23.48,0,42.52-19.04,42.52-42.52V42.52c0-23.48-19.04-42.52-42.52-42.52Zm34.52,240.94c0,19.03-15.49,34.52-34.52,34.52H42.52c-19.03,0-34.52-15.49-34.52-34.52V42.52c0-19.03,15.49-34.52,34.52-34.52H240.94c19.03,0,34.52,15.49,34.52,34.52V240.94Z"/><path class="cls-1" d="M197.76,138.95l-15.32,108c-.27,1.92,1.06,3.69,2.97,3.96,.17,.02,.34,.03,.5,.03,1.71,0,3.21-1.26,3.46-3l15.47-109.04c-.42,.03-.85,.05-1.29,.05h-5.79Z"/><path class="cls-1" d="M208.74,86.48c-1.93-.27-3.69,1.06-3.96,2.97l-2.94,20.71h1.71c1.84,0,3.61,.31,5.24,.87l2.92-20.6c.27-1.91-1.06-3.68-2.97-3.95Z"/><path class="cls-1" d="M154.88,72.43c1.98,.88,4.05,1.3,6.09,1.3,5.74,0,11.23-3.32,13.71-8.91l3.2-7.19c3.37-7.57-.04-16.43-7.61-19.8-7.57-3.37-16.44,.04-19.8,7.61l-3.2,7.19c-3.37,7.57,.04,16.43,7.61,19.8Z"/><path class="cls-1" d="M88.93,130.31c1.71,.67,3.47,.98,5.2,.98,5.73,0,11.14-3.46,13.35-9.13l19.01-48.58c2.87-7.37-3.1-8.5-10.73-10.59-12.79-3.5-20.94,14.27-23.81,21.64l-11.17,27.12c-2.87,7.37,.77,15.68,8.14,18.55Z"/><path class="cls-1" d="M207.87,117.47c-1.4-1.03-3.14-1.63-5.01-1.63h-30.24l-2.05-5.68-8.38-23.23-.04-.11c-1.05-5.38-4.73-10.13-10.22-12.26-8.49-3.29-18.05,.92-21.35,9.42l-20.39,52.57c-2.52,6.49-.64,13.6,4.18,18.06,.28,.48,.58,.95,.94,1.4l31.18,39.32,3.55,45.11c.47,6.02,5.51,10.6,11.45,10.6,.3,0,.61-.01,.92-.04,6.33-.5,11.06-6.04,10.56-12.37l-3.83-48.61c-.18-2.28-1.03-4.45-2.45-6.24l-26.57-33.5c.31-.58,.6-1.18,.84-1.81l13.14-33.88h0s.98,2.72,.98,2.72l3.58,9.91c1.22,3.37,4.41,5.61,8,5.61h36.2c1.02,0,2-.18,2.91-.51,3.26-1.18,5.59-4.31,5.59-7.99,0-2.82-1.37-5.32-3.49-6.87Z"/><path class="cls-1" d="M103.91,188.02l-20.18,46.61c-2.68,6.18,.16,13.37,6.35,16.05,1.58,.68,3.22,1.01,4.84,1.01,4.72,0,9.21-2.75,11.2-7.36l20.97-48.44c.52-1.21,.85-2.49,.96-3.8l.99-9.47-20.28-25.05-4.86,30.46Z"/></g></g></svg>