<?xml version="1.0" encoding="UTF-8"?><svg id="Ebene_2" xmlns="http://www.w3.org/2000/svg" viewBox="0 0 283.46 283.46"><defs><style>.cls-1{fill:#306da5;}</style></defs><g id="dtp_officiallypublicdedicatedstreetsplaces_forbidden_regular"><g><path class="cls-1" d="M283.46,42.52c0-23.48-19.04-42.52-42.52-42.52H42.52C19.04,0,0,19.04,0,42.52V240.94c0,23.48,19.04,42.52,42.52,42.52H240.94c23.48,0,42.52-19.04,42.52-42.52V42.52ZM95.86,8c-.38,21.32-4.42,37.74-9.38,53.74l11.04,11.04c6.24-19.31,11.77-38.36,12.2-64.78h43.04c-.12,7.02-.61,13.75-1.54,20.44l13.73,1.91c1.02-7.33,1.55-14.68,1.68-22.35h43.06c-.48,26.58-6.63,45.56-13.16,65.6-7.2,22.12-14.66,44.99-16.36,80.38-.02,.45-.04,.9-.06,1.37l14.28,14.28c-.43-5.97-.56-10.99-.37-14.98,1.61-33.54,8.77-55.51,15.69-76.76,6.88-21.13,13.4-41.14,13.86-69.89h17.39c19.03,0,34.52,15.49,34.52,34.52V240.94c0,5.21-1.17,10.16-3.25,14.59l-77.04-77.04-15.03-15.03-48.5-48.5-36.11-36.11L27.93,11.25c4.44-2.08,9.38-3.25,14.59-3.25h53.34Zm116.44,267.46c-3.74-17.23-6.94-33.1-9.56-47.4l-17.05-17.04c3.48,21.23,8.08,44.2,12.44,64.44h-42.73c-1.75-8.1-3.42-16.02-4.95-23.57l-13.58,2.75c1.35,6.69,2.82,13.68,4.35,20.82h-42.74c-12.73-58.73-19.23-101.63-18.31-120.81,.81-16.88,3.03-30.84,5.91-43.24l-11.44-11.44c-4.02,15.08-7.26,32.16-8.31,54.01-1.23,25.47,8.92,79.38,17.98,121.48H42.52c-19.03,0-34.52-15.49-34.52-34.52V42.52c0-5.06,1.1-9.86,3.07-14.19L76.4,93.66l11.27,11.27,167.33,167.33,.14,.14c-4.33,1.96-9.14,3.07-14.19,3.07h-28.64Z"/><path class="cls-1" d="M133.09,94.49l13.32,3.81c2.03-7.09,4.23-13.86,6.37-20.41,2.98-9.16,5.8-17.81,8.18-27.27l-13.44-3.37c-2.26,8.99-5.01,17.42-7.92,26.35-2.17,6.66-4.42,13.55-6.51,20.89Z"/><path class="cls-1" d="M133.04,235.05l13.61-2.56c-3.55-18.92-6.17-35.26-7.77-48.58l-13.76,1.66c1.64,13.61,4.3,30.26,7.92,49.48Z"/><path class="cls-1" d="M123.31,165.28l13.85-.66c-.04-.76-.07-1.5-.09-2.22l-13.53-13.54c-.12,1.7-.22,3.4-.3,5.12-.07,1.4-.1,2.91-.1,4.5,0,2.09,.06,4.37,.17,6.8Z"/></g></g></svg>