<?xml version="1.0" encoding="UTF-8"?><svg id="Ebene_2" xmlns="http://www.w3.org/2000/svg" viewBox="0 0 283.46 283.46"><defs><style>.cls-1{fill:#306da5;}</style></defs><g id="dtp_paragliding_allowed_regular"><g><path class="cls-1" d="M246.33,101.39c-.3-.31-.6-.6-.9-.89-2.89,2.81-8,7.12-15.34,11.06-.3-.58-.61-1.17-.94-1.77,7.03-3.79,12-7.96,14.81-10.67-.1-.08-.19-.18-.28-.26-.51-3.55-3.32-8.52-7.73-13.1-2.06-2.15-4.22-3.92-6.3-5.3-2.33,2.85-6.53,7.36-12.81,11.88-.44-.51-.88-1.02-1.33-1.53,5.99-4.31,10.11-8.65,12.42-11.42,0,0,0,0-.01,0-.81-3.49-4.56-8.26-10.04-12.28-2.55-1.87-5.14-3.32-7.55-4.33-1.98,3.21-5.35,7.93-10.45,12.91-.51-.43-1.03-.86-1.56-1.29,5.26-5.13,8.68-10.03,10.57-13.15-1.77-3.02-5.32-6.47-9.94-9.36-3.03-1.89-6.07-3.27-8.79-4.07-1.54,3.15-4.52,8.42-9.53,14.21-.58-.35-1.17-.7-1.76-1.04,5.23-6.01,8.26-11.51,9.7-14.51-3.37-4.58-22.12-13.85-29.26-14.08-1.5,3.38-3.7,9.36-4.85,17.19-.64-.23-1.28-.46-1.93-.68,1.11-7.34,3.09-13.01,4.6-16.54-2.42-1.73-5.62-3.35-9.27-4.57-4.77-1.59-9.33-2.18-12.73-1.82-1.27,3.77-2.85,9.84-3.31,17.47-.66-.12-1.31-.24-1.97-.36,.44-7.15,1.82-12.91,3.05-16.78-2.43-1.36-5.45-2.57-8.82-3.42-5.98-1.51-11.52-1.54-14.89-.33-.71,3.91-1.45,10.42-.69,18.43-.67-.02-1.34-.03-2.02-.03-.74-7.92-.06-14.33,.65-18.37-2.57-.88-5.61-1.53-8.95-1.78-5.92-.45-11.22,.38-14.39,2.02-.29,4.21-.27,11.08,1.55,19.29-.66,.08-1.33,.18-1.99,.27-1.81-8.23-1.87-15.07-1.59-19.4-.73-.1-1.48-.18-2.24-.24-8.78-.67-16.2,1.48-17.32,4.88-.01,0-.03,0-.04,0-3.84,6.54,2.65,14.32,6.62,16.01-.49,.33-.75,.93-.63,1.54l26.32,126.74-11.59-1.84,4.09-18.23c.84-3.78-1.53-7.52-5.3-8.36-3.78-.85-7.52,1.52-8.37,5.3l-5.71,25.51c-.43,1.88-.05,3.86,1.04,5.46,1.08,1.6,2.78,2.68,4.69,2.98l13.72,2.17-3.28,7.01c1.44,.09,2.87,.43,4.26,1.04,.08,.03,.22,.09,.36,.16,5.18,2.44,7.9,7.87,7.07,13.26,3.57-3.93,9.39-5.33,14.5-3.08,.09,.04,.21,.09,.33,.15,1.3,.61,2.45,1.42,3.42,2.36l3.03-6.49,9.42,8.33c1.29,1.14,2.94,1.76,4.64,1.76,.21,0,.43,0,.65-.03,1.92-.18,3.69-1.15,4.87-2.68l16.05-20.64c2.37-3.05,1.82-7.45-1.23-9.82-3.06-2.38-7.45-1.83-9.83,1.23l-11.46,14.75-8.87-7.84,114.77-60.47c.49-.26,.77-.75,.79-1.27,3.85,2.76,15.37,4.14,17.11-4.73,0-.01-.02-.02-.02-.04,1.91-3.03-1.15-10.13-7.25-16.47ZM71.06,44.56c-.06-.27-.18-.5-.36-.69,3.36-.47,6.73-.85,10.11-1.14-1.15,.17-2.3,.35-3.46,.55,0,0,10.56,.55,26.89,3.87l-10.75,105.53-22.45-108.11Zm49.85,139.78l-4.1-3.62c-.79-.71-1.51-1.33-2.15-1.85-4.06-3.63-7.64-5.01-14.68-6.08l-5.42-.86,12.64-124.17c26.63,5.74,66.75,18.63,102,47.28l-88.3,89.3Zm113.4-63.09l-97.69,51.46,74.91-75.76c7.38,6.18,14.52,13.07,21.26,20.75-.21-.59-.45-1.2-.71-1.83,1.1,1.71,2.17,3.46,3.23,5.24-.33-.07-.68-.03-1,.14Z"/><path class="cls-1" d="M121.68,146.91c-5.64-2.45-12.19,.14-14.64,5.78l-2.32,5.36c-2.4,5.53,.04,11.94,5.46,14.49,.11,.05,.21,.1,.32,.15,5.64,2.45,12.19-.14,14.64-5.78l2.32-5.36c2.45-5.64-.15-12.19-5.78-14.64Z"/><path class="cls-1" d="M89.75,207.19c1.56-3.54,0-7.69-3.58-9.23-1.55-.68-3.21-.76-4.72-.33-1.94,.55-3.63,1.93-4.51,3.91l-15.89,36.05c-1.54,3.49-.01,7.54,3.42,9.16,.05,.02,.11,.05,.16,.07,3.54,1.56,7.67-.04,9.23-3.58l10.25-23.25,5.64-12.8Z"/><path class="cls-1" d="M107.74,208.58c-3.54-1.56-7.67,.05-9.23,3.58l-5.36,12.15-10.53,23.9c-1.53,3.49-.01,7.54,3.42,9.16,.05,.02,.11,.05,.16,.07,3.54,1.56,7.67-.04,9.23-3.58l15.89-36.05c.91-2.06,.76-4.32-.23-6.16-.71-1.32-1.85-2.42-3.35-3.07Z"/><path class="cls-1" d="M240.94,0H42.52C19.04,0,0,19.04,0,42.52V240.94c0,23.49,19.04,42.52,42.52,42.52H240.94c23.49,0,42.52-19.03,42.52-42.52V42.52c0-23.48-19.03-42.52-42.52-42.52Zm34.52,240.94c0,19.03-15.49,34.52-34.52,34.52H42.52c-19.03,0-34.52-15.49-34.52-34.52V42.52C8,23.49,23.49,8,42.52,8H240.94c19.03,0,34.52,15.49,34.52,34.52V240.94Z"/></g></g></svg>