<?xml version="1.0" encoding="UTF-8"?><svg id="Ebene_2" xmlns="http://www.w3.org/2000/svg" viewBox="0 0 283.46 283.46"><defs><style>.cls-1{fill:#306da5;}</style></defs><g id="dtp_allowed_regular"><g><path class="cls-1" d="M119.47,228.41c-2.97,0-5.84-1.15-7.99-3.23l-57.61-55.68c-4.57-4.41-4.69-11.69-.28-16.26,4.41-4.57,11.69-4.69,16.26-.28l47.79,46.18L212.09,60.1c3.57-5.25,10.72-6.62,15.97-3.05,5.25,3.57,6.62,10.72,3.05,15.97l-102.13,150.35c-1.91,2.81-4.96,4.63-8.33,4.98-.39,.04-.79,.06-1.18,.06Z"/><path class="cls-1" d="M240.94,8c19.03,0,34.52,15.49,34.52,34.52V240.94c0,19.03-15.49,34.52-34.52,34.52H42.52c-19.03,0-34.52-15.49-34.52-34.52V42.52C8,23.49,23.49,8,42.52,8H240.94m0-8H42.52C19.04,0,0,19.04,0,42.52V240.94c0,23.48,19.04,42.52,42.52,42.52H240.94c23.48,0,42.52-19.04,42.52-42.52V42.52c0-23.48-19.04-42.52-42.52-42.52h0Z"/></g></g></svg>