<?xml version="1.0" encoding="UTF-8"?><svg id="Ebene_2" xmlns="http://www.w3.org/2000/svg" viewBox="0 0 283.46 283.46"><defs><style>.cls-1{fill:#306da5;}</style></defs><g id="dtp_snow_forbidden_regular"><g><path class="cls-1" d="M240.94,0H42.52C19.04,0,0,19.04,0,42.52V240.94c0,23.48,19.04,42.52,42.52,42.52H240.94c23.48,0,42.52-19.04,42.52-42.52V42.52c0-23.48-19.04-42.52-42.52-42.52Zm0,8c19.03,0,34.52,15.49,34.52,34.52V240.94c0,5.21-1.17,10.16-3.25,14.59l-.12-.12-108.74-108.74-5.59-5.59-22.56-22.56-38.02-38.02-5.99-5.99L27.93,11.25c4.44-2.08,9.38-3.25,14.59-3.25H240.94ZM42.52,275.46c-19.03,0-34.52-15.49-34.52-34.52V42.52c0-5.06,1.1-9.86,3.07-14.19L80.41,97.67l38.32,38.32,6.59,6.59,22.94,22.94,38.16,38.16,68.58,68.58,.14,.14c-4.33,1.96-9.14,3.07-14.19,3.07H42.52Z"/><path class="cls-1" d="M53.58,98.33l25.66,14.84-18.71,7.03c-3.62,1.36-5.45,5.4-4.09,9.02,1.05,2.8,3.72,4.53,6.55,4.53,.82,0,1.65-.14,2.46-.44l29.47-11.08,4.7,2.72-38.34-38.34-.69-.4c-3.35-1.93-7.63-.79-9.57,2.56-1.93,3.35-.79,7.63,2.56,9.56Z"/><path class="cls-1" d="M120.21,145.53l-25.75,14.85-28.19-10.74c-3.61-1.38-7.65,.43-9.03,4.04-1.38,3.62,.43,7.66,4.05,9.04l17.53,6.68-25.74,14.85c-3.35,1.93-4.5,6.21-2.57,9.56,1.3,2.25,3.65,3.5,6.07,3.5,1.19,0,2.39-.3,3.49-.93l25.68-14.81-3.27,19.72c-.63,3.82,1.95,7.42,5.77,8.05,.38,.06,.77,.1,1.15,.1,3.36,0,6.33-2.44,6.9-5.86l5.14-31.06,29.01-16.74-10.24-10.25Z"/><path class="cls-1" d="M172.57,212l-24.32-19.98v-18.44l-13.99-14v32.42s-23.41,19.03-23.41,19.03c-3,2.44-3.45,6.85-1.01,9.85s6.85,3.45,9.85,1.01l14.55-11.84v29.72c-.02,3.86,3.12,7,6.98,7h.01c3.86,0,6.99-3.13,7-7v-29.64s15.46,12.69,15.46,12.69c1.3,1.07,2.87,1.59,4.44,1.59,2.02,0,4.03-.87,5.41-2.55,2.45-2.99,2.02-7.4-.97-9.86Z"/><path class="cls-1" d="M110.89,71.46l24.33,19.98v19.03s13.98,13.99,13.98,13.99l.02-33,23.39-19.03c3-2.44,3.46-6.85,1.02-9.85-2.44-2.99-6.85-3.45-9.85-1.01l-14.55,11.84v-29.71c.01-3.87-3.12-7-6.99-7.01-1.94,0-3.68,.79-4.95,2.05-1.27,1.27-2.05,3.02-2.05,4.95v29.64s-15.46-12.69-15.46-12.69c-2.99-2.45-7.4-2.02-9.85,.97-2.46,2.98-2.03,7.4,.96,9.85Z"/><path class="cls-1" d="M162.88,138.14l26.13-15.06,28.18,10.75c.82,.31,1.66,.46,2.49,.46,2.82,0,5.48-1.72,6.54-4.51,1.38-3.61-.43-7.66-4.04-9.04l-17.53-6.68,25.74-14.84c3.35-1.94,4.49-6.22,2.56-9.57-1.93-3.34-6.21-4.49-9.56-2.56l-25.68,14.81,3.27-19.73c.63-3.81-1.95-7.42-5.76-8.05-3.82-.63-7.42,1.95-8.05,5.77l-5.14,31.06-29.39,16.95,10.24,10.24Z"/><path class="cls-1" d="M229.88,185.13l-25.66-14.83,18.72-7.04c3.61-1.36,5.45-5.39,4.09-9.01-1.36-3.62-5.4-5.45-9.02-4.09l-29.47,11.07-6.09-3.52,38.32,38.32,2.11,1.22c1.1,.64,2.31,.94,3.5,.94,2.41,0,4.77-1.25,6.06-3.5,1.94-3.34,.79-7.63-2.56-9.56Z"/></g></g></svg>