<?xml version="1.0" encoding="UTF-8"?><svg id="Ebene_2" xmlns="http://www.w3.org/2000/svg" viewBox="0 0 283.46 283.46"><defs><style>.cls-1{fill:#306da5;}</style></defs><g id="dtp_disposingofwaste_forbidden_regular2"><g><path class="cls-1" d="M240.94,0H42.52C19.04,0,0,19.04,0,42.52V240.94c0,23.48,19.04,42.52,42.52,42.52H240.94c23.48,0,42.52-19.04,42.52-42.52V42.52c0-23.48-19.04-42.52-42.52-42.52Zm0,8c19.03,0,34.52,15.49,34.52,34.52V240.94c0,5.21-1.17,10.16-3.25,14.59l-.12-.12-59.24-59.24-24.33-24.33-.68-.68-46.78-46.78-14.99-14.99L27.93,11.25c4.44-2.08,9.38-3.25,14.59-3.25H240.94ZM42.52,275.46c-19.03,0-34.52-15.49-34.52-34.52V42.52c0-5.06,1.1-9.86,3.07-14.19L101.87,119.13l2.36,2.36,10.68,10.68,1.29,1.29,44.31,44.31,18.61,18.61,12.91,12.91,28.76,28.76,34.21,34.21,.14,.14c-4.33,1.96-9.14,3.07-14.19,3.07H42.52Z"/><path class="cls-1" d="M130.67,160.57c-2.21-.16-4.12,1.48-4.29,3.68l-5.48,71.96s-.04,.08-.08,.08c-.37,0-.74,.05-1.1,.16-13.18,3.78-25.61,3.79-38.01,.02-.38-.12-.77-.17-1.16-.17-.04,0-.08-.03-.09-.12l-7.13-72.01c-.22-2.2-2.18-3.81-4.37-3.59-2.2,.22-3.8,2.18-3.59,4.37l7.12,71.96c.35,3.98,3.46,7.03,7.37,7.35,6.72,1.99,13.58,2.99,20.53,2.99s13.99-1,21.08-2.99c3.95-.32,7.15-3.5,7.41-7.48l5.48-71.93c.17-2.2-1.48-4.12-3.68-4.29Z"/><path class="cls-1" d="M93.36,131.82v11.37c0,2,12.35,3.34,12.35,3.34v18.03l10.49-16.37v-6.66l-7.63-7.64-2.25,.61-.55-3.4-11.97-11.97h-18.96l8.02,16.04,10.5-3.35Z"/><path class="cls-1" d="M157.91,183.43c-.53,1.17-.87,2.41-.99,3.69l-4.75,48.91c-.61,6.32,4.01,11.95,10.33,12.56,.38,.04,.76,.05,1.13,.05,5.85,0,10.86-4.44,11.43-10.39l3.35-34.52-20.44-20.43-.06,.13Z"/><path class="cls-1" d="M175.23,54.2c.44,7.99,7.05,14.19,14.96,14.19,.27,0,.55,0,.83-.02,8.27-.45,14.61-7.52,14.16-15.79l-.45-8.24c-.45-8.27-7.52-14.61-15.79-14.16-8.27,.45-14.61,7.52-14.16,15.79l.45,8.24Z"/><path class="cls-1" d="M161.87,121.36c2.01-.29,3.85-1.29,5.18-2.82l9.25-10.6,.77,33.75-3.35,7.29,3.6,3.6,17.01,17.01,16.9,16.9-1.1-44.93c-.01-.32-.03-.64-.07-.96l-1.19-51.6c-.21-9.11-7.81-16.34-16.88-16.12-3.67,.09-7.02,1.36-9.71,3.45-1.05,.49-2.02,1.2-2.83,2.13l-23.14,26.54-23.19,3.38,14.99,14.99,13.76-2.01Z"/><path class="cls-1" d="M198.05,239.4c1.09,5.46,5.89,9.25,11.26,9.25,.75,0,1.51-.08,2.27-.23,2.94-.59,5.39-2.25,7.02-4.5l-24.56-24.55,4.01,20.03Z"/></g></g></svg>