<?xml version="1.0" encoding="UTF-8"?><svg id="Ebene_2" xmlns="http://www.w3.org/2000/svg" viewBox="0 0 283.46 283.46"><defs><style>.cls-1{fill:#306da5;}</style></defs><g id="dtp_camping_allowed_regular"><g><path class="cls-1" d="M45.34,205.01l37.19,5.19,9.4-70.99,10.16,72.22,38.51,6.03s-45.6-117.83-48.33-135.4c-6.03,17.19-46.92,122.95-46.92,122.95Z"/><path class="cls-1" d="M258.18,160.44c-1.8-1.14-4.09-.46-5.13,1.51l-12.3,23.33c-.69-1.49-38.93-83.86-45.48-102.95-22.86,.85-77.11,.8-100.33-3.17,5.14,23.34,51.02,136.97,51.02,136.97,0,0,.02-.01,.06-.04l12.19-23.1c1.03-1.97,3.33-2.64,5.13-1.51,1.79,1.14,2.41,3.65,1.37,5.62l-7.07,13.41c.11-.01,.21-.02,.31-.02l82.78-25.16-.03,.06h8.68l10.19-19.32c1.04-1.97,.42-4.48-1.38-5.62Z"/><path class="cls-1" d="M27.84,180.07c-1.8,1.14-2.41,3.65-1.38,5.62l10.19,19.32h8.68l-12.36-23.43c-1.04-1.97-3.34-2.64-5.13-1.51Z"/><path class="cls-1" d="M240.94,0H42.52C19.04,0,0,19.04,0,42.52V240.94c0,23.48,19.04,42.52,42.52,42.52H240.94c23.48,0,42.52-19.04,42.52-42.52V42.52c0-23.48-19.04-42.52-42.52-42.52Zm34.52,240.94c0,19.03-15.49,34.52-34.52,34.52H42.52c-19.03,0-34.52-15.49-34.52-34.52V42.52c0-19.03,15.49-34.52,34.52-34.52H240.94c19.03,0,34.52,15.49,34.52,34.52V240.94Z"/></g></g></svg>