<?xml version="1.0" encoding="UTF-8"?><svg id="Ebene_2" xmlns="http://www.w3.org/2000/svg" viewBox="0 0 283.46 283.46"><defs><style>.cls-1{fill:#306da5;}</style></defs><g id="dtp_climbing_forbidden_regular"><g><path class="cls-1" d="M26.97,114.32c2.49,5.59,7.97,8.91,13.71,8.91,2.04,0,4.11-.42,6.09-1.3,7.57-3.37,10.97-12.23,7.61-19.8l-3.02-6.78c-3.37-7.57-12.23-10.97-19.8-7.61-7.57,3.37-10.97,12.23-7.61,19.8l3.02,6.78Z"/><path class="cls-1" d="M240.94,0H42.52C19.04,0,0,19.04,0,42.52V240.94c0,23.48,19.04,42.52,42.52,42.52H240.94c23.48,0,42.52-19.04,42.52-42.52V42.52c0-23.48-19.04-42.52-42.52-42.52ZM54.19,275.46l-.11-35.31c5.2,5.61,13.37,10.21,26.18,11.22,12.87,1.02,23.22-2.26,30.77-9.75,8.41-8.34,11.38-20.1,12.39-28.66l25.27,25.71c.44,.45,.91,.84,1.4,1.2l-3.67,35.58H54.19Zm99.94-72.68c-.17,.34-.27,.7-.31,1.08l-.67,6.54-15.43-15.7c-1.15-1.17-2.53-2.07-4.05-2.66l-9.12-3.53,.8-15.93,32.84,19.1c.4,.23,.8,.42,1.21,.6l-5.26,10.52Zm-38.43-17.71l-8.55-3.31c.05-.42,.07-.84,.09-1.27l8.91-4.36-.45,8.94Zm-68.74-28.37l28.41,34.52c1.65,2.01,3.65,3.54,5.83,4.63,.87,.67,1.84,1.24,2.91,1.65l30.6,11.84c-.55,7.22-2.64,18.58-10.05,25.91-5.6,5.54-13.58,7.95-23.7,7.14-11.89-.94-20.01-5.64-24.13-13.95-2.18-4.39-2.71-8.76-2.82-11.1v-2.07s-.72-.02-.72-.02c3.31-2.7,4.14-7.51,1.77-11.19l-19.02-29.5,10.91-17.86Zm202.43,117.71l-81.81-81.81-44.85-44.85-4.91-4.91-.35,7.05-21.02,10.29-17.09-20.77,19.37-.47c2.69-.07,5.19-1.4,6.74-3.61l2-2.84-12.2-12.2-1.24,1.76-36.09,.88c-.86,.02-1.69,.17-2.49,.44-3.32,.39-6.57,1.68-9.35,3.97-2.02,1.67-3.58,3.69-4.67,5.89-.09,.13-.19,.24-.27,.37l-22.4,36.67c-1.7,2.78-1.66,6.29,.11,9.04l21.91,33.99c1.04,1.62,2.54,2.76,4.22,3.37,0,.08,0,.16,0,.25l.18,58.56h-2.67c-19.03,0-34.52-15.49-34.52-34.52V42.52c0-5.14,1.14-10.01,3.16-14.39l.36,.36,243.82,243.82c-1.9,.88-3.89,1.59-5.95,2.11Zm22.92-19.08L28.36,11.39l-.23-.23c4.38-2.02,9.26-3.16,14.39-3.16h125.38l-46.51,79.6c-2.1,.34-4.07,1.48-5.44,3.31l12.19,12.19,.64,.64,.08-1.66,.85-1.21c2.11-3,2-6.88,.03-9.73L168.27,25.21l-14.09,62.4c-.19,.84-.02,1.72,.46,2.44l17.78,26.35c.68,1,.71,2.31,.09,3.35l-8.07,13.53c-.47,.78-.57,1.73-.28,2.59l1.62,4.85,108.65,108.65c-.52,2.07-1.23,4.05-2.11,5.95Z"/></g></g></svg>