<?xml version="1.0" encoding="UTF-8"?><svg id="Ebene_2" xmlns="http://www.w3.org/2000/svg" viewBox="0 0 283.46 283.46"><defs><style>.cls-1{fill:#306da5;}</style></defs><g id="dtp_winter_allowed_regular"><g><path class="cls-1" d="M118.96,176.57c-.98-1.69-3.14-2.27-4.84-1.3l-12.99,7.49,1.65-9.98c.32-1.93-.99-3.75-2.91-4.07-1.93-.32-3.75,.99-4.07,2.91l-2.6,15.71-16.6,9.58v-19.43s11.84-9.63,11.84-9.63c1.52-1.23,1.75-3.46,.51-4.98-1.23-1.52-3.46-1.75-4.98-.51l-7.36,5.99v-15.03c0-1.96-1.58-3.54-3.53-3.54h0c-1.95,0-3.54,1.58-3.54,3.54v14.99s-7.82-6.42-7.82-6.42c-1.51-1.24-3.74-1.02-4.98,.49-1.24,1.51-1.02,3.74,.49,4.98l12.3,10.11v19.16s-16.83-9.72-16.83-9.72l-2.42-15.06c-.31-1.93-2.12-3.24-4.06-2.93-1.93,.31-3.24,2.13-2.93,4.06l1.51,9.37-13.01-7.52c-1.69-.98-3.86-.4-4.84,1.29-.98,1.69-.4,3.86,1.29,4.84l12.98,7.5-9.47,3.56c-1.83,.69-2.76,2.73-2.07,4.56,.53,1.42,1.88,2.3,3.31,2.3,.41,0,.83-.07,1.24-.23l14.91-5.6,16.59,9.59-16.83,9.71-14.25-5.43c-1.83-.7-3.87,.22-4.57,2.05-.7,1.83,.22,3.87,2.05,4.57l8.87,3.38-13.02,7.51c-1.69,.98-2.27,3.14-1.3,4.84,.66,1.14,1.85,1.77,3.07,1.77,.6,0,1.21-.15,1.77-.47l12.99-7.49-1.65,9.98c-.32,1.93,.99,3.75,2.91,4.07,.2,.03,.39,.05,.58,.05,1.7,0,3.2-1.23,3.49-2.96l2.6-15.71,16.6-9.58v19.43s-11.84,9.63-11.84,9.63c-1.52,1.23-1.75,3.46-.51,4.98,1.23,1.52,3.46,1.75,4.98,.51l7.36-5.99v15.03c0,1.96,1.58,3.54,3.53,3.54h0c1.95,0,3.54-1.58,3.54-3.54v-14.99s7.82,6.42,7.82,6.42c.66,.54,1.45,.8,2.25,.8,1.02,0,2.04-.44,2.74-1.29,1.24-1.51,1.02-3.74-.49-4.98l-12.3-10.11v-19.16s16.83,9.72,16.83,9.72l2.42,15.06c.28,1.74,1.78,2.98,3.49,2.98,.19,0,.38-.01,.57-.05,1.93-.31,3.24-2.13,2.93-4.06l-1.51-9.37,13.01,7.52c.56,.32,1.17,.48,1.77,.48,1.22,0,2.41-.63,3.07-1.77,.98-1.69,.4-3.86-1.29-4.84l-12.98-7.5,9.47-3.56c1.83-.69,2.76-2.73,2.07-4.56-.69-1.83-2.73-2.76-4.56-2.07l-14.91,5.6-16.59-9.59,16.83-9.71,14.25,5.43c.41,.16,.84,.23,1.26,.23,1.43,0,2.77-.87,3.31-2.28,.7-1.83-.22-3.87-2.05-4.57l-8.87-3.38,13.02-7.51c1.69-.98,2.27-3.14,1.3-4.84Z"/><path class="cls-1" d="M247.48,91.28l-40.41,26.74,2.26-22.18c.22-2.14-.87-4.31-2.85-5.16-3.28-1.4-6.62,.8-6.96,4.01l-3.1,30.43-31.37,20.15-4.38,2.42c-4.19,1.27-5.99-1.34-6.82-3.79-.72-2.15-1.06-9.22-1-16.32h0l3.4-50.05c.29-.16,.56-.34,.81-.57l16.55-14.66c1.86-1.65,2.04-4.5,.41-6.37-1.63-1.87-4.46-2.05-6.31-.41l-10.49,9.3,2.14-27.97c.09-1.24-.32-2.41-1.06-3.28-.93-1.09-2.36-1.73-3.97-1.54-2.15,.26-3.73,2.17-3.9,4.34l-3.53,44.18-14.57-14.12c-1.41-1.36-3.56-1.8-5.27-.85-2.83,1.58-3.13,5.22-1.03,7.27l19.98,19.37-3.34,35.3c-1.03,9.93-4.15,16.08-9.75,13.56l-40.43-24.88c0-.33-.03-.66-.1-.99l-4.71-21.4c-.53-2.4-2.89-3.81-5.26-3.13-2.38,.67-3.88,3.17-3.35,5.57l2.99,13.57-22.96-14.05c-1.02-.62-2.21-.75-3.32-.45-1.37,.37-2.61,1.4-3.2,2.95-.8,2.07,.09,4.34,1.87,5.43l36.2,22.33-19.02,7.14c-1.84,.69-3.24,2.46-3.23,4.43,0,3.26,2.99,5.11,5.74,4.09l26.09-9.79,26.75,16.29s9.9,4.77,9.34,8.29l-10.76,99.89c-.17,1.78,1.23,3.32,3.02,3.32h44.81c1.8,0,3.2-1.55,3.02-3.34,0,0-10.51-84.54-10.51-91.81,0-5.77,3.45-8.66,6.8-11.05l43.35-29.35c.33,.14,.68,.25,1.04,.32l23.85,4.49c2.68,.5,5.26-1.26,5.76-3.94,.51-2.68-1.26-5.26-3.94-5.76l-15.12-2.85,25.52-17.01c1.13-.76,1.85-1.9,2.1-3.14,.31-1.54-.11-3.22-1.38-4.49-1.68-1.69-4.4-1.78-6.39-.46Z"/><path class="cls-1" d="M240.94,0H42.52C19.04,0,0,19.04,0,42.52V240.94c0,23.48,19.04,42.52,42.52,42.52H240.94c23.48,0,42.52-19.04,42.52-42.52V42.52c0-23.48-19.04-42.52-42.52-42.52Zm34.52,240.94c0,19.03-15.49,34.52-34.52,34.52H42.52c-19.03,0-34.52-15.49-34.52-34.52V42.52c0-19.03,15.49-34.52,34.52-34.52H240.94c19.03,0,34.52,15.49,34.52,34.52V240.94Z"/></g></g></svg>