<?xml version="1.0" encoding="UTF-8"?><svg id="Ebene_2" xmlns="http://www.w3.org/2000/svg" viewBox="0 0 283.46 283.46"><defs><style>.cls-1{fill:#306da5;}</style></defs><g id="dtp_daytime_allowed_regular"><g><path class="cls-1" d="M188.76,153.13c-3.57-3.57-8.71-4.22-11.47-1.45-2.77,2.77-2.12,7.9,1.45,11.47l12.92,12.92c3.57,3.57,8.71,4.22,11.47,1.45,2.77-2.77,2.12-7.9-1.45-11.47l-12.92-12.92Z"/><path class="cls-1" d="M218.84,109.92h-18.28c-5.05,0-9.14,3.17-9.14,7.09s4.09,7.09,9.14,7.09h18.28c5.05,0,9.14-3.17,9.14-7.09s-4.09-7.09-9.14-7.09Z"/><path class="cls-1" d="M188.37,81.04l12.92-12.92c3.57-3.57,4.22-8.71,1.45-11.47-2.77-2.77-7.9-2.12-11.47,1.45l-12.92,12.92c-3.57,3.57-4.22,8.71-1.45,11.47,2.77,2.77,7.9,2.12,11.47-1.45Z"/><path class="cls-1" d="M142.22,68.36c3.91,0,7.09-4.09,7.09-9.14v-18.28c0-5.05-3.17-9.14-7.09-9.14s-7.09,4.09-7.09,9.14v18.28c0,5.05,3.17,9.14,7.09,9.14Z"/><path class="cls-1" d="M96.23,81.43c3.57,3.57,8.71,4.22,11.47,1.45,2.77-2.77,2.12-7.9-1.45-11.47l-12.92-12.92c-3.57-3.57-8.71-4.22-11.47-1.45-2.77,2.77-2.12,7.9,1.45,11.47l12.92,12.92Z"/><path class="cls-1" d="M92.04,119.09c0-3.91-4.09-7.09-9.14-7.09h-18.28c-5.05,0-9.14,3.17-9.14,7.09s4.09,7.09,9.14,7.09h18.28c5.05,0,9.14-3.17,9.14-7.09Z"/><path class="cls-1" d="M95.1,155.06l-12.92,12.92c-3.57,3.57-4.22,8.71-1.45,11.47s7.9,2.12,11.47-1.45l12.92-12.92c3.57-3.57,4.22-8.71,1.45-11.47-2.77-2.77-7.9-2.12-11.47,1.45Z"/><path class="cls-1" d="M141.25,167.74c-3.91,0-7.09,4.09-7.09,9.14v18.28c0,5.05,3.17,9.14,7.09,9.14s7.09-4.09,7.09-9.14v-18.28c0-5.05-3.17-9.14-7.09-9.14Z"/><circle class="cls-1" cx="141.73" cy="118.05" r="37.71"/><path class="cls-1" d="M240.94,0H42.52C19.04,0,0,19.04,0,42.52V240.94c0,23.48,19.04,42.52,42.52,42.52H240.94c23.48,0,42.52-19.04,42.52-42.52V42.52c0-23.48-19.04-42.52-42.52-42.52Zm34.52,240.94c0,14.56-9.07,27.04-21.85,32.1-24.17-32.98-65.25-52.86-111.88-52.86s-87.72,19.88-111.88,52.86c-12.78-5.06-21.85-17.54-21.85-32.1V42.52c0-19.03,15.49-34.52,34.52-34.52H240.94c19.03,0,34.52,15.49,34.52,34.52V240.94Z"/></g></g></svg>