<?xml version="1.0" encoding="UTF-8"?><svg id="Ebene_2" xmlns="http://www.w3.org/2000/svg" viewBox="0 0 283.46 283.46"><defs><style>.cls-1{fill:#306da5;}</style></defs><g id="dtp_paths_allowed_regular"><g><path class="cls-1" d="M135.21,204.24c-1.25-5.1-6.39-8.22-11.48-6.97-5.1,1.25-8.22,6.39-6.97,11.48,1.46,5.97,3.14,12.29,4.98,18.79,1.19,4.18,4.99,6.91,9.13,6.91,.86,0,1.73-.12,2.6-.36,5.05-1.43,7.98-6.69,6.55-11.73-1.78-6.28-3.4-12.37-4.8-18.12Z"/><path class="cls-1" d="M121.08,178.41c4.56,0,8.58-3.29,9.36-7.94,.79-4.72,2.59-9.19,5.68-14.07,2.81-4.43,1.48-10.3-2.95-13.11-4.43-2.8-10.3-1.48-13.11,2.95-4.42,6.99-7.16,13.9-8.36,21.1-.86,5.18,2.63,10.07,7.81,10.93,.53,.09,1.06,.13,1.57,.13Z"/><path class="cls-1" d="M168.02,98.07c-4.59-2.54-10.37-.87-12.91,3.72-2.49,4.51-5.64,9.01-9.9,14.16-3.35,4.04-2.78,10.03,1.26,13.38,1.77,1.47,3.92,2.18,6.05,2.18,2.73,0,5.44-1.17,7.32-3.44,5.04-6.09,8.83-11.52,11.91-17.1,2.54-4.59,.87-10.37-3.72-12.91Z"/><path class="cls-1" d="M172.75,47.62c-2.14-4.79-7.76-6.94-12.55-4.8-4.79,2.14-6.94,7.76-4.8,12.55,2.49,5.57,4.23,10.96,5.16,16,.85,4.57,4.84,7.76,9.33,7.76,.58,0,1.16-.05,1.75-.16,5.16-.96,8.56-5.92,7.6-11.08-1.21-6.51-3.4-13.33-6.49-20.27Z"/><path class="cls-1" d="M240.94,0H42.52C19.04,0,0,19.04,0,42.52V240.94c0,23.48,19.04,42.52,42.52,42.52H240.94c23.48,0,42.52-19.04,42.52-42.52V42.52c0-23.48-19.04-42.52-42.52-42.52Zm34.52,240.94c0,19.03-15.49,34.52-34.52,34.52h-86.98c1.33-2.36,1.66-5.26,.64-8-.01-.03-1.3-3.49-3.27-9.2-1.71-4.96-7.12-7.59-12.08-5.88-4.96,1.71-7.59,7.12-5.88,12.08,2.06,5.95,3.37,9.49,3.43,9.64,.18,.48,.39,.93,.63,1.36H42.52c-19.03,0-34.52-15.49-34.52-34.52V42.52c0-19.03,15.49-34.52,34.52-34.52h85.68c-1.57,3.49-.94,7.72,1.92,10.6,.02,.02,2.54,2.56,6.09,6.83,1.88,2.26,4.58,3.42,7.3,3.42,2.14,0,4.3-.72,6.08-2.2,4.03-3.36,4.58-9.35,1.22-13.38-1.79-2.15-3.36-3.93-4.58-5.27h94.71c19.03,0,34.52,15.49,34.52,34.52V240.94Z"/></g></g></svg>