<?xml version="1.0" encoding="UTF-8"?><svg id="Ebene_2" xmlns="http://www.w3.org/2000/svg" viewBox="0 0 283.46 283.46"><defs><style>.cls-1{fill:#306da5;}</style></defs><g id="dtp_dogs_allowed_regular"><g><path class="cls-1" d="M240.94,8c19.03,0,34.52,15.49,34.52,34.52V240.94c0,19.03-15.49,34.52-34.52,34.52H42.52c-19.03,0-34.52-15.49-34.52-34.52V42.52C8,23.49,23.49,8,42.52,8H240.94m0-8H42.52C19.04,0,0,19.04,0,42.52V240.94c0,23.48,19.04,42.52,42.52,42.52H240.94c23.48,0,42.52-19.04,42.52-42.52V42.52c0-23.48-19.04-42.52-42.52-42.52h0Z"/><g><path class="cls-1" d="M194.41,207.32l-.04,.5c.28-.25,.9-1.31,.04-.5Z"/><path class="cls-1" d="M248.78,78.5c-5.38-.93-13.55-2.8-22.33-6.4-2.62-6.18-7.57-11.38-14.26-14.15-5.98-2.47-13.12-2.59-19.28-.8l-10.68-3.87c-3.12-1.13-6.12,.58-7.21,3.2-.15-.07-.24-.11-.24-.11-2.38,6.35-14.38,14.35-8.38,18.35,2.23,1.49,7.23,.76,11.52-1.5-4.38,10.21-6.55,21.18-10.33,31.46-8.64,9.76-24.24,13.12-37.48,13.54l-28.97-2.38c-16.85,0-37.03-12.19-39.7-15.53-2.67-3.35-11.79-15.46-11.79-15.46-3.05-4.36-6.96-2.46-7.23,2.85-.31,6.03,2.56,9.76,6.13,17.23,4.71,9.86,15,19.34,27.74,25.59-.04,3.35-.83,40.76-17.29,56.81-2.03,1.98-2.88,4.88-2.33,7.66l8.35,42.42c1.42,7.42,5.09,12.66,12.64,12.26l11.72,.02c11.94,0,0-13.15,0-13.15l-7.41-6.29-1.75-24.34s22.44-11.11,35.18-26.04c15.95-3.74,31.29-2.44,48.87,2.76l10.44,54.77c1.42,7.42,6.09,12.66,13.64,12.26l11.72,.02c11.94,0,0-13.15,0-13.15l-7.41-6.29,1.73-22.44c-.13,.12-.19,.06,.04-.5l5.43-21.68c8.54-6.12,15.6-17.54,15.68-26.62l1.22-42.93c.01-.43,.06-.84,.14-1.25,.51-1.24,1.01-2.44,1.5-3.58,1.56-2.17,4.1-3.6,6.98-3.68,9.11-.25,23.08-3.66,28.37-21.15,1.08-3.58-1.27-7.29-4.95-7.93Zm-170.48,52.99c-.02,.1-.05,.2-.07,.3l-1.08-.84c.38,.18,.76,.36,1.15,.53Z"/></g></g></g></svg>