<?xml version="1.0" encoding="UTF-8"?><svg id="Ebene_2" xmlns="http://www.w3.org/2000/svg" viewBox="0 0 283.46 283.46"><defs><style>.cls-1{fill:#306da5;}</style></defs><g id="dtp_disposingofwaste_forbidden_regular"><g><path class="cls-1" d="M152.49,250.61c1.68,.86,3.48,1.27,5.24,1.27,4.17,0,8.2-2.28,10.24-6.25l17.86-34.77-17.08-17.08-21.23,41.35c-2.9,5.65-.67,12.58,4.98,15.48Z"/><path class="cls-1" d="M201.94,32.33c-8.21-1.18-15.8,4.52-16.98,12.71l-1.17,8.17c-1.18,8.2,4.51,15.8,12.71,16.98,.72,.1,1.44,.15,2.15,.15,7.34,0,13.75-5.39,14.83-12.87l1.17-8.17c1.18-8.2-4.51-15.8-12.71-16.98Z"/><path class="cls-1" d="M148.02,115.43c1.51,1.14,3.31,1.71,5.11,1.71s3.59-.57,5.11-1.7l16.76-12.59-2.79,44.33,17.41,17.41,37.58,37.58,1.65-10.94c.39-2.6-.12-5.25-1.44-7.51l-21.47-36.78c-.18-.32-.38-.62-.59-.91l1.56-24.76,4.32,9c.42,.88,.99,1.68,1.68,2.36l26.14,25.9c1.66,1.64,3.82,2.46,5.98,2.46s4.38-.84,6.04-2.52c3.3-3.33,3.28-8.72-.06-12.02l-25.1-24.86-17.78-37.05c-1.97-6.36-7.68-11.16-14.72-11.61-4.16-.26-8.05,1.05-11.11,3.42-.54,.25-1.06,.55-1.55,.92l-27.62,20.75-27.57-20.75c-3.75-2.82-9.08-2.07-11.9,1.68-1.99,2.65-2.2,6.07-.83,8.85l4.67,4.67,30.52,22.97Z"/><path class="cls-1" d="M207.61,254.82c.58,.09,1.16,.13,1.73,.13,5.44,0,10.21-3.87,11.26-9.32l-20.19-20.19-2.46,16.29c-.95,6.28,3.37,12.14,9.65,13.09Z"/><path class="cls-1" d="M240.94,0H42.52C19.04,0,0,19.04,0,42.52V240.94c0,23.48,19.04,42.52,42.52,42.52H240.94c23.48,0,42.52-19.04,42.52-42.52V42.52c0-23.48-19.04-42.52-42.52-42.52Zm8.44,274.42c-2.7,.68-5.53,1.05-8.44,1.05H42.52c-19.03,0-34.52-15.49-34.52-34.52V42.52c0-5.14,1.14-10.01,3.16-14.39l.36,.36,243.82,243.82c-1.9,.88-3.89,1.59-5.95,2.11Zm26.08-33.47c0,2.91-.37,5.74-1.05,8.44-.52,2.07-1.23,4.05-2.11,5.95L28.36,11.39l-.23-.23c4.38-2.02,9.26-3.16,14.39-3.16H240.94c19.03,0,34.52,15.49,34.52,34.52V240.94Z"/><path class="cls-1" d="M103.58,186.52l-10.49,16.18-21.94-5.17-24.14,8.19c7.5-2.55,17.02,5.52,21.26,18.02,3.69,10.86,2.17,21.48-3.21,25.75l24.94-13.78,6.21,3.78,22.74-7.72c7.5-2.55,10.14-14.74,5.9-27.24-4.24-12.5-13.76-20.56-21.26-18.02Z"/><path class="cls-1" d="M65.06,249.49l-2.69,1.49c.98-.33,1.88-.84,2.69-1.49Z"/><path class="cls-1" d="M65.31,224.74c-4.24-12.5-13.76-20.56-21.26-18.02-7.5,2.55-10.14,14.74-5.9,27.24s13.76,20.56,21.26,18.02c7.5-2.55,10.14-14.74,5.9-27.24Zm-6.34,8.59l-10.22-.67c-2.1-.14-2.98-2.74-1.4-4.13l7.7-6.75c1.9-1.66,4.87-.87,5.68,1.52l1.82,5.36c.81,2.39-1.07,4.83-3.58,4.67Z"/><path class="cls-1" d="M51.24,152.44l17.19-5.07,4.72,27.65,50.69-.74-14.44-28.71-18.25,6.29s-.25-16.87-.3-20.48c-.05-3.61-21.66-5.71-21.66-5.71l-.47-31.92v-.58s-.22,.36-.22,.36l-17.69,29.41,.43,29.5Z"/></g></g></svg>