<?xml version="1.0" encoding="UTF-8"?><svg id="Ebene_2" xmlns="http://www.w3.org/2000/svg" viewBox="0 0 283.43 283.28"><defs><style>.cls-1{fill:#306da5;}</style></defs><g id="dtp_skiing_forbidden_regular"><g><path class="cls-1" d="M108.14,133.39l-6.19-6.18-76.52,26.38c-2.06,.71-3.15,2.95-2.44,5,.56,1.63,2.09,2.65,3.72,2.65,.42,0,.86-.07,1.28-.21l80.15-27.64Z"/><path class="cls-1" d="M209.97,249.12l-98.48-38.11c.51-.56,.96-1.19,1.36-1.86l.8-1.37,70.79,27.39c.42,.16,6.06,2.35,13.63,2.35,3.72,0,7.91-.53,12.17-2.09l-12.48-12.47c-4.39-.04-7.71-1.28-7.98-1.38l-41.7-16.13s.03-.07,.05-.11l9.84-22.14-17.42-17.42-13.44,30.22c-.17,.38-.32,.77-.44,1.16l-5.55-2.15,12.02-20.51c1.08-1.85,1.63-3.96,1.57-6.1l-.22-8.68-6.22-6.21-6.72-6.73-10.68-10.66,.33,12.64-52.02,9.95c-2.13,.41-3.53,2.47-3.12,4.61,.36,1.88,2.01,3.19,3.85,3.19,.25,0,.5-.02,.75-.07l50.74-9.7,.23,8.96-12.24,20.9-57.66-22.32c-3.76-1.45-7.99,.42-9.45,4.18-1.45,3.76,.42,7.99,4.18,9.44l55.64,21.53c-.46,1.24-.68,2.53-.69,3.8l-54.19-20.97c-3.76-1.45-7.99,.42-9.45,4.18-1.46,3.76,.41,7.99,4.17,9.44l172.68,66.81c.42,.17,6.06,2.35,13.62,2.35,5.18,0,11.27-1.02,17.2-4.43l-11.05-11.04c-7.21,2.22-14.05-.32-14.43-.47Z"/><path class="cls-1" d="M115.62,81.47l2.3,11.66,3.61,3.61,12.47,12.46,5.12,5.12c.07-.73,.02-1.47-.13-2.23l-.73-3.68-4.7-23.85-1.17-5.91-.18-.91,9.55-1.49-5.04,5.11,4.99,27.61,.79,4.37c.03,.21,.05,.42,.06,.63,.03,.5,.03,1,0,1.5-.01,.1-.02,.2-.03,.3,0,.1-.03,.2-.04,.29v.03c-.03,.22-.07,.44-.12,.66-.04,.22-.1,.43-.16,.65l2.53,2.53,3.01,3.01,5.74,5.74-3.02-8.48,9.31-9.43-.03,.11c-1.05,3.48,.23,7.24,3.18,9.35l20.53,14.74-19.88,3.8,6.73,6.73,21.96-4.21,1.01,.73c1.5,1.07,3.23,1.59,4.95,1.59,2.65,0,5.25-1.23,6.91-3.54,2.74-3.81,1.87-9.11-1.94-11.85l-25.42-18.25,9.36-31.07c.54-1.78,.47-3.69-.18-5.43-.52-1.39-1.35-2.76-2.41-4.1-3.56-.53-6.89-2.1-9.59-4.54-2.13-1.93-3.75-4.27-4.77-6.87-.74-.44-1.45-.84-2.1-1.2-1.65-.92-3.56-1.26-5.43-.96l-41.81,6.53c-2.29,.36-4.33,1.63-5.66,3.53-1.32,1.89-1.82,4.24-1.37,6.51l1.8,9.1Z"/><path class="cls-1" d="M240.92,0H42.52C19.04,0,0,19.03,0,42.49V240.79c0,23.48,19.04,42.49,42.52,42.49H240.92c23.49,0,42.52-19.02,42.52-42.49V42.49c0-23.47-19.03-42.49-42.52-42.49Zm0,7.99c19.03,0,34.52,15.48,34.52,34.5V240.79c0,5.21-1.17,10.15-3.25,14.58l-.11-.11-114.15-114.09-1.11-1.11-13.07-13.06-4.38-4.38-.27-.27-2.53-2.53-3.16-3.16-4.1-4.1-8.17-8.16-1.25-1.25L27.92,11.24c4.44-2.08,9.38-3.24,14.59-3.24H240.92ZM42.52,275.29c-19.03,0-34.52-15.48-34.52-34.5V42.49c0-5.06,1.1-9.85,3.07-14.19L107.95,125.14l2.73,2.73,3.46,3.46,14.19,14.18,5.96,5.96,.76,.76,3.72,3.72,21.69,21.68,44.29,44.26,10.96,10.95,14.09,14.08,10.36,10.35,14.83,14.82,.13,.13c-4.33,1.96-9.13,3.06-14.19,3.06H42.52Z"/><path class="cls-1" d="M178.4,63.43c.14,.1,.27,.19,.41,.28,.31,.21,.63,.41,.95,.59,.16,.09,.31,.18,.47,.26,.34,.18,.68,.33,1.03,.48,.14,.06,.27,.12,.4,.17,.48,.19,.97,.35,1.46,.49,.07,.02,.15,.03,.22,.05,.42,.11,.85,.2,1.28,.27,.16,.03,.33,.05,.49,.07,.35,.05,.7,.08,1.06,.1,.17,0,.34,.02,.51,.02,.11,0,.21,.01,.32,.01,.25,0,.5-.02,.75-.04,.17,0,.33,0,.5-.02,.51-.04,1.03-.11,1.53-.2,3.04-.58,5.92-2.12,8.15-4.59l5.19-5.73c5.45-6.03,4.99-15.34-1.05-20.8-.37-.33-.74-.64-1.13-.92-.13-.1-.26-.18-.4-.27-.26-.18-.53-.37-.8-.53-.16-.1-.32-.18-.49-.27-.25-.14-.5-.28-.76-.4-.18-.08-.36-.15-.54-.23-.25-.11-.5-.21-.76-.31-.19-.07-.38-.13-.57-.19-.25-.08-.5-.16-.76-.22-.2-.05-.39-.09-.59-.13-.25-.05-.5-.1-.76-.15-.2-.03-.4-.06-.61-.08-.25-.03-.51-.05-.76-.07-.2-.01-.41-.02-.61-.03-.12,0-.24-.02-.36-.02s-.23,.02-.35,.02c-.27,0-.54,.02-.8,.04-.22,.02-.44,.04-.65,.06-.27,.03-.54,.08-.8,.12-.21,.04-.43,.08-.64,.13-.27,.06-.53,.13-.8,.21-.21,.06-.41,.12-.62,.19-.26,.09-.52,.19-.79,.29-.2,.08-.4,.15-.59,.24-.26,.12-.52,.25-.78,.39-.18,.1-.37,.19-.55,.29-.26,.15-.52,.32-.77,.49-.16,.11-.33,.21-.5,.33-.27,.2-.54,.42-.8,.64-.13,.11-.27,.21-.39,.32-.38,.34-.75,.71-1.11,1.1l-5.18,5.73c-5.46,6.03-4.99,15.34,1.04,20.8,.41,.37,.83,.7,1.27,1.01Z"/></g></g></svg>