<?xml version="1.0" encoding="UTF-8"?><svg id="Ebene_2" xmlns="http://www.w3.org/2000/svg" viewBox="0 0 283.46 283.35"><defs><style>.cls-1{fill:#306da5;}</style></defs><g id="dtp_crosscountryskiing_forbidden_regular"><g><path class="cls-1" d="M240.94,0H42.52C19.04,0,0,19.03,0,42.5V240.84c0,23.47,19.04,42.5,42.52,42.5H240.94c23.48,0,42.52-19.03,42.52-42.5V42.5c0-23.47-19.04-42.5-42.52-42.5Zm0,8c19.03,0,34.52,15.48,34.52,34.51V240.84c0,5.18-1.15,10.09-3.21,14.5l-.15-.15-51.47-51.45-37.3-37.28-18.95-18.94-7.87-7.87-3.47-3.47L28.01,11.2c4.41-2.05,9.33-3.21,14.51-3.21H240.94ZM42.52,275.35c-19.03,0-34.52-15.48-34.52-34.51v-44.37l19.65,8.59,67.21,29.38,27.24,11.9,31.49,13.76c.83,.36,3.48,1.5,7.2,2.73,5.45,1.79,13.2,3.77,20.88,3.77,6.06,0,12.08-1.23,16.88-4.76,2.67-1.96,3.25-5.71,1.29-8.38-1.96-2.68-5.72-3.25-8.39-1.29-6.01,4.4-18.17,1.99-26.43-.62-2.76-.87-5.08-1.76-6.59-2.43l-6.61-2.89-27.23-11.9-37.49-16.37c.39,.04,.79,.06,1.19,.06,1.7,0,3.42-.38,5.02-1.17,.47-.22,.93-.48,1.37-.78l45.06-30.2c2.21-1.47,3.83-3.67,4.6-6.21l2.38-7.82-18.44-18.42-4.75,15.63-41.66,27.92c-4.3,2.88-6.03,8.16-4.6,12.86,.32,1.07,.8,2.11,1.45,3.08,.57,.84,1.23,1.59,1.96,2.23l-48.21-21.07-23.8-10.4c-.22-.1-.45-.18-.67-.24v-26.84l94.61-28.83-6.3-6.3L8,148.38V42.5c0-5.09,1.12-9.92,3.1-14.27L102.5,119.59l1.77,1.77,4.53,4.53,73.37,73.34,31.92,31.91,2.89,2.89,38.02,38,.22,.22c-4.35,1.99-9.19,3.1-14.28,3.1H42.52Z"/><path class="cls-1" d="M212.53,237.63l-3.59-3.58-40.71,.14c.07-.13,.12-.27,.18-.41l11.46-28.79-17.71-17.7-15.12,37.99c-1.2,3.02-1.04,6.24,.21,8.98l-13.99,.04,26.57,11.62c.21,.09,.41,.19,.61,.29l50.08-.17-3.87,16.18c-.5,2.11,.8,4.23,2.91,4.74,.31,.07,.62,.1,.92,.1,1.78,0,3.39-1.21,3.82-3.01l4.31-18.04h2.29s-1.84-1.85-1.84-1.85l-6.53-6.53Z"/><path class="cls-1" d="M52.63,234.58c-3.31,.01-5.99,2.71-5.98,6.02,0,3.31,2.7,5.98,6,5.98h.02l60.76-.21-27.24-11.89-33.56,.11Z"/><path class="cls-1" d="M263.87,238.91c3.1-2.27,6.04-5.28,8.43-9.27,1.7-2.84,.77-6.52-2.07-8.23-2.84-1.7-6.53-.78-8.23,2.07-1.86,3.09-4.28,5.27-6.77,6.79l8.64,8.64Z"/><path class="cls-1" d="M132.31,94.65l18.39-6.34,6.94-2.39h.01l.28-.1-16.7,30.5,3.67,3.67,36.13,36.11-4.95-22.22h0s20.1-36.7,20.1-36.7c.09-.17,.18-.33,.27-.5l10.28,12.82c2.12,2.64,5.59,3.77,8.86,2.89l28.75-7.78-22.15,92.63,6.52,6.52,24.62-102.94c1.92-2.07,2.76-5.05,1.97-7.98-1.23-4.53-5.9-7.21-10.43-5.99l-28.35,7.68-19.37-24.15c-.1-.12-.2-.24-.31-.36-5.16-5.76-16.36-6.99-22.57-7.21-1.05-.04-2.09,.12-3.07,.46l-1.84,.63-6.94,2.4h-.01l-39.12,13.47c-2.21,.76-4.02,2.41-4.98,4.55l-2.82,6.26,12.86,12.85,3.96-8.8Z"/><path class="cls-1" d="M185.11,59.57c4.5,1.7,9.31,1.06,13.08-1.31,2.62-1.65,4.74-4.13,5.92-7.24l2.74-7.22c2.88-7.61-.95-16.11-8.55-18.99-7.61-2.88-16.12,.95-19,8.55l-2.74,7.23c-2.88,7.61,.95,16.11,8.55,18.99Z"/></g></g></svg>