<?xml version="1.0" encoding="UTF-8"?><svg id="Ebene_2" xmlns="http://www.w3.org/2000/svg" viewBox="0 0 283.46 283.46"><defs><style>.cls-1{fill:#306da5;}</style></defs><g id="dtp_crosscountryskiing_allowed_regular"><g><path class="cls-1" d="M240.94,0H42.52C19.04,0,0,19.04,0,42.52V240.94c0,23.48,19.04,42.52,42.52,42.52H240.94c23.48,0,42.52-19.04,42.52-42.52V42.52c0-23.48-19.04-42.52-42.52-42.52ZM108.36,126.07c.14,.07,.27,.15,.41,.21,1.13,.51,2.32,.75,3.48,.75,3.24,0,6.34-1.87,7.76-5.01l12.3-27.33,25.63-8.83-19.02,34.74c-.9,1.65-1.53,3.38-1.92,5.13,0,.01-.01,.02-.02,.03,0,.01-.01,.02-.01,.03-.4,.69-.71,1.43-.95,2.21l-12.49,41.13-41.66,27.93c-4.3,2.88-6.03,8.16-4.6,12.87,.32,1.07,.8,2.11,1.45,3.08,.57,.84,1.23,1.59,1.96,2.23l-48.21-21.08-23.8-10.4c-.22-.1-.45-.18-.67-.24v-26.85l100.36-30.59Zm105.04,108.06h0l-45.16,.16h0c.06-.14,.12-.27,.18-.41l17.87-44.9c.85-2.14,1.04-4.5,.54-6.75l-10.74-48.3,20.1-36.71c.09-.17,.16-.35,.25-.52l10.3,12.85c2.11,2.64,5.59,3.77,8.85,2.89l28.76-7.78-30.95,129.47Zm62.07,6.81c0,19.03-15.49,34.52-34.52,34.52H42.52c-19.03,0-34.52-15.49-34.52-34.52v-44.39l19.65,8.59,67.21,29.39,27.24,11.9,31.49,13.77c.83,.36,3.48,1.5,7.2,2.73,5.45,1.79,13.2,3.77,20.88,3.77,6.06,0,12.08-1.23,16.88-4.76,2.67-1.96,3.25-5.71,1.29-8.38-1.96-2.68-5.72-3.25-8.39-1.29-6.01,4.4-18.17,1.99-26.43-.62-2.76-.87-5.08-1.76-6.59-2.43l-6.61-2.89-27.23-11.91-37.49-16.38c.39,.04,.79,.06,1.19,.06,1.7,0,3.42-.38,5.02-1.17,.47-.22,.93-.48,1.37-.78l45.06-30.21c2.21-1.47,3.83-3.67,4.6-6.21l9.25-30.42c.8,.1,1.59,.15,2.39,.15l7.63,34.3-16.56,41.61c-1.2,3.02-1.03,6.24,.21,8.98l-13.99,.04,26.57,11.62c.21,.09,.41,.19,.61,.29l50.08-.17h0l-3.87,16.19c-.5,2.11,.8,4.23,2.91,4.74,.31,.07,.61,.11,.92,.11,1.78,0,3.39-1.21,3.82-3.02l4.31-18.05,24.24-.08c.8-.02,19.72-.07,29.44-16.29,1.7-2.84,.77-6.52-2.07-8.23-2.84-1.7-6.53-.78-8.23,2.07-6.15,10.26-18.57,10.45-19.12,10.45l-21.39,.07h0l31.85-133.24c1.91-2.08,2.75-5.05,1.96-7.97-1.23-4.53-5.89-7.21-10.43-5.98l-28.36,7.67-19.37-24.16c-.1-.12-.2-.24-.3-.36-5.17-5.76-16.36-6.99-22.57-7.21-1.05-.04-2.09,.12-3.07,.46l-47.9,16.51c-2.22,.76-4.02,2.41-4.98,4.55l-13.81,30.68c-.61,1.37-.84,2.81-.72,4.2L8,148.44V42.52C8,23.49,23.49,8,42.52,8H240.94c19.03,0,34.52,15.49,34.52,34.52V240.94Z"/><path class="cls-1" d="M52.63,234.68c-3.31,.01-5.99,2.71-5.98,6.02,0,3.31,2.7,5.98,6,5.98h.02l60.76-.21-27.24-11.9-33.56,.11Z"/><path class="cls-1" d="M198.3,24.81c-7.61-2.88-16.12,.95-19,8.55l-2.74,7.23c-2.88,7.61,.95,16.12,8.55,19,4.5,1.7,9.31,1.06,13.08-1.31,2.62-1.65,4.74-4.13,5.92-7.24l2.74-7.23c2.88-7.61-.95-16.12-8.55-19Z"/></g></g></svg>