<?xml version="1.0" encoding="UTF-8"?><svg id="Ebene_2" xmlns="http://www.w3.org/2000/svg" viewBox="0 0 283.46 283.46"><defs><style>.cls-1{fill:#306da5;}</style></defs><g id="dtp_cycling_forbidden_regular"><g><path class="cls-1" d="M240.94,0H42.52C19.04,0,0,19.04,0,42.52V240.94c0,23.48,19.04,42.52,42.52,42.52H240.94c23.48,0,42.52-19.04,42.52-42.52V42.52c0-23.48-19.04-42.52-42.52-42.52Zm0,8c19.03,0,34.52,15.49,34.52,34.52V240.94c0,5.21-1.17,10.16-3.25,14.59l-.12-.12L140.44,123.76l-23.73-23.73L27.93,11.25c4.44-2.08,9.38-3.25,14.59-3.25H240.94ZM42.52,275.46c-19.03,0-34.52-15.49-34.52-34.52V42.52c0-5.06,1.1-9.86,3.07-14.19L104.6,121.86l56.75,56.75,4.97,4.97,7.36,7.36,81.32,81.32,.14,.14c-4.33,1.96-9.14,3.07-14.19,3.07H42.52Z"/><path class="cls-1" d="M151,71.64c.9,.17,1.79,.25,2.68,.25,6.94,0,13.11-4.94,14.41-12.01l1.32-7.19c1.47-7.97-3.8-15.61-11.77-17.08-7.97-1.47-15.62,3.8-17.08,11.77l-1.32,7.19c-1.47,7.97,3.8,15.62,11.77,17.08Z"/><path class="cls-1" d="M101.72,127.05l-1.02,1.85c-2.98,5.37-2.56,11.71,.54,16.54,.65,1.49,1.64,2.85,2.97,3.96l34.06,28.21-12.95,38.91c-2.41,5.43,.04,11.78,5.47,14.2,1.42,.63,2.9,.92,4.36,.92,4.12,0,8.05-2.38,9.83-6.39l14.27-40.68-57.53-57.52Z"/><path class="cls-1" d="M149.46,107.5l9.44,17.58c.78,1.45,1.98,2.64,3.44,3.42l1.86,.83c.14,.08,.27,.15,.41,.22l23.45,11,6.18,19.16c-2.3,.9-4.52,1.95-6.65,3.14l7.42,7.42c.76-.37,1.53-.71,2.31-1.02l1.58,4.91,18.19,18.19-8.41-26.1c1.95-.26,3.94-.39,5.96-.39,25.36,0,45.99,20.63,45.99,45.99,0,7.02-1.58,13.68-4.4,19.64l7.41,7.41c4.46-8.02,6.99-17.24,6.99-27.05,0-30.87-25.12-55.99-55.99-55.99-3.09,0-6.12,.25-9.07,.74l-5.29-16.41c.52-.57,.96-1.22,1.3-1.95,.23-.48,.4-.97,.52-1.47h8.63c2.16,0,3.91-1.75,3.91-3.91s-1.75-3.92-3.91-3.92h-11.19c-.51-.43-1.08-.8-1.72-1.1l-10.1-4.74-15.38-8.12-17.14-31.92c-.24-.44-.51-.84-.81-1.21-1.41-2.33-3.41-4.35-5.97-5.76-7.79-4.32-17.61-1.51-21.93,6.29l-6.91,12.46,23.74,23.74,6.14-11.08Z"/><path class="cls-1" d="M68.89,155.86c-30.88,0-56,25.12-56,56s25.12,56,56,56,56-25.12,56-56-25.12-56-56-56Zm0,101.99c-25.36,0-46-20.63-46-46s20.63-46,46-46,46,20.63,46,46-20.63,46-46,46Z"/><path class="cls-1" d="M214.64,257.85c-25.37,0-46-20.63-46-46,0-5.35,.92-10.49,2.61-15.27l-7.69-7.69c-3.16,7.01-4.92,14.79-4.92,22.96,0,30.88,25.12,56,56,56,8.18,0,15.95-1.76,22.96-4.93l-7.68-7.68c-4.78,1.69-9.93,2.61-15.28,2.61Z"/></g></g></svg>