<?xml version="1.0" encoding="UTF-8"?><svg id="Ebene_2" xmlns="http://www.w3.org/2000/svg" viewBox="0 0 283.46 283.46"><defs><style>.cls-1{fill:#306da5;}</style></defs><g id="dtp_dronesmodelplanes_allowed_regular2"><g><path class="cls-1" d="M240.94,8c19.03,0,34.52,15.49,34.52,34.52V240.94c0,19.03-15.49,34.52-34.52,34.52H42.52c-19.03,0-34.52-15.49-34.52-34.52V42.52C8,23.49,23.49,8,42.52,8H240.94m0-8H42.52C19.04,0,0,19.04,0,42.52V240.94c0,23.48,19.04,42.52,42.52,42.52H240.94c23.48,0,42.52-19.04,42.52-42.52V42.52c0-23.48-19.04-42.52-42.52-42.52h0Z"/><g><path class="cls-1" d="M124.9,149.21l33.6-.13,12.14-21.55-12.31-14.24h-8.55l-1.56-35.04c0-1.67-.68-3.17-1.77-4.27-1.09-1.09-2.59-1.77-4.26-1.77-3.34,0-6.04,2.71-6.04,6.04l-1.56,35.04h-9.86l-11,14.49,11.17,21.43Z"/><path class="cls-1" d="M142.48,39.99c16.14,0,30.12,9.4,36.76,23.01l7.17-2.93c-7.81-16.43-24.56-27.82-43.93-27.82s-36.22,11.46-44,27.98l7.17,2.9c6.61-13.68,20.63-23.14,36.82-23.14Z"/><path class="cls-1" d="M142.48,45.41c-13.92,0-25.98,8.06-31.78,19.76l7.21,2.91c4.63-8.86,13.9-14.94,24.57-14.94s19.89,6.03,24.53,14.85l7.19-2.93c-5.82-11.64-17.85-19.65-31.72-19.65Z"/><path class="cls-1" d="M142.48,66.29c5.14,0,9.66,2.68,12.25,6.71l7.24-2.95c-3.81-6.84-11.12-11.49-19.49-11.49s-15.73,4.67-19.53,11.55l7.25,2.93c2.59-4.05,7.12-6.75,12.28-6.75Z"/><path class="cls-1" d="M223.34,148.9c-5.03-21.54-28.93-29.13-50.6-28.31l6.39,5.72-15.69,30.1h-43.41l-15.69-30.1,6.38-5.72c-21.67-.82-45.56,6.77-50.59,28.31-7.23,30.93-10.7,62.88-10.85,94.63,12.25,5.52,26.55,11.06,38.6,5.12,3.01-1.49,5.67-3.62,8.74-4.97,4.85-2.14,10.32-2.18,15.61-2.18,9.84-.01,53.17-.01,63,0,5.3,0,6.77,.04,11.61,2.18,3.07,1.35,5.74,3.48,8.75,4.97,12.05,5.94,26.35,.4,38.6-5.12-.16-31.75-3.63-63.7-10.85-94.63Zm-125.49,41.92v-3.19c0-2.61-2.12-4.74-4.73-4.74s-4.74,2.13-4.74,4.74v3.2c-10.52-2.32-18.2-12.18-17.07-23.63,.94-9.4,7.99-17.14,17.07-19.15v3.19c0,2.62,2.12,4.74,4.74,4.74s4.73-2.12,4.73-4.74v-3.19c10.52,2.32,18.2,12.18,17.07,23.62-.93,9.41-7.99,17.15-17.07,19.15Zm70.59,19.61c0,4.18-3.39,7.57-7.58,7.57h-38.26c-4.18,0-7.57-3.39-7.57-7.57v-13.63c0-4.18,3.39-7.57,7.57-7.57h38.26c4.19,0,7.58,3.39,7.58,7.57v13.63Zm27.64-19.85v-1.95c0-2.61-2.12-4.74-4.73-4.74s-4.74,2.13-4.74,4.74v2.39c-9.55-1.64-17.1-9.6-18.06-19.35-1.17-11.8,7.04-21.92,18.06-23.82v4.39c0,2.62,2.12,4.74,4.74,4.74s4.73-2.12,4.73-4.74v-3.95c8.59,2.34,15.17,9.85,16.07,18.91,1.1,11.08-6.07,20.68-16.07,23.38Z"/></g></g></g></svg>