<?xml version="1.0" encoding="UTF-8"?><svg id="Ebene_2" xmlns="http://www.w3.org/2000/svg" viewBox="0 0 283.46 283.46"><defs><style>.cls-1{fill:#306da5;}</style></defs><g id="dtp_dogswithleash_forbidden_regular"><g><path class="cls-1" d="M240.94,0H42.52C19.04,0,0,19.04,0,42.52V240.94c0,23.48,19.04,42.52,42.52,42.52H240.94c23.48,0,42.52-19.04,42.52-42.52V42.52c0-23.48-19.04-42.52-42.52-42.52ZM65.84,8l100.29,98.22c-6.19,6-15.19,9.28-24.32,10.85l2.3,2.3,13.15,13.15,3.87,3.87,20.26,20.26,12.83,12.83,7.73,7.73,3.47,3.47c5.83-6.28,10.04-14.66,10.1-21.65l.99-34.57c-.49,.24-1.03,.37-1.59,.37-.45,0-.91-.08-1.36-.26l-.47-.19-12.56-5.04-29.99-12.02s.01-.02,.01-.03c-.05-.01-.11-.03-.15-.03-.07-.03-.15-.06-.25-.11h-.01c-.1-.04-.21-.08-.32-.12l-.04-.02-.27-.11-.13-.05-.18-.07-.17-.07c-.71-.29-1.29-.77-1.68-1.37-.03-.03-.05-.06-.07-.08-.06-.1-.07-.14-.07-.14-.53-.93-.64-2.08-.21-3.15,.42-1.04,1.25-1.77,2.24-2.1,.42-.14,.86-.2,1.31-.17,0,0,.2,.02,.49,.05,.23,.04,.47,.11,.7,.2l.64,.26,24.66,9.89,18.71,7.5,.52,.21c.15,.06,.29,.13,.42,.21l.06-1.93c.01-.42,.05-.83,.12-1.23,.52-1.25,1.02-2.44,1.5-3.58,1.56-2.19,4.11-3.62,6.99-3.7,9.11-.25,23.09-3.66,28.37-21.15,1.09-3.59-1.26-7.29-4.95-7.93-5.38-.94-13.55-2.79-22.33-6.4-2.61-6.18-7.56-11.38-14.26-14.15-5.97-2.47-13.12-2.6-19.28-.8l-10.68-3.86c-3.11-1.13-6.13,.57-7.22,3.19-.15-.07-.23-.11-.23-.11-2.38,6.36-14.38,14.36-8.38,18.36,2.23,1.49,7.24,.76,11.53-1.51-3.56,8.29-5.65,17.08-8.35,25.59L79.06,8H240.94c19.03,0,34.52,15.49,34.52,34.52V240.94c0,5.21-1.17,10.16-3.25,14.59l-.12-.12-70.85-70.85-.91-.91-45.19-45.19-13.43-13.43-6.39-6.39-.69-.69L27.93,11.25c4.44-2.08,9.38-3.25,14.59-3.25h23.32Zm-23.32,267.46c-19.03,0-34.52-15.49-34.52-34.52V42.52c0-5.06,1.1-9.86,3.07-14.19L98.48,115.74l.15,.15,1.44,1.44,63.92,63.92,91.01,91.01,.14,.14c-4.33,1.96-9.14,3.07-14.19,3.07H42.52Z"/><path class="cls-1" d="M192.64,230.27l.88-11.43-27.63-27.63,8.81,46.21c1.42,7.42,6.09,12.66,13.64,12.26l11.72,.02c11.93,0,0-13.15,0-13.15l-7.42-6.28Z"/><path class="cls-1" d="M91.56,116.89l-2.87-2.88c-13.1-3.52-25.22-11.16-27.25-13.7-2.67-3.35-11.79-15.46-11.79-15.46-3.04-4.36-6.96-2.46-7.23,2.86-.32,6.03,2.56,9.76,6.13,17.23,4.71,9.86,14.99,19.35,27.73,25.6-.04,3.49-.87,40.78-17.29,56.8-2.03,1.98-2.88,4.88-2.33,7.66l8.35,42.42c1.42,7.42,5.09,12.66,12.64,12.26l11.72,.02c11.93,0,0-13.15,0-13.15l-7.42-6.28-1.74-24.34s22.44-11.11,35.18-26.04c13.05-3.07,25.7-2.76,39.5,.32l-58.2-58.2-5.13-5.12Z"/></g></g></svg>