<?xml version="1.0" encoding="UTF-8"?><svg id="Ebene_2" xmlns="http://www.w3.org/2000/svg" viewBox="0 0 283.46 283.46"><defs><style>.cls-1{fill:none;}.cls-2{fill:#306da5;}</style></defs><g id="dtp_discouraged_forbidden_regular"><g><path class="cls-1" d="M11.16,28.13c-2.02,4.38-3.16,9.26-3.16,14.39V240.03c16.97-1.25,65.42,.78,80.52-10.33,13.53-39.23,13.62-32.78,17.34-49.87,2.82-12.95,5.7-15.87,8.23-30.37,.32-2.75,.74-5.84,1.22-9.13l8.61,8.61c-1.83,1.86-3.45,4.66-4.66,8.61-2.69,8.78,1.33,20.14-5.38,28.82-10.54,13.63-9.28,37.45-9.28,37.45,3.52-30.69,15.23-38.62,15.42-46.44,.14-5.96-.29-21.51,5.33-27.02l13.69,13.69c-.09,10.56-2.98,23.53-2.62,28.87,.64,9.54,1.6,13.9,1.12,25.25-.48,11.35-11.41,27.59-23.24,32.39-10.2,4.18-35.19,18.02-56.79,24.88H223.33c-21.58-6.87-46.52-20.68-56.72-24.85-11.83-4.79-22.76-21.04-23.24-32.39-.48-11.35,.48-15.72,1.12-25.25,.33-4.87-2.03-16.03-2.53-25.97l25.69,25.69c3.31,6.76,6.95,16.29,8.66,31.18,0,0,.71-13.46-3.41-25.94l12.66,12.66c1.8,4.82,4.03,10.99,6.84,19.13,4.18,3.08,10.93,5.15,18.85,6.56l38.14,38.14c2.07-.52,4.05-1.23,5.95-2.11L11.52,28.49l-.36-.36Z"/><path class="cls-1" d="M240.94,8H42.52c-5.14,0-10.01,1.14-14.39,3.16l.23,.23,243.95,243.95c.88-1.9,1.59-3.89,2.11-5.95l-9.69-9.69c4.53,.13,8.25,.29,10.74,.6V42.52c0-19.03-15.49-34.52-34.52-34.52Zm-102.79,105.13l-14.9-14.9c.14-.57,.28-1.13,.42-1.66,3.33-12.97,4.72-29.7,9.16-30.21,7.46-.85,7.97,15.18,4.34,29.01,.87,5.25,1.18,11.92,.98,17.76Zm4.91,4.91c-.65-6.68-.46-15.84,.67-22.64-3.63-13.83-3.12-29.86,4.34-29.01,4.45,.51,5.83,17.23,9.16,30.21,2.65,10.32,6.24,29.23,8.41,44.02l-22.58-22.58Z"/><path class="cls-2" d="M148.07,66.38c-7.46-.85-7.97,15.18-4.34,29.01-1.12,6.8-1.31,15.96-.67,22.64l22.58,22.58c-2.17-14.79-5.76-33.7-8.41-44.02-3.33-12.97-4.72-29.7-9.16-30.21Z"/><path class="cls-2" d="M132.84,66.36c-4.45,.51-5.83,17.23-9.16,30.21-.14,.53-.28,1.09-.42,1.66l14.9,14.9c.2-5.84-.11-12.5-.98-17.76,3.63-13.83,3.12-29.86-4.34-29.01Z"/><path class="cls-2" d="M240.94,0H42.52C19.04,0,0,19.04,0,42.52V240.94c0,23.48,19.04,42.52,42.52,42.52H240.94c23.48,0,42.52-19.04,42.52-42.52V42.52c0-23.48-19.04-42.52-42.52-42.52Zm8.44,274.42l-38.14-38.14c-7.92-1.41-14.67-3.48-18.85-6.56-2.81-8.14-5.03-14.31-6.84-19.13l-12.66-12.66c4.12,12.48,3.41,25.94,3.41,25.94-1.71-14.89-5.34-24.42-8.66-31.18l-25.69-25.69c.49,9.93,2.85,21.1,2.53,25.97-.64,9.54-1.6,13.9-1.12,25.25,.48,11.35,11.41,27.59,23.24,32.39,10.19,4.17,35.14,17.99,56.72,24.85H57.51c21.6-6.86,46.59-20.7,56.79-24.88,11.83-4.79,22.76-21.04,23.24-32.39,.48-11.35-.48-15.72-1.12-25.25-.36-5.35,2.53-18.31,2.62-28.87l-13.69-13.69c-5.62,5.51-5.19,21.06-5.33,27.02-.18,7.82-11.9,15.76-15.42,46.44,0,0-1.26-23.82,9.28-37.45,6.71-8.68,2.69-20.05,5.38-28.82,1.21-3.95,2.83-6.75,4.66-8.61l-8.61-8.61c-.48,3.29-.9,6.38-1.22,9.13-2.54,14.49-5.41,17.42-8.23,30.37-3.73,17.09-3.81,10.64-17.34,49.87-15.09,11.11-63.55,9.08-80.52,10.33V42.52c0-5.14,1.14-10.01,3.16-14.39l.36,.36,243.82,243.82c-1.9,.88-3.89,1.59-5.95,2.11Zm26.08-34.12c-2.48-.31-6.21-.48-10.74-.6l9.69,9.69c-.52,2.07-1.23,4.05-2.11,5.95L28.36,11.39l-.23-.23c4.38-2.02,9.26-3.16,14.39-3.16H240.94c19.03,0,34.52,15.49,34.52,34.52V240.3Z"/></g></g></svg>