<?xml version="1.0" encoding="UTF-8"?><svg id="Ebene_2" xmlns="http://www.w3.org/2000/svg" viewBox="0 0 283.46 283.46"><defs><style>.cls-1{fill:#306da5;}</style></defs><g id="dtp_campingvehicletrailer_allowed_regular"><g><g><ellipse class="cls-1" cx="209.73" cy="217.42" rx="18.44" ry="18.61"/><ellipse class="cls-1" cx="82.55" cy="217.42" rx="18.44" ry="18.61"/><path class="cls-1" d="M31.56,129.68h.4c-.26,1.3-.4,2.64-.4,4.01v20.92s122.99,0,122.99,0c1.48,0,2.68,1.21,2.68,2.7s-1.2,2.7-2.68,2.7H31.56s0,39.14,0,39.14c0,10.09,8.1,18.27,18.1,18.27h5.35c0-15.33,12.36-27.8,27.54-27.8,15.19,0,27.54,12.47,27.54,27.8h72.09c0-15.33,12.36-27.8,27.54-27.8s27.54,12.47,27.54,27.8h4.16c18.28,0,24.33-7.5,24.52-16.82,0-.24-3.5-28.64-3.5-28.64-.83-4.15-2.99-7.92-6.15-10.71l-6.83-6.04s-7-29.05-7.18-30.66c-.98-8.55-6.04-10.86-14.77-10.86h-92.34c-2.82,0-4.15-4-.81-5.6h91.53c7.93,0,14.36-6.49,14.36-14.49v-16.32c0-6.98-5.6-12.63-12.52-12.63H41.64c-5.57,0-10.08,4.55-10.08,10.17v54.88Zm163.73-4.2c0-2.16,1.74-3.91,3.88-3.91h29.2c3.01,0,5.62,2.11,6.27,5.07l5.68,22.36c.9,4.05-2.16,7.91-6.27,7.91h-35.45c-1.83,0-3.31-1.5-3.31-3.34v-28.08Z"/></g><path class="cls-1" d="M240.94,8c19.03,0,34.52,15.49,34.52,34.52V240.94c0,19.03-15.49,34.52-34.52,34.52H42.52c-19.03,0-34.52-15.49-34.52-34.52V42.52C8,23.49,23.49,8,42.52,8H240.94m0-8H42.52C19.04,0,0,19.04,0,42.52V240.94c0,23.48,19.04,42.52,42.52,42.52H240.94c23.48,0,42.52-19.04,42.52-42.52V42.52c0-23.48-19.04-42.52-42.52-42.52h0Z"/></g></g></svg>