<?xml version="1.0" encoding="UTF-8"?><svg id="Ebene_2" xmlns="http://www.w3.org/2000/svg" viewBox="0 0 283.46 283.46"><defs><style>.cls-1{fill:#306da5;}</style></defs><g id="dtp_hiking_forbidden_regular"><g><path class="cls-1" d="M182.44,246.95c-.27,1.92,1.06,3.69,2.97,3.96,.17,.02,.34,.03,.5,.03,1.71,0,3.21-1.26,3.46-3l4.13-29.12-6.19-6.19-4.87,34.32Z"/><path class="cls-1" d="M197.76,138.95l-4.23,29.84,6.19,6.19,5.12-36.08c-.42,.03-.85,.05-1.29,.05h-5.79Z"/><path class="cls-1" d="M208.79,111.03l2.92-20.6c.27-1.91-1.06-3.68-2.97-3.95-1.93-.27-3.69,1.06-3.96,2.97l-2.94,20.71h1.71c1.84,0,3.61,.31,5.24,.87Z"/><path class="cls-1" d="M169.52,194.84l-37.25-37.24-16.46-16.47-5.33-5.33-.29,.75c-2.52,6.5-.65,13.62,4.18,18.08,.27,.48,.59,.94,.94,1.39l31.17,39.31,3.55,45.12c.48,6.02,5.51,10.6,11.46,10.6,.3,0,.6-.02,.91-.04,6.33-.5,11.06-6.04,10.56-12.37l-3.44-43.8Z"/><path class="cls-1" d="M154.88,72.43c1.98,.88,4.05,1.3,6.09,1.3,5.74,0,11.23-3.32,13.71-8.91l3.2-7.19c3.37-7.57-.04-16.43-7.61-19.8-7.57-3.37-16.44,.04-19.8,7.61l-3.2,7.19c-3.37,7.57,.04,16.43,7.61,19.8Z"/><path class="cls-1" d="M88.93,130.31c1.71,.66,3.46,.98,5.19,.98,3.21,0,6.31-1.08,8.81-3.03l-20.5-20.5-1.65,4c-2.87,7.37,.77,15.67,8.15,18.55Z"/><path class="cls-1" d="M126.49,73.58c2.87-7.37-3.1-8.5-10.73-10.59-7.75-2.12-13.8,3.57-18,10.03l20.8,20.8,7.93-20.24Z"/><path class="cls-1" d="M149.98,125.24l4.12-10.64,.98,2.72,3.58,9.91c1.22,3.37,4.41,5.61,8,5.61h36.2c1.02,0,2-.18,2.91-.51,3.26-1.18,5.59-4.31,5.59-7.99,0-2.82-1.37-5.32-3.49-6.87-1.4-1.03-3.14-1.63-5.01-1.63h-30.24l-2.05-5.68-8.38-23.23v-.04c-1.03-5.41-4.75-10.2-10.26-12.33-8.5-3.29-18.06,.92-21.35,9.42l-6.11,15.75,25.51,25.51Z"/><path class="cls-1" d="M103.91,188.02l-20.18,46.61c-2.68,6.18,.16,13.37,6.35,16.05,1.58,.68,3.22,1.01,4.84,1.01,4.72,0,9.21-2.75,11.2-7.36l20.97-48.44c.52-1.21,.85-2.49,.96-3.8l.99-9.47-20.28-25.05-4.86,30.46Z"/><path class="cls-1" d="M240.94,0H42.52C19.04,0,0,19.04,0,42.52V240.94c0,23.48,19.04,42.52,42.52,42.52H240.94c23.48,0,42.52-19.04,42.52-42.52V42.52c0-23.48-19.04-42.52-42.52-42.52Zm0,8c19.03,0,34.52,15.49,34.52,34.52V240.94c0,5.21-1.17,10.16-3.25,14.59l-73.5-73.5-6.19-6.19-44.81-44.81-31.42-31.42-21.47-21.47L27.93,11.25c4.44-2.08,9.38-3.25,14.59-3.25H240.94ZM42.52,275.46c-19.03,0-34.52-15.49-34.52-34.52V42.52c0-5.06,1.1-9.86,3.07-14.19L106.65,123.91l6.08,6.08,7.97,7.97,16.38,16.38,30.03,30.03,87.89,87.89,.14,.14c-4.33,1.96-9.14,3.07-14.19,3.07H42.52Z"/></g></g></svg>