<?xml version="1.0" encoding="UTF-8"?><svg id="Ebene_2" xmlns="http://www.w3.org/2000/svg" viewBox="0 0 279.96 279.97"><defs><style>.cls-1{fill:#306da5;}</style></defs><g id="dtp_document_regular2"><path class="cls-1" d="M204.02,47.7H76.74c-1.3,0-2.35,1.06-2.35,2.35V229.87c0,1.3,1.05,2.35,2.35,2.35h127.28c1.3,0,2.35-1.05,2.35-2.35V50.05c0-1.29-1.05-2.35-2.35-2.35Zm-109.07,19.77h41.38c2.34,0,4.25,1.9,4.25,4.25s-1.91,4.25-4.25,4.25h-41.38c-2.35,0-4.25-1.9-4.25-4.25s1.9-4.25,4.25-4.25Zm91.88,144.18h-39.38c-2.34,0-4.25-1.9-4.25-4.25s1.91-4.25,4.25-4.25h39.38c2.35,0,4.26,1.9,4.26,4.25s-1.91,4.25-4.26,4.25Zm0-27.14H94.95c-2.35,0-4.25-1.9-4.25-4.25s1.9-4.25,4.25-4.25h91.88c2.35,0,4.26,1.91,4.26,4.25s-1.91,4.25-4.26,4.25Zm0-27.13H94.95c-2.35,0-4.25-1.91-4.25-4.25s1.9-4.25,4.25-4.25h91.88c2.35,0,4.26,1.9,4.26,4.25s-1.91,4.25-4.26,4.25Zm0-27.14H94.95c-2.35,0-4.25-1.9-4.25-4.25s1.9-4.25,4.25-4.25h91.88c2.35,0,4.26,1.9,4.26,4.25s-1.91,4.25-4.26,4.25Zm0-27.13H94.95c-2.35,0-4.25-1.91-4.25-4.26s1.9-4.25,4.25-4.25h91.88c2.35,0,4.26,1.91,4.26,4.25s-1.91,4.26-4.26,4.26Zm17.19-55.41H76.74c-1.3,0-2.35,1.06-2.35,2.35V229.87c0,1.3,1.05,2.35,2.35,2.35h127.28c1.3,0,2.35-1.05,2.35-2.35V50.05c0-1.29-1.05-2.35-2.35-2.35Zm-109.07,19.77h41.38c2.34,0,4.25,1.9,4.25,4.25s-1.91,4.25-4.25,4.25h-41.38c-2.35,0-4.25-1.9-4.25-4.25s1.9-4.25,4.25-4.25Zm91.88,144.18h-39.38c-2.34,0-4.25-1.9-4.25-4.25s1.91-4.25,4.25-4.25h39.38c2.35,0,4.26,1.9,4.26,4.25s-1.91,4.25-4.26,4.25Zm0-27.14H94.95c-2.35,0-4.25-1.9-4.25-4.25s1.9-4.25,4.25-4.25h91.88c2.35,0,4.26,1.91,4.26,4.25s-1.91,4.25-4.26,4.25Zm0-27.13H94.95c-2.35,0-4.25-1.91-4.25-4.25s1.9-4.25,4.25-4.25h91.88c2.35,0,4.26,1.9,4.26,4.25s-1.91,4.25-4.26,4.25Zm0-27.14H94.95c-2.35,0-4.25-1.9-4.25-4.25s1.9-4.25,4.25-4.25h91.88c2.35,0,4.26,1.9,4.26,4.25s-1.91,4.25-4.26,4.25Zm0-27.13H94.95c-2.35,0-4.25-1.91-4.25-4.26s1.9-4.25,4.25-4.25h91.88c2.35,0,4.26,1.91,4.26,4.25s-1.91,4.26-4.26,4.26Zm17.19-55.41H76.74c-1.3,0-2.35,1.06-2.35,2.35V229.87c0,1.3,1.05,2.35,2.35,2.35h127.28c1.3,0,2.35-1.05,2.35-2.35V50.05c0-1.29-1.05-2.35-2.35-2.35Zm-109.07,19.77h41.38c2.34,0,4.25,1.9,4.25,4.25s-1.91,4.25-4.25,4.25h-41.38c-2.35,0-4.25-1.9-4.25-4.25s1.9-4.25,4.25-4.25Zm91.88,144.18h-39.38c-2.34,0-4.25-1.9-4.25-4.25s1.91-4.25,4.25-4.25h39.38c2.35,0,4.26,1.9,4.26,4.25s-1.91,4.25-4.26,4.25Zm0-27.14H94.95c-2.35,0-4.25-1.9-4.25-4.25s1.9-4.25,4.25-4.25h91.88c2.35,0,4.26,1.91,4.26,4.25s-1.91,4.25-4.26,4.25Zm0-27.13H94.95c-2.35,0-4.25-1.91-4.25-4.25s1.9-4.25,4.25-4.25h91.88c2.35,0,4.26,1.9,4.26,4.25s-1.91,4.25-4.26,4.25Zm0-27.14H94.95c-2.35,0-4.25-1.9-4.25-4.25s1.9-4.25,4.25-4.25h91.88c2.35,0,4.26,1.9,4.26,4.25s-1.91,4.25-4.26,4.25Zm0-27.13H94.95c-2.35,0-4.25-1.91-4.25-4.26s1.9-4.25,4.25-4.25h91.88c2.35,0,4.26,1.91,4.26,4.25s-1.91,4.26-4.26,4.26Zm17.19-55.41H76.74c-1.3,0-2.35,1.06-2.35,2.35V229.87c0,1.3,1.05,2.35,2.35,2.35h127.28c1.3,0,2.35-1.05,2.35-2.35V50.05c0-1.29-1.05-2.35-2.35-2.35Zm-109.07,19.77h41.38c2.34,0,4.25,1.9,4.25,4.25s-1.91,4.25-4.25,4.25h-41.38c-2.35,0-4.25-1.9-4.25-4.25s1.9-4.25,4.25-4.25Zm91.88,144.18h-39.38c-2.34,0-4.25-1.9-4.25-4.25s1.91-4.25,4.25-4.25h39.38c2.35,0,4.26,1.9,4.26,4.25s-1.91,4.25-4.26,4.25Zm0-27.14H94.95c-2.35,0-4.25-1.9-4.25-4.25s1.9-4.25,4.25-4.25h91.88c2.35,0,4.26,1.91,4.26,4.25s-1.91,4.25-4.26,4.25Zm0-27.13H94.95c-2.35,0-4.25-1.91-4.25-4.25s1.9-4.25,4.25-4.25h91.88c2.35,0,4.26,1.9,4.26,4.25s-1.91,4.25-4.26,4.25Zm0-27.14H94.95c-2.35,0-4.25-1.9-4.25-4.25s1.9-4.25,4.25-4.25h91.88c2.35,0,4.26,1.9,4.26,4.25s-1.91,4.25-4.26,4.25Zm0-27.13H94.95c-2.35,0-4.25-1.91-4.25-4.26s1.9-4.25,4.25-4.25h91.88c2.35,0,4.26,1.91,4.26,4.25s-1.91,4.26-4.26,4.26Zm17.19-55.41H76.74c-1.3,0-2.35,1.06-2.35,2.35V229.87c0,1.3,1.05,2.35,2.35,2.35h127.28c1.3,0,2.35-1.05,2.35-2.35V50.05c0-1.29-1.05-2.35-2.35-2.35Zm-109.07,19.77h41.38c2.34,0,4.25,1.9,4.25,4.25s-1.91,4.25-4.25,4.25h-41.38c-2.35,0-4.25-1.9-4.25-4.25s1.9-4.25,4.25-4.25Zm91.88,144.18h-39.38c-2.34,0-4.25-1.9-4.25-4.25s1.91-4.25,4.25-4.25h39.38c2.35,0,4.26,1.9,4.26,4.25s-1.91,4.25-4.26,4.25Zm0-27.14H94.95c-2.35,0-4.25-1.9-4.25-4.25s1.9-4.25,4.25-4.25h91.88c2.35,0,4.26,1.91,4.26,4.25s-1.91,4.25-4.26,4.25Zm0-27.13H94.95c-2.35,0-4.25-1.91-4.25-4.25s1.9-4.25,4.25-4.25h91.88c2.35,0,4.26,1.9,4.26,4.25s-1.91,4.25-4.26,4.25Zm0-27.14H94.95c-2.35,0-4.25-1.9-4.25-4.25s1.9-4.25,4.25-4.25h91.88c2.35,0,4.26,1.9,4.26,4.25s-1.91,4.25-4.26,4.25Zm0-27.13H94.95c-2.35,0-4.25-1.91-4.25-4.26s1.9-4.25,4.25-4.25h91.88c2.35,0,4.26,1.91,4.26,4.25s-1.91,4.26-4.26,4.26Zm17.19-55.41H76.74c-1.3,0-2.35,1.06-2.35,2.35V229.87c0,1.3,1.05,2.35,2.35,2.35h127.28c1.3,0,2.35-1.05,2.35-2.35V50.05c0-1.29-1.05-2.35-2.35-2.35Zm-109.07,19.77h41.38c2.34,0,4.25,1.9,4.25,4.25s-1.91,4.25-4.25,4.25h-41.38c-2.35,0-4.25-1.9-4.25-4.25s1.9-4.25,4.25-4.25Zm91.88,144.18h-39.38c-2.34,0-4.25-1.9-4.25-4.25s1.91-4.25,4.25-4.25h39.38c2.35,0,4.26,1.9,4.26,4.25s-1.91,4.25-4.26,4.25Zm0-27.14H94.95c-2.35,0-4.25-1.9-4.25-4.25s1.9-4.25,4.25-4.25h91.88c2.35,0,4.26,1.91,4.26,4.25s-1.91,4.25-4.26,4.25Zm0-27.13H94.95c-2.35,0-4.25-1.91-4.25-4.25s1.9-4.25,4.25-4.25h91.88c2.35,0,4.26,1.9,4.26,4.25s-1.91,4.25-4.26,4.25Zm0-27.14H94.95c-2.35,0-4.25-1.9-4.25-4.25s1.9-4.25,4.25-4.25h91.88c2.35,0,4.26,1.9,4.26,4.25s-1.91,4.25-4.26,4.25Zm0-27.13H94.95c-2.35,0-4.25-1.91-4.25-4.26s1.9-4.25,4.25-4.25h91.88c2.35,0,4.26,1.91,4.26,4.25s-1.91,4.26-4.26,4.26ZM139.98,0C62.67,0,0,62.68,0,139.99s62.67,139.98,139.98,139.98,139.98-62.67,139.98-139.98S217.29,0,139.98,0Zm74.9,229.87c0,5.98-4.87,10.85-10.86,10.85H76.74c-5.98,0-10.85-4.87-10.85-10.85V50.05c0-5.98,4.87-10.85,10.85-10.85h127.28c5.99,0,10.86,4.87,10.86,10.85V229.87Zm-10.86-182.17H76.74c-1.3,0-2.35,1.06-2.35,2.35V229.87c0,1.3,1.05,2.35,2.35,2.35h127.28c1.3,0,2.35-1.05,2.35-2.35V50.05c0-1.29-1.05-2.35-2.35-2.35Zm-109.07,19.77h41.38c2.34,0,4.25,1.9,4.25,4.25s-1.91,4.25-4.25,4.25h-41.38c-2.35,0-4.25-1.9-4.25-4.25s1.9-4.25,4.25-4.25Zm91.88,144.18h-39.38c-2.34,0-4.25-1.9-4.25-4.25s1.91-4.25,4.25-4.25h39.38c2.35,0,4.26,1.9,4.26,4.25s-1.91,4.25-4.26,4.25Zm0-27.14H94.95c-2.35,0-4.25-1.9-4.25-4.25s1.9-4.25,4.25-4.25h91.88c2.35,0,4.26,1.91,4.26,4.25s-1.91,4.25-4.26,4.25Zm0-27.13H94.95c-2.35,0-4.25-1.91-4.25-4.25s1.9-4.25,4.25-4.25h91.88c2.35,0,4.26,1.9,4.26,4.25s-1.91,4.25-4.26,4.25Zm0-27.14H94.95c-2.35,0-4.25-1.9-4.25-4.25s1.9-4.25,4.25-4.25h91.88c2.35,0,4.26,1.9,4.26,4.25s-1.91,4.25-4.26,4.25Zm0-27.13H94.95c-2.35,0-4.25-1.91-4.25-4.26s1.9-4.25,4.25-4.25h91.88c2.35,0,4.26,1.91,4.26,4.25s-1.91,4.26-4.26,4.26Zm17.19-55.41H76.74c-1.3,0-2.35,1.06-2.35,2.35V229.87c0,1.3,1.05,2.35,2.35,2.35h127.28c1.3,0,2.35-1.05,2.35-2.35V50.05c0-1.29-1.05-2.35-2.35-2.35Zm-109.07,19.77h41.38c2.34,0,4.25,1.9,4.25,4.25s-1.91,4.25-4.25,4.25h-41.38c-2.35,0-4.25-1.9-4.25-4.25s1.9-4.25,4.25-4.25Zm91.88,144.18h-39.38c-2.34,0-4.25-1.9-4.25-4.25s1.91-4.25,4.25-4.25h39.38c2.35,0,4.26,1.9,4.26,4.25s-1.91,4.25-4.26,4.25Zm0-27.14H94.95c-2.35,0-4.25-1.9-4.25-4.25s1.9-4.25,4.25-4.25h91.88c2.35,0,4.26,1.91,4.26,4.25s-1.91,4.25-4.26,4.25Zm0-27.13H94.95c-2.35,0-4.25-1.91-4.25-4.25s1.9-4.25,4.25-4.25h91.88c2.35,0,4.26,1.9,4.26,4.25s-1.91,4.25-4.26,4.25Zm0-27.14H94.95c-2.35,0-4.25-1.9-4.25-4.25s1.9-4.25,4.25-4.25h91.88c2.35,0,4.26,1.9,4.26,4.25s-1.91,4.25-4.26,4.25Zm0-27.13H94.95c-2.35,0-4.25-1.91-4.25-4.26s1.9-4.25,4.25-4.25h91.88c2.35,0,4.26,1.91,4.26,4.25s-1.91,4.26-4.26,4.26Zm17.19-55.41H76.74c-1.3,0-2.35,1.06-2.35,2.35V229.87c0,1.3,1.05,2.35,2.35,2.35h127.28c1.3,0,2.35-1.05,2.35-2.35V50.05c0-1.29-1.05-2.35-2.35-2.35Zm-109.07,19.77h41.38c2.34,0,4.25,1.9,4.25,4.25s-1.91,4.25-4.25,4.25h-41.38c-2.35,0-4.25-1.9-4.25-4.25s1.9-4.25,4.25-4.25Zm91.88,144.18h-39.38c-2.34,0-4.25-1.9-4.25-4.25s1.91-4.25,4.25-4.25h39.38c2.35,0,4.26,1.9,4.26,4.25s-1.91,4.25-4.26,4.25Zm0-27.14H94.95c-2.35,0-4.25-1.9-4.25-4.25s1.9-4.25,4.25-4.25h91.88c2.35,0,4.26,1.91,4.26,4.25s-1.91,4.25-4.26,4.25Zm0-27.13H94.95c-2.35,0-4.25-1.91-4.25-4.25s1.9-4.25,4.25-4.25h91.88c2.35,0,4.26,1.9,4.26,4.25s-1.91,4.25-4.26,4.25Zm0-27.14H94.95c-2.35,0-4.25-1.9-4.25-4.25s1.9-4.25,4.25-4.25h91.88c2.35,0,4.26,1.9,4.26,4.25s-1.91,4.25-4.26,4.25Zm0-27.13H94.95c-2.35,0-4.25-1.91-4.25-4.26s1.9-4.25,4.25-4.25h91.88c2.35,0,4.26,1.91,4.26,4.25s-1.91,4.26-4.26,4.26Zm17.19-55.41H76.74c-1.3,0-2.35,1.06-2.35,2.35V229.87c0,1.3,1.05,2.35,2.35,2.35h127.28c1.3,0,2.35-1.05,2.35-2.35V50.05c0-1.29-1.05-2.35-2.35-2.35Zm-109.07,19.77h41.38c2.34,0,4.25,1.9,4.25,4.25s-1.91,4.25-4.25,4.25h-41.38c-2.35,0-4.25-1.9-4.25-4.25s1.9-4.25,4.25-4.25Zm91.88,144.18h-39.38c-2.34,0-4.25-1.9-4.25-4.25s1.91-4.25,4.25-4.25h39.38c2.35,0,4.26,1.9,4.26,4.25s-1.91,4.25-4.26,4.25Zm0-27.14H94.95c-2.35,0-4.25-1.9-4.25-4.25s1.9-4.25,4.25-4.25h91.88c2.35,0,4.26,1.91,4.26,4.25s-1.91,4.25-4.26,4.25Zm0-27.13H94.95c-2.35,0-4.25-1.91-4.25-4.25s1.9-4.25,4.25-4.25h91.88c2.35,0,4.26,1.9,4.26,4.25s-1.91,4.25-4.26,4.25Zm0-27.14H94.95c-2.35,0-4.25-1.9-4.25-4.25s1.9-4.25,4.25-4.25h91.88c2.35,0,4.26,1.9,4.26,4.25s-1.91,4.25-4.26,4.25Zm0-27.13H94.95c-2.35,0-4.25-1.91-4.25-4.26s1.9-4.25,4.25-4.25h91.88c2.35,0,4.26,1.91,4.26,4.25s-1.91,4.26-4.26,4.26Zm17.19-55.41H76.74c-1.3,0-2.35,1.06-2.35,2.35V229.87c0,1.3,1.05,2.35,2.35,2.35h127.28c1.3,0,2.35-1.05,2.35-2.35V50.05c0-1.29-1.05-2.35-2.35-2.35Zm-109.07,19.77h41.38c2.34,0,4.25,1.9,4.25,4.25s-1.91,4.25-4.25,4.25h-41.38c-2.35,0-4.25-1.9-4.25-4.25s1.9-4.25,4.25-4.25Zm91.88,144.18h-39.38c-2.34,0-4.25-1.9-4.25-4.25s1.91-4.25,4.25-4.25h39.38c2.35,0,4.26,1.9,4.26,4.25s-1.91,4.25-4.26,4.25Zm0-27.14H94.95c-2.35,0-4.25-1.9-4.25-4.25s1.9-4.25,4.25-4.25h91.88c2.35,0,4.26,1.91,4.26,4.25s-1.91,4.25-4.26,4.25Zm0-27.13H94.95c-2.35,0-4.25-1.91-4.25-4.25s1.9-4.25,4.25-4.25h91.88c2.35,0,4.26,1.9,4.26,4.25s-1.91,4.25-4.26,4.25Zm0-27.14H94.95c-2.35,0-4.25-1.9-4.25-4.25s1.9-4.25,4.25-4.25h91.88c2.35,0,4.26,1.9,4.26,4.25s-1.91,4.25-4.26,4.25Zm0-27.13H94.95c-2.35,0-4.25-1.91-4.25-4.26s1.9-4.25,4.25-4.25h91.88c2.35,0,4.26,1.91,4.26,4.25s-1.91,4.26-4.26,4.26Z"/></g></svg>