<?xml version="1.0" encoding="UTF-8"?><svg id="Ebene_2" xmlns="http://www.w3.org/2000/svg" viewBox="0 0 283.46 283.46"><defs><style>.cls-1{fill:#306da5;}</style></defs><g id="dtp_spring_forbidden_regular"><g><path class="cls-1" d="M240.94,0H42.52C19.04,0,0,19.04,0,42.52V240.94c0,23.48,19.04,42.52,42.52,42.52H240.94c23.48,0,42.52-19.04,42.52-42.52V42.52c0-23.48-19.04-42.52-42.52-42.52Zm0,8c19.03,0,34.52,15.49,34.52,34.52V240.94c0,5.21-1.17,10.16-3.25,14.59l-.12-.12-81.77-81.77-16.48-16.48-10.84-10.84-.63-.63-19.43-19.43-4.43-4.43-8.3-8.3L27.93,11.25c4.44-2.08,9.38-3.25,14.59-3.25H240.94ZM42.52,275.46c-19.03,0-34.52-15.49-34.52-34.52V42.52c0-5.06,1.1-9.86,3.07-14.19l46.47,46.47,70.7,70.7,27.46,27.46,99.3,99.3,.14,.14c-4.33,1.96-9.14,3.07-14.19,3.07H42.52Z"/><path class="cls-1" d="M117.47,88.78c1.53-.29,3.05-.81,4.51-1.5-1.1,2.05-1.87,4.22-2.19,6.42-.06,.41-.11,.82-.13,1.22l20.52,20.52c8.66-.7,16.02-7.29,17.32-16.25,.22-1.55,.23-3.15,.05-4.75,1.58,1.7,3.38,3.14,5.35,4.15,9.35,4.83,20.84,1.16,25.67-8.19,4.82-9.35,1.15-20.84-8.2-25.67-1.39-.71-2.9-1.24-4.48-1.59,2.13-.94,4.07-2.18,5.68-3.71,7.6-7.27,7.87-19.33,.6-26.94-7.27-7.6-19.33-7.87-26.93-.6-2.42,2.31-4.2,5.42-5.31,8.79,.21-4.25-.58-8.55-2.56-12.02-5.21-9.14-16.85-12.32-25.99-7.11-9.13,5.22-12.32,16.85-7.1,25.99,.77,1.36,1.75,2.62,2.88,3.78-2.29-.37-4.59-.39-6.77,.02-9.18,1.74-15.56,9.78-15.52,18.79l18.99,18.99c1.19,0,2.4-.11,3.61-.34Zm24.24-31.6c3.15-1.81,5.53-5.3,6.91-9.42-.26,5.11,1,10.03,3.91,13.07,1.87,1.95,4.54,3.26,7.57,3.94-3.55,1.57-6.47,3.9-7.98,6.83-1.24,2.4-1.6,5.35-1.26,8.43-2.64-2.84-5.8-4.84-9.05-5.32-2.67-.39-5.58,.23-8.39,1.56,1.83-3.42,2.69-7.06,2.08-10.29-.5-2.65-2.03-5.2-4.2-7.42,3.83,.62,7.55,.24,10.41-1.38Z"/><path class="cls-1" d="M190.23,103.12c-9.73-3.35-20.33,1.82-23.68,11.55-3.35,9.73,1.82,20.34,11.55,23.69,1.45,.5,2.98,.79,4.56,.91-1.92,1.21-3.63,2.68-4.97,4.39-1.47,1.89-2.52,3.96-3.17,6.12l23.2,23.2c3.58-1.06,6.87-3.21,9.34-6.37,.94-1.21,1.72-2.56,2.35-4.01,.52,2.21,1.35,4.3,2.53,6.12,5.61,8.63,17.15,11.09,25.78,5.48,8.63-5.6,11.08-17.15,5.48-25.78-.83-1.28-1.86-2.46-3.03-3.52,2.26,.23,4.51,.12,6.62-.41,9.98-2.48,16.06-12.6,13.57-22.58-2.49-9.99-12.6-16.07-22.59-13.58-3.18,.79-6.2,2.57-8.78,4.9,2.24-3.5,3.66-7.54,3.66-11.45,0-10.29-8.34-18.63-18.63-18.63s-18.64,8.34-18.64,18.63c0,1.53,.22,3.08,.62,4.61-1.77-1.43-3.71-2.56-5.77-3.27Zm14.25,24.61c.86-2.5,.79-5.4,.03-8.34,2.95,2.38,6.29,3.87,9.51,3.87,3.55,0,7.26-1.82,10.43-4.65-2.7,4.22-4.01,9.01-3.01,13,.64,2.56,2.27,4.97,4.52,7.02-3.78-.4-7.39,.18-10.09,1.93-2.21,1.44-3.95,3.77-5.16,6.56-.86-3.7-2.58-6.93-5.11-8.91-2.08-1.63-4.85-2.51-7.88-2.75,3.21-2.01,5.71-4.69,6.76-7.73Z"/><path class="cls-1" d="M99.38,126.38c.49-.06,.97-.13,1.45-.22l-48-48c-4.26,4.22-6.32,10.47-4.93,16.75,.32,1.45,.85,2.87,1.55,4.24-1.97-.98-4.06-1.65-6.15-1.89-9.92-1.13-18.89,5.99-20.02,15.92-1.14,9.92,5.99,18.88,15.91,20.02,1.48,.17,2.99,.12,4.51-.09-1.57,1.55-2.88,3.3-3.78,5.2-4.31,9.01-.49,19.81,8.52,24.11,9.02,4.31,19.81,.49,24.12-8.52,.64-1.34,1.09-2.79,1.38-4.3,.95,1.99,2.18,3.8,3.69,5.27,7.12,7.01,18.57,6.91,25.57-.21s6.91-18.57-.21-25.57c-1.06-1.04-2.28-1.94-3.61-2.71Zm-23.94,.98c-1.79,1.83-2.95,4.41-3.51,7.3-1.59-3.32-3.9-6.02-6.71-7.37-2.32-1.1-5.13-1.36-8.04-.95,2.62-2.58,4.42-5.64,4.78-8.74,.29-2.55-.38-5.29-1.72-7.92,3.29,1.64,6.77,2.35,9.82,1.68,3.37-.74,6.5-3.24,8.91-6.6-1.67,4.57-1.91,9.38-.13,12.96,1.15,2.29,3.2,4.23,5.76,5.7-3.66,.42-6.97,1.72-9.16,3.94Z"/><path class="cls-1" d="M118.82,144.14l-4.47-4.47c-.15,.48-.31,.96-.47,1.43-1.02,3.01-2.21,5.91-3.64,8.56l6.37,3.88s9.9,4.77,9.33,8.29l-10.75,99.89c-.18,1.78,1.22,3.32,3.01,3.32h44.82c1.79,0,3.19-1.55,3.01-3.34,0,0-6.78-54.56-9.45-79.79l-37.76-37.77Z"/></g></g></svg>