<?xml version="1.0" encoding="UTF-8"?><svg id="Ebene_2" xmlns="http://www.w3.org/2000/svg" viewBox="0 0 226.77 226.77"><defs><style>.cls-1{fill:#306da5;}</style></defs><g id="Ebene_74_Kopie_3"><path class="cls-1" d="M113.38,0C50.76,0,0,50.76,0,113.38s50.76,113.39,113.38,113.39,113.39-50.77,113.39-113.39S176,0,113.38,0Zm65.82,64.17l-74.11,109.1c-1.58,2.32-4.1,3.83-6.88,4.12-.33,.03-.66,.05-.98,.05-2.45,0-4.82-.95-6.6-2.67l-41.81-40.41c-3.77-3.64-3.88-9.66-.23-13.43,3.65-3.77,9.66-3.88,13.43-.23l1.87,1.81,31.82,30.75,56.4-83.03,11.37-16.74c2.95-4.34,8.86-5.47,13.2-2.52,4.34,2.95,5.47,8.86,2.52,13.2Z"/></g></svg>