<?xml version="1.0" encoding="UTF-8"?><svg id="Ebene_2" xmlns="http://www.w3.org/2000/svg" viewBox="0 0 283.46 283.46"><defs><style>.cls-1{fill:#306da5;}</style></defs><g id="dtp_paths_forbidden_regular"><g><path class="cls-1" d="M240.94,0H42.52C19.04,0,0,19.04,0,42.52V240.94c0,23.48,19.04,42.52,42.52,42.52H240.94c23.48,0,42.52-19.04,42.52-42.52V42.52c0-23.48-19.04-42.52-42.52-42.52Zm-112.74,8c-1.57,3.49-.94,7.72,1.92,10.6,.02,.02,2.54,2.56,6.09,6.83,1.88,2.26,4.58,3.42,7.3,3.42,2.14,0,4.3-.72,6.08-2.2,4.03-3.36,4.58-9.35,1.22-13.38-1.79-2.15-3.36-3.93-4.58-5.27h94.71c19.03,0,34.52,15.49,34.52,34.52V240.94c0,5.21-1.17,10.16-3.25,14.59L27.93,11.25c4.44-2.08,9.38-3.25,14.59-3.25h85.68Zm25.77,267.46c1.33-2.36,1.66-5.26,.64-8-.01-.03-1.3-3.49-3.27-9.2-1.71-4.96-7.12-7.59-12.08-5.88-4.96,1.71-7.59,7.12-5.88,12.08,2.06,5.95,3.37,9.49,3.43,9.64,.18,.48,.39,.93,.63,1.36H42.52c-19.03,0-34.52-15.49-34.52-34.52V42.52c0-5.06,1.1-9.86,3.07-14.19l113.99,113.99,129.94,129.94,.14,.14c-4.33,1.96-9.14,3.07-14.19,3.07h-86.98Z"/><path class="cls-1" d="M159.83,128.08c5.05-6.09,8.83-11.52,11.91-17.1,2.54-4.59,.87-10.37-3.72-12.91-4.6-2.54-10.38-.87-12.91,3.72-2.5,4.52-5.64,9.02-9.91,14.17-.73,.88-1.27,1.85-1.63,2.87l12.14,12.14c1.56-.56,2.99-1.53,4.12-2.89Z"/><path class="cls-1" d="M160.57,71.37c.85,4.57,4.84,7.77,9.33,7.77,.57,0,1.16-.06,1.74-.17,5.16-.96,8.57-5.92,7.61-11.07-1.22-6.52-3.4-13.34-6.5-20.28-2.14-4.79-7.75-6.94-12.55-4.8-4.79,2.14-6.94,7.76-4.8,12.55,2.49,5.57,4.23,10.96,5.17,16Z"/><path class="cls-1" d="M135.21,204.24c-1.25-5.1-6.39-8.22-11.48-6.97-5.1,1.25-8.22,6.39-6.98,11.48,1.46,5.97,3.14,12.3,4.98,18.8,1.19,4.18,5,6.91,9.14,6.91,.86,0,1.73-.12,2.6-.37,5.04-1.43,7.97-6.68,6.54-11.73-1.78-6.28-3.39-12.37-4.8-18.12Z"/><path class="cls-1" d="M121.08,178.41c4.56,0,8.59-3.3,9.36-7.94,.62-3.68,1.85-7.2,3.82-10.88l-13.85-13.85c-.12,.16-.23,.33-.34,.5-4.43,6.99-7.16,13.9-8.37,21.1-.86,5.18,2.63,10.07,7.81,10.94,.53,.08,1.06,.13,1.57,.13Z"/></g></g></svg>