<?xml version="1.0" encoding="UTF-8"?><svg id="Ebene_2" xmlns="http://www.w3.org/2000/svg" viewBox="0 0 283.46 283.46"><defs><style>.cls-1{fill:#306da5;}</style></defs><g id="dtp_dronesmodelplanes_allowed_regular"><g><path class="cls-1" d="M53.7,108.72c.11-1.12-.44-2.18-1.34-2.55l-29.56-12.11c-.42-.17-.88-.17-1.3,0l-10.4,4.36c-1.95,.82-1.7,4.22,.34,4.62l39.96,7.75c1.12,.22,2.16-.73,2.3-2.08Z"/><path class="cls-1" d="M57.99,110.81l40.26-5.82c2.06-.3,2.11-3.63,.06-4.53l-10.86-4.76c-.44-.19-.91-.22-1.33-.06l-29.4,10.57c-.89,.32-1.39,1.34-1.21,2.45,.22,1.33,1.34,2.31,2.47,2.15Z"/><path class="cls-1" d="M213.66,118.73c0,5.56,3.64,10.26,8.67,11.86v2.7c0,1.69-1.37,3.06-3.06,3.06h-44.79l-5.12-14.85h-55.13l-5.12,14.85H63.89c-1.69,0-3.06-1.37-3.06-3.06v-2.76c4.94-1.65,8.5-6.3,8.5-11.8v-6.67h-29.54v6.67c0,5.46,3.53,10.09,8.42,11.77v.86c0,9.62,7.72,17.43,17.3,17.6l3.7,52.68c.25,2.75,4.27,2.75,4.53,0l3.7-52.67h36.12l5.35,10.88h.33c-5.94,5.84-9.62,13.95-9.62,22.94,0,17.77,14.4,32.17,32.17,32.17s32.17-14.4,32.17-32.17c0-8.98-3.69-17.1-9.62-22.94h.32l5.35-10.88h32.74l3.7,52.67c.25,2.75,4.27,2.75,4.53,0l3.7-52.67h3.64c9.73,0,17.62-7.89,17.62-17.62v-1.32c4.28-1.97,7.25-6.28,7.25-11.3v-6.67h-29.54v6.67Zm-71.87,82.57c-10.19,0-18.45-8.26-18.45-18.45s8.26-18.45,18.45-18.45,18.45,8.26,18.45,18.45-8.26,18.45-18.45,18.45Z"/><path class="cls-1" d="M185.31,103.05l39.96,7.75c1.12,.22,2.16-.73,2.3-2.08,.11-1.12-.44-2.18-1.34-2.55l-29.56-12.11c-.42-.17-.88-.17-1.3,0l-10.4,4.36c-1.95,.82-1.7,4.22,.34,4.62Z"/><path class="cls-1" d="M260,95.65l-29.4,10.57c-.89,.32-1.39,1.34-1.21,2.45,.22,1.33,1.34,2.31,2.47,2.15l40.26-5.82c2.06-.3,2.11-3.63,.06-4.53l-10.86-4.76c-.44-.19-.91-.22-1.33-.06Z"/><circle class="cls-1" cx="141.79" cy="182.85" r="12.33"/><path class="cls-1" d="M240.94,0H42.52C19.04,0,0,19.04,0,42.52V240.94c0,23.48,19.04,42.52,42.52,42.52H240.94c23.48,0,42.52-19.04,42.52-42.52V42.52c0-23.48-19.04-42.52-42.52-42.52Zm34.52,240.94c0,19.03-15.49,34.52-34.52,34.52H42.52c-19.03,0-34.52-15.49-34.52-34.52V42.52c0-19.03,15.49-34.52,34.52-34.52H240.94c19.03,0,34.52,15.49,34.52,34.52V240.94Z"/></g></g></svg>