<?xml version="1.0" encoding="UTF-8"?><svg id="Ebene_2" xmlns="http://www.w3.org/2000/svg" viewBox="0 0 283.46 283.46"><defs><style>.cls-1{fill:#306da5;}</style></defs><g id="dtp_camping_forbidden_regular"><g><path class="cls-1" d="M240.94,0H42.52C19.04,0,0,19.04,0,42.52V240.94c0,23.48,19.04,42.52,42.52,42.52H240.94c23.48,0,42.52-19.04,42.52-42.52V42.52c0-23.48-19.04-42.52-42.52-42.52Zm0,8c19.03,0,34.52,15.49,34.52,34.52V240.94c0,5.21-1.17,10.16-3.25,14.59l-.12-.12-61.07-61.07L96.01,79.33,27.93,11.25c4.44-2.08,9.38-3.25,14.59-3.25H240.94ZM42.52,275.46c-19.03,0-34.52-15.49-34.52-34.52V42.52c0-5.06,1.1-9.86,3.07-14.19L84.82,102.08l20.23,20.23,149.95,149.95,.14,.14c-4.33,1.96-9.14,3.07-14.19,3.07H42.52Z"/><path class="cls-1" d="M145.95,216.12s.02-.01,.06-.04l12.19-23.1c1.03-1.97,3.33-2.64,5.13-1.51,1.79,1.14,2.41,3.65,1.37,5.62l-7.07,13.41c.11-.01,.21-.02,.31-.02l20.87-6.34-61.86-61.87c13.86,36.34,29,73.85,29,73.85Z"/><path class="cls-1" d="M240.72,185.32l-.03,.06h8.68l10.19-19.32c1.04-1.97,.42-4.48-1.38-5.62-1.8-1.14-4.09-.46-5.13,1.51l-12.31,23.34s0,0,0,0c-.83-1.81-38.94-83.9-45.48-102.96-19.94,.74-63.75,.8-90.03-1.83l111.98,111.98,23.51-7.15Z"/><path class="cls-1" d="M82.61,107.93c-14.02,36.95-37.27,97.08-37.27,97.08l37.18,5.19,9.4-70.99,10.16,72.22,38.51,6.03s-17.13-44.25-31.01-82.56l-26.97-26.97Z"/><path class="cls-1" d="M27.84,180.07c-1.8,1.14-2.41,3.65-1.38,5.62l10.19,19.32h8.68l-12.36-23.43c-1.04-1.97-3.34-2.64-5.13-1.51Z"/></g></g></svg>