<?xml version="1.0" encoding="UTF-8"?><svg id="Ebene_2" xmlns="http://www.w3.org/2000/svg" viewBox="0 0 283.46 283.46"><defs><style>.cls-1{fill:#306da5;}</style></defs><g id="dtp_campingbivouac_forbidden_regular"><g><path class="cls-1" d="M240.94,0H42.52C19.04,0,0,19.04,0,42.52V240.94c0,23.48,19.04,42.52,42.52,42.52H240.94c23.48,0,42.52-19.04,42.52-42.52V42.52c0-23.48-19.04-42.52-42.52-42.52Zm0,8c19.03,0,34.52,15.49,34.52,34.52v117.03c-15.44-2.37-44.15-5.8-58.04-1.19,0,0-19.89-4.11-39.11-4.79l82.55,82.55c5.83-.05,10.83-.1,14.6-.14v4.96c0,5.21-1.17,10.16-3.25,14.59L27.93,11.25c4.44-2.08,9.38-3.25,14.59-3.25H240.94ZM42.52,275.46c-19.03,0-34.52-15.49-34.52-34.52V42.52c0-5.06,1.1-9.86,3.07-14.19L219.08,236.34l35.92,35.92,.14,.14c-4.33,1.96-9.14,3.07-14.19,3.07H42.52Z"/><path class="cls-1" d="M239.96,87.56c5.43-29.6-14.16-58-43.76-63.44-9.97-1.83-19.8-.81-28.67,2.47,23.62,6.71,38.79,29.93,34.37,53.98-4.42,24.06-26.83,40.38-51.3,38.26,7.13,6.21,15.96,10.66,25.93,12.49,29.6,5.43,58-14.16,63.44-43.76Z"/><path class="cls-1" d="M84.48,192.72c1.16-11.85-7.23-22.42-18.73-23.61l-10.98-1.14c-11.51-1.2-21.77,7.44-22.93,19.29-1.16,11.85,7.23,22.42,18.73,23.61l10.98,1.14c.71,.07,1.42,.11,2.13,.11,10.62,0,19.72-8.29,20.81-19.4Z"/><path class="cls-1" d="M109.71,176.05c-4.06-1.26-12.19-1.81-15.28,2.28-6.8,9.03-7.12,24.32,1.31,32.58,4.07,3.99,11,1.21,15.91,.91,1-.06,1.93,.49,2.38,1.4,.8,1.64-.29,3.58-2.07,3.7l-38.13,2.5c-4.9,.29-8.64,4.6-8.35,9.62,.27,4.84,2.16,8.57,8.86,8.57,.17,0,.35,0,.52-.02l56.84-3.58c3.03-.18,5.76-1.93,7.24-4.65s1.51-6.01,.07-8.75c-3.71-10.71-21.47-42.14-29.3-44.57Z"/><path class="cls-1" d="M54.17,119.92l8.09-2.99-6.37,24.59c-.41,1.57,.09,3.24,1.28,4.31,.77,.69,1.75,1.06,2.74,1.06,.54,0,1.08-.11,1.6-.33l18.28-7.78c2.12-.9,3.13-3.4,2.25-5.58-.88-2.18-3.32-3.21-5.45-2.3l-10.49,4.47,6.25-24.12c.4-1.54-.07-3.17-1.21-4.24-1.14-1.07-2.77-1.4-4.23-.87l-15.58,5.76c-2.17,.8-3.29,3.25-2.51,5.47,.78,2.22,3.17,3.36,5.33,2.57Z"/><path class="cls-1" d="M30.87,98.99l4.07-1.5-3.53,13.63c-.27,1.05,.06,2.16,.86,2.87,.52,.46,1.17,.7,1.83,.7,.36,0,.72-.07,1.07-.22l10.63-4.53c1.42-.6,2.09-2.27,1.5-3.72-.59-1.45-2.21-2.14-3.63-1.54l-5.43,2.31,3.45-13.31c.27-1.02-.04-2.11-.81-2.83-.76-.72-1.85-.94-2.82-.58l-9.06,3.35c-1.44,.53-2.19,2.17-1.67,3.65,.52,1.48,2.11,2.24,3.56,1.71Z"/><path class="cls-1" d="M92.68,158.36c-11.89-6.68-25.27-9.29-43.11-8.47-17.85,.82-33.94,13.39-37.25,30.11-5.57,28.11,15.71,47.81,39.33,49.08l5.98,.94c-.05-.67-.07-1.36-.07-2.09,0-2.24,.35-4.08,.95-5.6l-7.38-.76c-8.25-.85-15.68-4.94-20.92-11.52-5.24-6.58-7.67-14.85-6.84-23.3,1.6-16.31,14.86-28.61,30.83-28.61,1.05,0,2.11,.05,3.15,.16l11.81,1.22c7.83,.81,14.92,4.56,20.11,10.58v.24c.06-.01,.12-.02,.18-.03,.1,.11,.19,.22,.29,.33,.09-.1,.19-.2,.29-.31l-.22-.06c2.52-.34,5.06-.78,7.6-1.13,.17-.02,.34-.04,.51-.07,4.69-.61,9.35-.81,13.76,.79,7.8,2.82,14.94,9.67,19.49,17.33,7.8,13.14,20.53,34.45,15.92,47.22,1.6,1.51,32.18,1.93,63.94,1.94l-85.5-85.49c-12.62-.69-25.75,.98-32.85,7.5Z"/></g></g></svg>