<?xml version="1.0" encoding="UTF-8"?><svg id="Ebene_2" xmlns="http://www.w3.org/2000/svg" viewBox="0 0 283.46 283.46"><defs><style>.cls-1{fill:#306da5;}</style></defs><g id="dtp_dronesmodelplanes_forbidden_regular2"><g><path class="cls-1" d="M240.94,0H42.52C19.04,0,0,19.04,0,42.52V240.94c0,23.49,19.04,42.52,42.52,42.52H240.94c23.49,0,42.52-19.03,42.52-42.52V42.52c0-23.48-19.03-42.52-42.52-42.52ZM42.52,8H240.94c19.04,0,34.52,15.49,34.52,34.52V240.94c0,5.21-1.16,10.16-3.24,14.6l-.12-.12-68.53-68.53-30.68-30.68-6.14-6.14-17.78-17.78-14.57-14.57-4.43-4.43L27.92,11.24c4.43-2.08,9.38-3.24,14.6-3.24ZM240.94,275.46H42.52c-19.03,0-34.52-15.48-34.52-34.52V42.52c0-5.06,1.09-9.87,3.06-14.2L103.38,120.64l3.44,3.44,10.4,10.4,14.7,14.7,7.23,7.23,89.52,89.52,26.33,26.33,.14,.15c-4.34,1.96-9.14,3.05-14.2,3.05Z"/><path class="cls-1" d="M158.33,113.29h-8.55l-1.56-35.04c0-1.67-.68-3.17-1.77-4.27-1.09-1.09-2.59-1.77-4.26-1.77-3.34,0-6.04,2.71-6.04,6.04l-1.41,31.75,3.29,3.29,12.29,12.29,13.7,13.7,6.62-11.75-12.31-14.24Z"/><path class="cls-1" d="M142.48,39.99c16.14,0,30.12,9.4,36.76,23.01l7.17-2.93c-7.81-16.43-24.56-27.82-43.93-27.82s-36.22,11.46-44,27.98l7.17,2.9c6.61-13.68,20.63-23.14,36.82-23.14Z"/><path class="cls-1" d="M142.48,53.14c10.64,0,19.89,6.03,24.53,14.85l7.19-2.93c-5.82-11.64-17.85-19.65-31.72-19.65s-25.98,8.06-31.78,19.76l7.21,2.91c4.63-8.86,13.9-14.94,24.57-14.94Z"/><path class="cls-1" d="M142.48,66.29c5.14,0,9.66,2.68,12.25,6.71l7.24-2.95c-3.81-6.84-11.12-11.49-19.49-11.49s-15.73,4.67-19.53,11.55l7.25,2.93c2.59-4.05,7.12-6.75,12.28-6.75Z"/><path class="cls-1" d="M172.74,120.59l6.39,5.72-9.62,18.46,7.38,7.38c2.78-2.16,6.1-3.68,9.72-4.3v4.39c0,2.62,2.12,4.74,4.74,4.74s4.73-2.12,4.73-4.74v-3.95c8.59,2.34,15.17,9.85,16.07,18.91,.59,5.93-1.19,11.44-4.52,15.69l24.97,24.97c-1.69-19.85-4.74-39.61-9.26-58.96-5.03-21.54-28.93-29.13-50.6-28.31Z"/><path class="cls-1" d="M168.44,196.8v13.63c0,4.18-3.39,7.57-7.58,7.57h-38.26c-4.18,0-7.57-3.39-7.57-7.57v-13.63c0-4.18,3.39-7.57,7.57-7.57h38.26c1.76,0,3.37,.6,4.65,1.61l-34.42-34.43h-11.06l-12.04-23.09-11.95-11.95c-16.76,2.51-32.01,10.82-35.91,27.53-7.23,30.93-10.7,62.88-10.85,94.63,12.25,5.52,26.55,11.06,38.6,5.12,3.01-1.49,5.67-3.62,8.74-4.97,4.85-2.14,10.32-2.18,15.61-2.18,9.84-.01,53.17-.01,63,0,5.3,0,6.77,.04,11.61,2.18,3.07,1.35,5.74,3.48,8.75,4.97,8.47,4.17,18.05,2.68,27.24-.5l-56-55.99c1.01,1.28,1.61,2.89,1.61,4.64Zm-70.59-5.98v-3.19c0-2.61-2.12-4.74-4.73-4.74s-4.74,2.13-4.74,4.74v3.2c-10.52-2.32-18.2-12.18-17.07-23.63,.94-9.4,7.99-17.14,17.07-19.15v3.19c0,2.62,2.12,4.74,4.74,4.74s4.73-2.12,4.73-4.74v-3.19c10.52,2.32,18.2,12.18,17.07,23.62-.93,9.41-7.99,17.15-17.07,19.15Z"/></g></g></svg>