<?xml version="1.0" encoding="UTF-8"?><svg id="Ebene_2" xmlns="http://www.w3.org/2000/svg" viewBox="0 0 283.46 283.46"><defs><style>.cls-1{fill:#306da5;}</style></defs><g id="dtp_collectingmineralsfossils_forbidden_regular"><g><path class="cls-1" d="M93.78,205.4c-.49,1.01-.79,2.11-.92,3.22-1.01,9.13,5.99,17.02,14.99,17.29,11.57,.36,21.22-9.08,21.01-20.79,0,0,0,0,0,0-2.75-.24-5.46-.35-8.11-.32,.13,.93,.2,1.87,.17,2.83-.06,2.18-1.9,3.91-4.07,3.83-2.14-.06-3.84-1.82-3.83-3.96,0-1.16-.07-2.33-.51-3.39-1.4-3.37-4.41-5.39-7.76-5.49-4.54-.14-8.8,2.35-10.97,6.78Z"/><path class="cls-1" d="M105.62,190.78c2.14,.14,4.19,.69,6.07,1.61,.64-1.39,1.3-2.75,1.99-4.05,.97-1.77,2.01-3.52,3.08-5.27-3.08-2-6.53-3.32-10.19-3.9-.56,3.95-.89,7.84-.95,11.61Z"/><path class="cls-1" d="M94.72,229.47c-2.9-2.07-5.3-4.8-7.01-7.95-5.18,2.83-10.68,5.34-16.38,7.55,2.27,5.72,5.66,10.87,9.93,15.18,4.94-4.69,9.51-9.65,13.46-14.79Z"/><path class="cls-1" d="M118.74,184.49c-2.12,2.83-4.04,5.72-5.72,8.63,1.25,.76,2.4,1.68,3.43,2.77,.34,.36,.65,.73,.95,1.11,1.46-1.06,2.95-2.07,4.43-2.99,1.13-.68,2.29-1.34,3.45-1.99-1.01-1.73-2.22-3.36-3.63-4.86-.91-.97-1.88-1.85-2.91-2.66Z"/><path class="cls-1" d="M120.48,203.37c1.88-.21,3.77-.34,5.58-.39,.89-.02,1.8,0,2.7,0-.27-3.14-1.1-6.17-2.43-8.98-2.82,1.28-5.53,2.67-8.08,4.17,1.05,1.6,1.8,3.35,2.23,5.2Z"/><path class="cls-1" d="M73.31,182.37c3.74-3.53,8.02-6.28,12.63-8.21-5.39-12.91-9.11-27-11.09-40.95-4.11,1.04-8.12,2.37-11.99,3.96-6.3,3.08-12.11,6.98-17.34,11.42,6.85,11.8,16.15,24.34,26.7,34.85,.36-.36,.72-.73,1.09-1.08Z"/><path class="cls-1" d="M103.91,178.87c-4.11-.2-8.14,.32-11.93,1.5,1.53,4.13,3.27,8.07,5.21,11.75,2.14-.85,4.43-1.31,6.78-1.36-.09-1.09-.16-2.18-.19-3.24-.06-2.84,0-5.73,.14-8.63,0,0,0,0-.01-.01Z"/><path class="cls-1" d="M132.42,220.54c-2.16,3.43-5.03,6.35-8.4,8.58,3.74,7.35,6.9,15.24,9.43,23.4,6.95-2.93,13.21-7.22,18.4-12.58-5.95-7.12-12.53-13.8-19.44-19.4Z"/><path class="cls-1" d="M121.11,176.47c4.07-5.8,8.66-11.39,13.63-16.7l-17.41-17.41c-3.98,9.31-7.3,19.24-9.38,29.03,4.72,.77,9.18,2.5,13.16,5.09Z"/><path class="cls-1" d="M77.98,188.86s0,0,0,.01c3.71,3.29,7.54,6.29,11.44,8.89,.5-.59,1.02-1.17,1.59-1.71,1.37-1.29,2.9-2.35,4.53-3.18-.24-.37-.5-.75-.73-1.12-2.01-3.31-3.87-6.79-5.61-10.38-4.14,1.7-7.94,4.21-11.22,7.49Z"/><path class="cls-1" d="M110.46,233.75c-.35,7.54-1.37,15.24-2.96,22.9,.95,.09,1.91,.16,2.88,.18,6.3,.18,12.38-.71,18.08-2.49-1.61-8.25-3.86-16.36-6.79-23.83-3.4,1.8-7.19,2.94-11.21,3.23Z"/><path class="cls-1" d="M136.7,203.21c10.04,.64,20.32,2.43,30.38,5.15,.23-1.78,.37-3.58,.43-5.41,.11-3.69-.08-7.35-.53-10.95l-7.65-7.65c-8.81,1.49-17.58,3.67-25.68,6.64,1.75,3.82,2.79,7.94,3.05,12.21Z"/><path class="cls-1" d="M68.98,204.91c5.42,1.29,10.82,2.23,16.08,2.71,.4-2.98,1.49-5.79,3.15-8.26-4.24-2.38-8.42-5.05-12.49-7.99-3.25,3.97-5.54,8.58-6.74,13.54Z"/><path class="cls-1" d="M103.37,170.94c.39,.01,.77,.04,1.15,.06,1.21-11.34,3.82-22.87,7.5-33.95l-5.99-5.99c-2.25-.29-4.53-.48-6.83-.54-5.59-.16-11.07,.2-16.4,1.05,.52,13.33,2.64,27.94,6.66,41.3,4.44-1.4,9.12-2.07,13.9-1.93Z"/><path class="cls-1" d="M123.7,178.33c1.3,1.03,2.54,2.16,3.7,3.39,1.91,2.03,3.55,4.25,4.9,6.62,7.07-3.43,14.61-6.31,22.37-8.64l-16.11-16.11c-5.34,4.62-10.39,9.57-14.86,14.74Z"/><path class="cls-1" d="M69.44,186.56c-11.38-9.18-21.76-20.24-30.32-31.95-8.66,8.93-15.24,19.33-19.16,29.61,11.6,7.26,26.33,14.17,41.39,18.64,1.46-5.96,4.21-11.51,8.1-16.31Z"/><path class="cls-1" d="M136.75,206.34c-.12,4.21-1.17,8.18-2.94,11.72,7.64,5.03,14.98,11,21.81,17.58,4.86-6.16,8.45-13.39,10.36-21.28-9.52-3.71-19.52-6.65-29.23-8.25,0,.07,0,.15,0,.22Z"/><path class="cls-1" d="M54.1,228.56c2.65-.43,5.31-.92,7.94-1.48-1.37-4.88-2.05-10.04-1.9-15.37,.04-1.45,.16-2.89,.35-4.32-14.97-2.76-29.9-7.73-43.29-14.19-1.89,8.22-1.89,16.04,.3,22.58,3.27,9.74,18.73,13.2,36.6,12.79Z"/><path class="cls-1" d="M107.62,233.81c-3.9-.11-7.54-1.19-10.73-2.98-3.59,5.69-7.7,11.23-12.21,16.53,1.11,.91,2.25,1.78,3.44,2.59,4.33,2.78,9.19,4.8,14.4,5.92,2.37-7.33,4.19-14.79,5.24-22.05-.05,0-.09,0-.14,0Z"/><path class="cls-1" d="M84.88,209.79c-5.45-.04-11-.43-16.59-1.16-.14,1.09-.22,2.19-.26,3.31-.14,4.61,.46,9.07,1.67,13.28,5.92-1.59,11.65-3.52,16.98-5.84-1.23-2.95-1.89-6.19-1.81-9.58Z"/><path class="cls-1" d="M274.15,15.98c.03-.05,.07-.08,.13-.05,0,0-.11-.06-.3-.16-7.8-9.61-19.7-15.76-33.03-15.76H42.52C19.04,0,0,19.04,0,42.52V240.94c0,23.48,19.04,42.52,42.52,42.52H240.94c23.48,0,42.52-19.04,42.52-42.52V42.52c0-10.04-3.49-19.27-9.31-26.54Zm-24.77,258.44c-2.7,.68-5.53,1.05-8.44,1.05H42.52c-19.03,0-34.52-15.49-34.52-34.52V42.52c0-5.14,1.14-10.01,3.16-14.39l.36,.36,243.82,243.82c-1.9,.88-3.89,1.59-5.95,2.11Zm26.08-33.47c0,2.91-.37,5.74-1.05,8.44-.52,2.07-1.23,4.05-2.11,5.95L136.24,119.27c-3.34,1.08-7.12,.99-10.62-.3-2.74-1.01-5.07-2.68-6.73-4.83-2.15-2.78-2.95-6.04-2.26-9.18,.29-1.32,.85-2.56,1.62-3.68l-3.44-3.44c-2.04-1.07-3.76-2.52-5.05-4.29-.44-.61-.8-1.23-1.12-1.87L28.36,11.39l-.23-.23c4.38-2.02,9.26-3.16,14.39-3.16H240.94c1.15,0,2.28,.06,3.39,.17-3.17,4.73-7.49,10.43-8.7,11.79-.16,.18-.27,.29-.31,.31-11.66,5.13-24.04,4.74-36.65,6.85-13.13,2.19-25.91,5.81-38.1,10.44-11.49,4.36-35.86,15.13-35.86,15.13,0,0-7.14,3.35-3.7,9.52,2.07,3.71,6.62,3.28,10.94,1.64,0,0,30.57-11.68,35.95-10.34q1.43,.1,1.86,.65c.65,.85,.3,1.97-.71,2.29-15.66,4.85-36.02,14.8-52.04,24.86-4.17,1.87-5.48,6.22-2.94,9.73,2.55,3.51,7.99,4.84,12.16,2.97,16.12-9.2,50.22-21.9,50.69-21.3l1.1,1.43c.67,.86-35.87,16.36-52.35,27.55-4.09,1.97-5.25,6.36-2.58,9.81,2.65,3.42,8.06,4.64,12.14,2.73,.07-.03,.13-.07,.19-.1,17.84-10.89,53.91-25.35,54.37-24.76l1.31,1.7c.65,.84-27.69,16.39-37.62,25.04-.09,.08-.17,.16-.27,.22-3.67,2.32-4.23,6.74-1.21,9.94,3.02,3.2,8.47,3.99,12.28,1.8,.11-.06,.19-.16,.29-.22,10.01-5.75,20.08-11.4,30.15-17.06,5.38-3.03,10.82-5.97,16.14-9.07,12.15-7.09,16.59-4.61,20.28-1.9,3.6,2.64-2.38,16.06-3.35,19.49-1.08,3.84-.75,8.61-.04,12.58,.71,3.94,4.12,10.63,9.57,10.41,1.59-.06,2.79-1.27,3.41-2.58,.77-1.61,1.45-3.29,2.07-5.01,3.87-10.71,6.78-26.56,11.06-37.15,2.39-5.92,5.48-11.51,8.25-17.25,.66-1.38,1.31-2.76,1.92-4.16,1.3-2.97,2.52-6.03,3.39-9.16,.19-.69,.37-1.39,.52-2.1,.71-3.32,.63-6.95,2.81-9.77,1.56-2.02,3.1-2.68,4.67-3.11V240.94Z"/></g></g></svg>