<?xml version="1.0" encoding="UTF-8"?><svg id="Ebene_2" xmlns="http://www.w3.org/2000/svg" viewBox="0 0 283.46 283.46"><defs><style>.cls-1{fill:#306da5;}</style></defs><g id="dtp_spring_allowed_regular"><g><path class="cls-1" d="M117.47,88.78c1.54-.29,3.05-.81,4.51-1.5-1.1,2.05-1.87,4.22-2.19,6.41-1.52,10.41,5.69,20.08,16.1,21.6,10.41,1.52,20.08-5.69,21.6-16.1,.23-1.55,.23-3.15,.05-4.75,1.58,1.7,3.38,3.14,5.35,4.16,9.35,4.82,20.84,1.15,25.67-8.2s1.15-20.84-8.2-25.67c-1.39-.72-2.9-1.24-4.48-1.6,2.12-.94,4.07-2.18,5.67-3.71,7.61-7.27,7.88-19.33,.61-26.94-7.27-7.61-19.33-7.88-26.94-.61-2.42,2.31-4.2,5.42-5.31,8.8,.21-4.25-.58-8.55-2.56-12.02-5.21-9.14-16.85-12.32-25.99-7.1-9.14,5.21-12.32,16.85-7.1,25.99,.77,1.36,1.76,2.62,2.88,3.78-2.29-.37-4.6-.39-6.78,.02-10.34,1.96-17.13,11.92-15.18,22.26s11.92,17.13,22.26,15.18Zm24.24-31.61c3.16-1.8,5.53-5.29,6.91-9.42-.25,5.12,1.01,10.03,3.91,13.08,1.87,1.95,4.54,3.26,7.57,3.94-3.55,1.57-6.47,3.91-7.98,6.83-1.24,2.4-1.6,5.35-1.26,8.44-2.64-2.85-5.8-4.85-9.05-5.32-2.67-.39-5.58,.23-8.39,1.56,1.83-3.42,2.69-7.06,2.08-10.29-.5-2.65-2.03-5.2-4.2-7.43,3.83,.62,7.55,.25,10.41-1.38Z"/><path class="cls-1" d="M237.77,108.33c-3.18,.79-6.2,2.57-8.78,4.9,2.24-3.51,3.66-7.54,3.66-11.45,0-10.29-8.34-18.63-18.63-18.63s-18.63,8.34-18.63,18.63c0,1.53,.22,3.08,.62,4.61-1.77-1.42-3.72-2.56-5.77-3.27-9.73-3.35-20.34,1.82-23.69,11.55-3.35,9.73,1.82,20.34,11.55,23.69,1.45,.5,2.98,.79,4.56,.91-1.92,1.21-3.63,2.68-4.97,4.39-6.34,8.11-4.9,19.82,3.21,26.16,8.11,6.34,19.82,4.9,26.16-3.21,.94-1.21,1.72-2.56,2.35-4.01,.52,2.21,1.35,4.3,2.53,6.13,5.61,8.63,17.15,11.08,25.78,5.48,8.63-5.61,11.08-17.15,5.48-25.78-.83-1.28-1.86-2.46-3.03-3.53,2.26,.23,4.51,.12,6.62-.4,9.99-2.49,16.06-12.6,13.57-22.59-2.49-9.99-12.6-16.06-22.59-13.57Zm-21.9,32.22c-2.22,1.44-3.96,3.77-5.16,6.56-.86-3.7-2.58-6.93-5.11-8.91-2.08-1.63-4.85-2.51-7.88-2.74,3.22-2.02,5.71-4.69,6.76-7.73,.86-2.5,.8-5.41,.03-8.35,2.95,2.38,6.3,3.87,9.51,3.87,3.55,0,7.27-1.82,10.43-4.65-2.7,4.23-4.01,9.01-3.01,13.01,.64,2.56,2.28,4.97,4.52,7.01-3.78-.39-7.39,.18-10.09,1.93Z"/><path class="cls-1" d="M113.69,100.36c-4.45-8.94-15.31-12.58-24.25-8.13-2.84,1.42-5.33,3.73-7.29,6.48,1.39-3.79,1.88-7.91,1.06-11.62-2.16-9.75-11.81-15.91-21.56-13.75-9.75,2.16-15.91,11.81-13.75,21.56,.32,1.45,.85,2.87,1.55,4.24-1.98-.98-4.06-1.65-6.15-1.89-9.92-1.13-18.89,5.99-20.02,15.91-1.13,9.92,5.99,18.89,15.91,20.02,1.47,.17,2.99,.13,4.51-.09-1.57,1.55-2.88,3.3-3.79,5.2-4.3,9.01-.49,19.81,8.53,24.11,9.01,4.3,19.81,.49,24.11-8.53,.64-1.34,1.09-2.79,1.38-4.29,.95,1.99,2.18,3.8,3.68,5.27,7.12,7,18.57,6.91,25.58-.21,7-7.12,6.91-18.57-.21-25.58-1.06-1.04-2.28-1.94-3.61-2.71,2.19-.25,4.3-.83,6.19-1.77,8.94-4.45,12.58-15.31,8.13-24.25Zm-38.25,27c-1.8,1.83-2.96,4.4-3.52,7.3-1.59-3.32-3.89-6.02-6.71-7.37-2.31-1.11-5.13-1.36-8.04-.95,2.62-2.59,4.43-5.64,4.78-8.74,.29-2.55-.38-5.29-1.72-7.91,3.3,1.64,6.78,2.35,9.82,1.68,3.37-.75,6.5-3.24,8.91-6.6-1.67,4.57-1.91,9.38-.13,12.96,1.14,2.3,3.2,4.23,5.75,5.7-3.66,.42-6.96,1.72-9.15,3.95Z"/><path class="cls-1" d="M162.32,158.84l2.13-1.44c-1.28-3.96-1.8-8.12-1.36-12.15l-8.39,5.39-4.39,2.42c-4.19,1.28-5.99-1.34-6.82-3.79-.72-2.15-1.05-9.22-.99-16.32l.81-12.02c-3.23,.91-6.63,1.24-9.96,.95l-1.04,11.01c-1.03,9.93-4.15,16.08-9.75,13.56l-8.68-5.35c-1.02,3.01-2.21,5.91-3.64,8.56l6.37,3.88s9.9,4.77,9.33,8.29l-10.75,99.89c-.18,1.78,1.22,3.32,3.01,3.32h44.82c1.79,0,3.19-1.55,3.01-3.34,0,0-10.51-84.54-10.51-91.81,0-5.76,3.45-8.66,6.8-11.05Z"/><path class="cls-1" d="M240.94,0H42.52C19.04,0,0,19.04,0,42.52V240.94c0,23.49,19.04,42.52,42.52,42.52H240.94c23.49,0,42.52-19.03,42.52-42.52V42.52c0-23.48-19.03-42.52-42.52-42.52Zm34.52,240.94c0,19.04-15.48,34.52-34.52,34.52H42.52c-19.03,0-34.52-15.48-34.52-34.52V42.52c0-19.03,15.49-34.52,34.52-34.52H240.94c19.04,0,34.52,15.49,34.52,34.52V240.94Z"/></g></g></svg>