<?xml version="1.0" encoding="UTF-8"?><svg id="Ebene_2" xmlns="http://www.w3.org/2000/svg" viewBox="0 0 283.46 283.46"><defs><style>.cls-1{fill:#306da5;}</style></defs><g id="dtp_diving_forbidden_regular"><g><path class="cls-1" d="M209.14,146.35c2.94,3,6.83,4.51,10.72,4.51s7.57-1.42,10.49-4.28l.16-.16,2.96,2.14c2,1.44,4.79,.99,6.23-1.01l7.08-9.6c1.2-1.67,.82-4-.85-5.2l-5.04-3.63c-.19-3.51-1.59-6.97-4.24-9.69-5.79-5.92-15.29-6.02-21.21-.23l-6.08,5.95c-5.92,5.79-6.02,15.29-.23,21.21Z"/><path class="cls-1" d="M145.71,170.96l-4.93-4.93-10.76-10.76-.99-.99-38.43,16.6-57.93-5.9c-6.32-.64-11.96,3.95-12.6,10.27-.65,6.32,3.95,11.97,10.27,12.61l60.9,6.21c.39,.04,.78,.06,1.17,.06,1.56,0,3.11-.32,4.56-.94l11.06-4.78-15.64,12.55-55.57,11.45c-6.22,1.29-10.22,7.37-8.94,13.59,1.12,5.44,5.91,9.18,11.25,9.18,.77,0,1.55-.08,2.34-.24l58.27-12.01c1.79-.37,3.46-1.15,4.88-2.29l42.52-34.11c.17-.04,.35-.08,.52-.13l10.67-2.82-6.84-6.84-5.78-5.78Z"/><path class="cls-1" d="M182.74,138.88l-15.07,3.98,29.6,29.6c1.23-.77,2.36-1.67,3.35-2.69l15.77,18.74c1.64,1.95,4.04,3.03,6.5,3.03,.83,0,1.67-.12,2.49-.37l32.44-9.95c4.49-1.38,7.01-6.13,5.63-10.62-1.38-4.49-6.13-7.01-10.62-5.63l-27.06,8.3-24.54-29.17c-.74-.88-1.62-1.57-2.58-2.07,0,0,0,0-.01,0,0,0-.01,0-.02,0-.01,0-.02-.01-.03-.02-4.37-3.29-10.14-4.61-15.85-3.1Z"/><path class="cls-1" d="M122.95,149.11l.69-.22-6.44-6.44,1.38,4.38c.58,1.84,2.54,2.86,4.37,2.28Z"/><path class="cls-1" d="M183.79,115.27c-1.53-4.84-6.69-7.53-11.53-6l-29.03,9.15,18.47,18.47,17.53-5.52c4.84-1.53,7.53-6.69,6-11.53l-1.44-4.57Z"/><circle class="cls-1" cx="200.6" cy="115.83" r="6.44"/><path class="cls-1" d="M207.39,97.19c-1.23,.84-1.55,2.53-.71,3.76,.84,1.23,2.53,1.55,3.76,.71,1.23-.84,1.55-2.53,.71-3.76-.84-1.23-2.53-1.55-3.76-.71Z"/><path class="cls-1" d="M260.08,149.03c1.38-.95,1.74-2.83,.79-4.22-.95-1.38-2.83-1.74-4.22-.79-1.38,.95-1.74,2.83-.79,4.22,.95,1.38,2.83,1.74,4.22,.79Z"/><path class="cls-1" d="M240.94,0H42.52C19.03,0,0,19.04,0,42.52V240.94c0,23.49,19.03,42.52,42.52,42.52H240.94c23.48,0,42.52-19.03,42.52-42.52V42.52c0-23.48-19.04-42.52-42.52-42.52ZM42.52,8H240.94c19.04,0,34.52,15.48,34.52,34.52v43.64c-4.06-1.9-7.1-4.16-8.38-5.2l-3.51-2.83-3.52,2.83c-2.4,1.94-10.98,8.24-20.88,8.24s-18.49-6.3-20.88-8.24l-3.52-2.83-3.51,2.83c-2.4,1.94-10.99,8.24-20.88,8.24s-18.49-6.3-20.89-8.24l-3.51-2.83-3.52,2.83c-2.4,1.94-10.98,8.24-20.88,8.24s-18.49-6.3-20.88-8.24l-3.52-2.83-3.52,2.84c-.85,.69-2.47,1.92-4.66,3.22l8.12,8.12s.04-.03,.06-.04c5.26,3.54,14.07,8.13,24.4,8.13s19.14-4.59,24.4-8.13c5.26,3.54,14.07,8.13,24.4,8.13s19.13-4.59,24.39-8.13c5.26,3.54,14.07,8.13,24.4,8.13s19.14-4.59,24.4-8.13c2.96,1.99,7.04,4.31,11.89,5.96V240.94c0,5.19-1.15,10.12-3.22,14.55l-.03-.03-80.65-80.65L70.94,54.19l-15.29-15.29L27.97,11.22c4.43-2.07,9.36-3.22,14.55-3.22ZM240.94,275.46H42.52c-19.04,0-34.52-15.48-34.52-34.52V98.14c4.73-1.64,8.71-3.92,11.61-5.87,5.26,3.54,14.07,8.13,24.4,8.13s18.23-4.13,23.56-7.58l-8.15-8.15c-3.95,2.24-9.44,4.53-15.41,4.53-9.9,0-18.48-6.3-20.88-8.24l-3.52-2.83-3.51,2.84c-1.25,1.01-4.18,3.2-8.1,5.07V42.52c0-5.08,1.1-9.9,3.08-14.25l36.11,36.11,5.71,5.71,11.36,11.36,49.32,49.32,16.19,16.19,.32,.32,4.65,4.65c-.17,.07-.33,.16-.49,.25,.2-.05,.4-.1,.6-.14l23.85,23.85,6.01,6.01,90.39,90.39,.09,.09c-4.35,1.98-9.17,3.08-14.25,3.08Z"/></g></g></svg>