<?xml version="1.0" encoding="UTF-8"?><svg id="Ebene_2" xmlns="http://www.w3.org/2000/svg" viewBox="0 0 283.46 283.46"><defs><style>.cls-1{fill:#306da5;}</style></defs><g id="dtp_diving_allowed_regular"><g><path class="cls-1" d="M257.83,181.33l-32.44,9.95c-.82,.25-1.66,.37-2.49,.37-2.47,0-4.87-1.07-6.51-3.03l-15.78-18.75c-2.25,2.29-5.1,4.03-8.43,4.9l-44.52,11.75c-.17,.04-.33,.08-.5,.12l-42.54,34.12c-1.42,1.14-3.09,1.92-4.88,2.29l-58.27,12.01c-.79,.16-1.57,.24-2.34,.24-5.34,0-10.13-3.74-11.25-9.18-1.28-6.22,2.72-12.3,8.94-13.59l55.57-11.45,15.66-12.56-11.08,4.79c-1.45,.62-3,.94-4.56,.94-.39,0-.78-.02-1.17-.06l-60.9-6.21c-6.32-.64-10.92-6.29-10.27-12.61,.64-6.32,6.28-10.91,12.6-10.27l57.93,5.9,41.96-18.12c.55-.24,1.12-.42,1.69-.56,1.24-.66,2.56-1.2,3.97-1.58l44.52-11.74c5.67-1.5,11.42-.18,15.78,3.07,1.01,.51,1.94,1.22,2.71,2.14l24.55,29.17,27.06-8.3c4.49-1.38,9.24,1.14,10.62,5.63,1.38,4.49-1.15,9.24-5.63,10.62Z"/><path class="cls-1" d="M179.23,131.49l-56.28,17.74c-1.83,.58-3.79-.44-4.37-2.28l-4.87-15.46c-.58-1.83,.44-3.79,2.27-4.36l56.28-17.74c4.84-1.53,10,1.16,11.53,6l1.44,4.57c1.53,4.84-1.16,10-6,11.53Z"/><path class="cls-1" d="M204.24,121.26c-2.94,2.01-6.94,1.26-8.95-1.67-2.01-2.94-1.25-6.94,1.68-8.95,2.93-2.01,6.94-1.26,8.94,1.68,2.01,2.93,1.26,6.94-1.67,8.94Z"/><path class="cls-1" d="M210.44,101.78c-1.23,.84-2.92,.52-3.76-.71-.84-1.23-.53-2.92,.71-3.76,1.23-.85,2.91-.53,3.76,.7,.84,1.24,.52,2.92-.71,3.77Z"/><path class="cls-1" d="M260.08,149.15c-1.38,.94-3.27,.59-4.22-.79-.94-1.39-.59-3.27,.79-4.22,1.39-.95,3.28-.59,4.22,.79,.95,1.38,.59,3.27-.79,4.22Z"/><path class="cls-1" d="M246.78,138.06l-7.08,9.61c-1.44,2-4.23,2.45-6.23,1.01l-2.96-2.14-.16,.16c-2.92,2.86-6.71,4.28-10.49,4.28s-7.79-1.51-10.72-4.51c-5.8-5.92-5.7-15.42,.23-21.21l6.07-5.95c5.92-5.79,15.42-5.69,21.21,.23,2.66,2.71,4.06,6.18,4.25,9.69l5.04,3.63c1.67,1.2,2.05,3.53,.84,5.2Z"/><path class="cls-1" d="M240.94,0H42.52C19.04,0,0,19.04,0,42.52V240.94c0,23.49,19.04,42.52,42.52,42.52H240.94c23.49,0,42.52-19.03,42.52-42.52V42.52c0-23.48-19.03-42.52-42.52-42.52Zm34.52,240.94c0,19.04-15.48,34.52-34.52,34.52H42.52c-19.03,0-34.52-15.48-34.52-34.52V98.26c4.72-1.65,8.71-3.91,11.61-5.87,5.26,3.54,14.07,8.13,24.4,8.13s19.13-4.58,24.39-8.12c5.26,3.54,14.07,8.12,24.39,8.12s19.14-4.59,24.39-8.13c5.26,3.54,14.07,8.13,24.4,8.13s19.14-4.59,24.4-8.13c5.26,3.54,14.07,8.13,24.4,8.13s19.13-4.59,24.39-8.13c5.26,3.54,14.07,8.13,24.4,8.13s19.14-4.59,24.4-8.13c2.96,1.99,7.05,4.31,11.89,5.96V240.94Zm0-154.66c-4.05-1.9-7.1-4.17-8.38-5.2l-3.51-2.83-3.52,2.83c-2.4,1.94-10.98,8.24-20.88,8.24s-18.49-6.3-20.88-8.24l-3.52-2.83-3.51,2.83c-2.4,1.94-10.99,8.24-20.88,8.24s-18.49-6.3-20.89-8.24l-3.51-2.83-3.52,2.83c-2.4,1.94-10.98,8.24-20.88,8.24s-18.49-6.3-20.88-8.24l-3.52-2.83-3.52,2.84c-2.39,1.93-10.97,8.23-20.87,8.23s-18.49-6.3-20.89-8.24l-3.49-2.81v-.02h0s-.01,0-.01,0v.02l-3.5,2.81c-2.39,1.94-10.98,8.24-20.88,8.24s-18.48-6.3-20.88-8.24l-3.52-2.83-3.51,2.84c-1.25,1-4.18,3.2-8.1,5.07V42.52c0-19.03,15.49-34.52,34.52-34.52H240.94c19.04,0,34.52,15.49,34.52,34.52v43.76Z"/></g></g></svg>