<?xml version="1.0" encoding="UTF-8"?><svg id="Ebene_2" xmlns="http://www.w3.org/2000/svg" viewBox="0 0 226.77 226.77"><defs><style>.cls-1{fill:#306da5;}</style></defs><g id="dtp_forbidden_regular_1"><path class="cls-1" d="M113.38,0C50.76,0,0,50.76,0,113.38s50.76,113.39,113.38,113.39,113.39-50.77,113.39-113.39S176,0,113.38,0Zm55.73,155.67c3.71,3.71,3.71,9.73,0,13.44-1.86,1.85-4.29,2.78-6.72,2.78s-4.86-.93-6.72-2.78l-42.29-42.29-42.29,42.29c-1.86,1.85-4.29,2.78-6.72,2.78s-4.86-.93-6.71-2.78c-3.71-3.71-3.71-9.73,0-13.44l42.29-42.29-42.29-42.29c-3.71-3.71-3.71-9.72,0-13.43,3.71-3.71,9.72-3.71,13.43,0l42.29,42.29,42.29-42.29c3.71-3.71,9.73-3.71,13.44,0s3.71,9.72,0,13.43l-42.29,42.29,42.29,42.29Z"/></g></svg>