<?xml version="1.0" encoding="UTF-8"?><svg id="Ebene_2" xmlns="http://www.w3.org/2000/svg" viewBox="0 0 279.96 279.97"><defs><style>.cls-1{fill:#306da5;}</style></defs><g id="dtp_clock_filled"><g><path class="cls-1" d="M140.51,41.84c-54.2,0-98.3,44.1-98.3,98.3s44.1,98.3,98.3,98.3,98.3-44.09,98.3-98.3-44.09-98.3-98.3-98.3Zm78.35,107.3c-4.96,0-9-4.04-9-9s4.04-8.99,9-8.99,8.99,4.03,8.99,8.99-4.03,9-8.99,9Zm-155.85,0c-4.96,0-9-4.04-9-9s4.04-8.99,9-8.99,8.99,4.03,8.99,8.99-4.03,9-8.99,9Zm77.5,74.69c-4.96,0-8.99-4.04-8.99-9s4.03-8.99,8.99-8.99,9,4.03,9,8.99-4.04,9-9,9Zm50.41-99.91l-49.71,34.49c-1.28,.89-2.77,1.34-4.27,1.34-1.19,0-2.39-.28-3.48-.86-2.47-1.29-4.02-3.85-4.02-6.64V70.33c0-4.14,3.36-7.5,7.5-7.5s7.5,3.36,7.5,7.5v67.59l37.93-26.32c3.4-2.36,8.07-1.52,10.43,1.89,2.37,3.4,1.52,8.07-1.88,10.43Z"/><path class="cls-1" d="M139.98,0C62.67,0,0,62.68,0,139.99s62.67,139.98,139.98,139.98,139.98-62.67,139.98-139.98S217.29,0,139.98,0Zm.53,254.44c-63.02,0-114.3-51.27-114.3-114.3S77.49,25.84,140.51,25.84s114.3,51.28,114.3,114.3-51.27,114.3-114.3,114.3Z"/></g></g></svg>