<?xml version="1.0" encoding="UTF-8"?><svg id="Ebene_2" xmlns="http://www.w3.org/2000/svg" viewBox="0 0 283.46 283.46"><defs><style>.cls-1{fill:#306da5;}</style></defs><g id="dtp_forbidden_regular"><g><path class="cls-1" d="M223.79,59.67c-4.49-4.49-11.77-4.49-16.26,0l-64.79,64.79L77.94,59.67c-4.49-4.49-11.77-4.49-16.26,0-4.49,4.49-4.49,11.77,0,16.26l64.79,64.79L61.67,205.53c-4.49,4.49-4.49,11.77,0,16.26,2.25,2.25,5.19,3.37,8.13,3.37s5.89-1.12,8.13-3.37l64.79-64.79,64.79,64.79c2.25,2.25,5.19,3.37,8.13,3.37s5.89-1.12,8.13-3.37c4.49-4.49,4.49-11.77,0-16.26l-64.79-64.79,64.79-64.79c4.49-4.49,4.49-11.77,0-16.26Z"/><path class="cls-1" d="M240.94,0H42.52C19.04,0,0,19.04,0,42.52V240.94c0,23.48,19.04,42.52,42.52,42.52H240.94c23.48,0,42.52-19.04,42.52-42.52V42.52c0-23.48-19.04-42.52-42.52-42.52Zm34.52,240.94c0,19.03-15.49,34.52-34.52,34.52H42.52c-19.03,0-34.52-15.49-34.52-34.52V42.52c0-19.03,15.49-34.52,34.52-34.52H240.94c19.03,0,34.52,15.49,34.52,34.52V240.94Z"/></g></g></svg>