<?xml version="1.0" encoding="UTF-8"?><svg id="Ebene_2" xmlns="http://www.w3.org/2000/svg" viewBox="0 0 283.47 283.46"><defs><style>.cls-1{fill:#306da5;}</style></defs><g id="dtp_standuppaddling_forbidden_regular"><g><path class="cls-1" d="M126.39,221.28c-24.51,.36-47.87-.56-65.95-.25l-24,19.25c2.44,.61,5.39,.99,8.99,.99,8.54,0,18.48-6.31,20.88-8.24l3.51-2.84,3.52,2.84c2.4,1.93,10.98,8.24,20.88,8.24s18.49-6.31,20.88-8.24l3.52-2.84,3.51,2.84c2.4,1.93,10.99,8.24,20.89,8.24s18.48-6.31,20.88-8.24l3.51-2.84,3.52,2.84c2.4,1.93,10.98,8.24,20.88,8.24,7.46,0,14.17-3.58,18.05-6.17l-5.18-5.18c-2.21,1.94-4.94,3.2-7.92,3.64-1.02,.15-2.05,.19-3.07,.14-7.32-.39-13.41-5.95-14.47-13.21l-.21-1.47h-.01c-6.82,.33-13.79,.7-20.83,1.07l-.74,3.01c-3.38,12.99-20.26,10.81-17.4,10.98-1.08-.11-1.46-.21-2.55-.54-3.66-1.11-7.59-4.66-9.4-8.05-.86-1.63-1.44-2.91-1.69-4.21Z"/><path class="cls-1" d="M244.17,219.35l15.24,15.24c.91-.64,1.61-1.18,2.08-1.56l.54-.44c5.46-2.84-4.78-10.87-15.22-12.8-.85-.16-1.73-.3-2.64-.44Z"/><path class="cls-1" d="M158.26,55.49c.11,0,.23,0,.34,0,8.13,0,14.81-6.5,14.99-14.67l.17-7.87c.18-8.28-6.38-15.15-14.67-15.33-8.27-.17-15.14,6.38-15.33,14.67l-.17,7.87c-.18,8.28,6.38,15.15,14.67,15.33Z"/><path class="cls-1" d="M194.11,229.91c.49,0,.97-.03,1.46-.09,2.39-.3,4.52-1.32,6.2-2.81l-20.77-20.77,1.72,13.62c.74,5.81,5.69,10.05,11.39,10.05Z"/><path class="cls-1" d="M233.76,54.53c-.31-.55-.68-1.05-1.09-1.5l-36.38,32.53,34.27-19.45c4.08-2.31,5.51-7.5,3.2-11.58Z"/><path class="cls-1" d="M176,103.7l-19.32,17.27-5.75,5.14,1.4,1.4,7.54,7.54,6.39,6.39,34.02,34.02-.29-2.31c-.2-1.56-.71-3.06-1.5-4.4l-24.24-41.07c.05-.38,.09-.76,.12-1.15l1.63-22.83Z"/><path class="cls-1" d="M126.91,97.73l8.9-6.85-1.34,18.77,7.26,7.26,35.61-31.85,.21-2.97,2.22,.8,22.96-20.53-11.58,6.57-25.14-9.1c-.12-.04-.23-.08-.35-.11-.01-.01-.03-.01-.04-.02-2.12-.95-4.44-1.55-6.89-1.72-6.5-.47-12.51,2.15-16.6,6.62-.14,.09-.28,.19-.42,.3l-29.38,22.61,16.59,16.59-2.01-6.37Z"/><path class="cls-1" d="M130.75,214.82c-.65,2.16-.64,4.36-.07,6.38,1.01,3.7,3.83,6.8,7.76,7.99,.78,.24,1.58,.39,2.36,.46,5.3,.44,10.37-2.86,11.97-8.17l.31-1.14,9.02-33-10.84-10.84-10.74-10.74,1.12,9.01-9.45,34.76-1.44,5.29Z"/><path class="cls-1" d="M69.79,185.29l-1.59,1.42c-.44,.4-.76,.88-.95,1.4-.33,.91-.28,1.93,.17,2.8h0c.13,.28,.3,.52,.51,.75,.15,.17,.31,.31,.48,.45,0,0,0,.01,0,.01,.62,.46,1.37,.7,2.12,.7,.25,0,.5-.03,.75-.08,.57-.12,1.11-.39,1.58-.81l1.57-1.4,47.96-42.89-4.96-4.96-47.65,42.61Z"/><path class="cls-1" d="M177.03,89.4l-30.01,26.83-3.15,2.82,4.96,4.96,5.81-5.19,21.67-19.38,14.31-12.79,39.66-35.47,17.31-15.47c1.44-1.29,1.56-3.5,.28-4.94-1.29-1.44-3.5-1.56-4.95-.28l-27.75,24.81-32.17,28.76-5.97,5.34Z"/><path class="cls-1" d="M64.32,190.06c-.25,0-.5,.02-.76,.06-1.19,.18-2.52,.45-3.94,.78-7.57,1.78-17.59,5.46-21.44,8.67-7.44,6.22-22.18,19.96-22.18,19.96,0,0,.65,10.52,10.12,15.47t0,.01c2.12,1.1,4.67,1.93,7.76,2.3l19.75-15.84h.01l4.76-3.82,8.12-17.28h.01l1.8-3.84c.12-.26,.22-.53,.28-.79,.05-.14,.08-.29,.09-.43-1.04-.34-2.02-.96-2.81-1.84-.86-.96-1.38-2.11-1.56-3.29,0,0,.03-.12-.02-.12Z"/><path class="cls-1" d="M240.95,0H42.52C19.04,0,0,19.04,0,42.52V240.94c0,23.49,19.04,42.52,42.52,42.52H240.95c23.48,0,42.52-19.03,42.52-42.52V42.52c0-23.48-19.04-42.52-42.52-42.52Zm0,275.46H42.52c-12.3,0-23.12-6.47-29.24-16.19,2.96-1.36,5.51-2.87,7.53-4.24,5.26,3.55,14.07,8.14,24.4,8.14s19.13-4.59,24.39-8.13c5.26,3.54,14.06,8.13,24.38,8.13s19.14-4.59,24.4-8.14c5.26,3.55,14.07,8.14,24.4,8.14s19.14-4.59,24.4-8.14c5.25,3.55,14.07,8.14,24.39,8.14s19.14-4.59,24.4-8.14c4.82,3.25,12.63,7.38,21.86,8.04l-22.04-22.04-3.34,2.7c-2.39,1.93-10.98,8.24-20.88,8.24s-18.48-6.31-20.88-8.24l-3.52-2.84-3.51,2.84c-2.4,1.93-10.98,8.24-20.88,8.24s-18.49-6.31-20.88-8.24l-3.52-2.84-3.52,2.84c-2.39,1.93-10.98,8.24-20.88,8.24s-18.48-6.31-20.88-8.24l-3.49-2.82v-.02h0s-.01,0-.01,0v.02l-3.5,2.82c-2.39,1.93-10.98,8.24-20.88,8.24s-18.49-6.31-20.88-8.24l-3.52-2.84-3.51,2.84c-1.28,1.03-4.31,3.3-8.36,5.2-.62-2.57-.94-5.24-.94-7.99V42.52c0-5.08,1.1-9.91,3.08-14.26l36.12,36.12,5.71,5.71,68.79,68.79,4.96,4.96,3.44,3.44,9.27,9.27,11.73,11.73,7.61,7.61,75.24,75.24,11.65,11.65,9.51,9.51,.09,.09c-4.34,1.98-9.17,3.08-14.25,3.08Zm34.52-34.52c0,3.13-.42,6.17-1.21,9.06l-.02-.02c-.52,1.9-1.19,3.73-2.02,5.48l-11.39-11.39-121.21-121.21-2.15-2.15-3.54-3.54-62.98-62.98-15.29-15.29L27.98,11.22c4.42-2.07,9.35-3.22,14.54-3.22H240.95c19.03,0,34.52,15.48,34.52,34.52V240.94Z"/></g></g></svg>