<?xml version="1.0" encoding="UTF-8"?><svg id="Ebene_2" xmlns="http://www.w3.org/2000/svg" viewBox="0 0 283.46 283.46"><defs><style>.cls-1{fill:none;}.cls-2{fill:#306da5;}</style></defs><g id="dtp_disposingofwaste_allowed_regular"><g><path class="cls-1" d="M60.74,223.31c-.81-2.39-3.79-3.19-5.68-1.52l-7.7,6.75c-1.58,1.39-.7,3.99,1.4,4.13l10.22,.67c2.52,.17,4.39-2.28,3.58-4.67l-1.82-5.36Z"/><path class="cls-1" d="M240.94,8H42.52c-19.03,0-34.52,15.49-34.52,34.52V240.94c0,19.03,15.49,34.52,34.52,34.52H240.94c19.03,0,34.52-15.49,34.52-34.52V42.52c0-19.03-15.49-34.52-34.52-34.52Zm-57.15,45.21l1.17-8.17c1.18-8.2,8.77-13.9,16.98-12.71,8.2,1.18,13.89,8.78,12.71,16.98l-1.17,8.17c-1.07,7.48-7.49,12.87-14.83,12.87-.71,0-1.43-.05-2.15-.15-8.2-1.18-13.89-8.78-12.71-16.98Zm-115.08,39.95l.48,32.5s21.61,2.09,21.66,5.71c.05,3.61,.3,20.48,.3,20.48l18.25-6.29,14.44,28.71-50.69,.74-4.72-27.65-17.19,5.07-.43-29.5,17.9-29.77Zm-30.55,140.8c-4.24-12.5-1.6-24.69,5.9-27.24,7.5-2.55,17.02,5.52,21.26,18.02,4.24,12.5,1.6,24.69-5.9,27.24-7.5,2.55-17.02-5.52-21.26-18.02Zm80.78-2.19l-22.74,7.72-6.21-3.78-24.94,13.78c-.81,.64-1.71,1.15-2.69,1.49l2.69-1.49c5.38-4.27,6.89-14.89,3.21-25.75-4.24-12.5-13.76-20.56-21.26-18.02l24.14-8.19,21.94,5.17,10.49-16.18c7.5-2.55,17.02,5.52,21.26,18.02,4.24,12.5,1.6,24.69-5.9,27.24Zm132.12-73.32c-1.66,1.68-3.85,2.52-6.04,2.52s-4.32-.82-5.98-2.46l-26.14-25.9c-.69-.69-1.26-1.48-1.68-2.36l-4.32-9-1.56,24.76c.21,.29,.41,.59,.59,.91l21.47,36.78c1.32,2.27,1.83,4.92,1.44,7.51l-8.15,53.95c-.86,5.7-5.76,9.78-11.36,9.78-.57,0-1.15-.04-1.73-.13-6.28-.95-10.6-6.81-9.65-13.09l7.54-49.94-10.04-17.21-1.23,17.92c-.11,1.56-.53,3.08-1.24,4.47l-25,48.67c-2.04,3.97-6.06,6.25-10.24,6.25-1.77,0-3.56-.41-5.24-1.27-5.65-2.9-7.88-9.83-4.98-15.48l23.92-46.57,2.2-32.01c-1.13-2.42-1.7-5.16-1.52-8.02l2.88-45.69-16.76,12.59c-1.51,1.14-3.31,1.7-5.11,1.7s-3.6-.57-5.11-1.71l-32.68-24.59c-3.75-2.82-4.5-8.15-1.68-11.9s8.15-4.5,11.9-1.68l27.57,20.75,27.62-20.75c.49-.37,1.02-.68,1.55-.92,3.06-2.36,6.95-3.68,11.11-3.42,7.04,.44,12.75,5.24,14.72,11.61l17.78,37.05,25.1,24.86c3.33,3.3,3.36,8.69,.06,12.02Z"/><path class="cls-2" d="M196.5,70.19c.72,.1,1.44,.15,2.15,.15,7.34,0,13.75-5.39,14.83-12.87l1.17-8.17c1.18-8.2-4.51-15.8-12.71-16.98-8.21-1.18-15.8,4.52-16.98,12.71l-1.17,8.17c-1.18,8.2,4.51,15.8,12.71,16.98Z"/><path class="cls-2" d="M240.94,0H42.52C19.04,0,0,19.04,0,42.52V240.94c0,23.48,19.04,42.52,42.52,42.52H240.94c23.48,0,42.52-19.04,42.52-42.52V42.52c0-23.48-19.04-42.52-42.52-42.52Zm34.52,240.94c0,19.03-15.49,34.52-34.52,34.52H42.52c-19.03,0-34.52-15.49-34.52-34.52V42.52c0-19.03,15.49-34.52,34.52-34.52H240.94c19.03,0,34.52,15.49,34.52,34.52V240.94Z"/><path class="cls-2" d="M225.9,121.57l-17.78-37.05c-1.97-6.36-7.68-11.16-14.72-11.61-4.16-.26-8.05,1.05-11.11,3.42-.54,.25-1.06,.55-1.55,.92l-27.62,20.75-27.57-20.75c-3.75-2.82-9.08-2.07-11.9,1.68s-2.07,9.08,1.68,11.9l32.68,24.59c1.51,1.14,3.31,1.71,5.11,1.71s3.59-.57,5.11-1.7l16.76-12.59-2.88,45.69c-.18,2.86,.38,5.59,1.52,8.02l-2.2,32.01-23.92,46.57c-2.9,5.65-.67,12.58,4.98,15.48,1.68,.86,3.48,1.27,5.24,1.27,4.17,0,8.2-2.28,10.24-6.25l25-48.67c.71-1.39,1.14-2.91,1.24-4.47l1.23-17.92,10.04,17.21-7.54,49.94c-.95,6.28,3.37,12.14,9.65,13.09,.58,.09,1.16,.13,1.73,.13,5.59,0,10.5-4.09,11.36-9.78l8.15-53.95c.39-2.6-.12-5.25-1.44-7.51l-21.47-36.78c-.18-.32-.38-.62-.59-.91l1.56-24.76,4.32,9c.42,.88,.99,1.68,1.68,2.36l26.14,25.9c1.66,1.64,3.82,2.46,5.98,2.46s4.38-.84,6.04-2.52c3.3-3.33,3.28-8.72-.06-12.02l-25.1-24.86Z"/><path class="cls-2" d="M65.06,249.49l-2.69,1.49c.98-.33,1.88-.84,2.69-1.49Z"/><path class="cls-2" d="M103.58,186.52l-10.49,16.18-21.94-5.17-24.14,8.19c7.5-2.55,17.02,5.52,21.26,18.02,3.69,10.86,2.17,21.48-3.21,25.75l24.94-13.78,6.21,3.78,22.74-7.72c7.5-2.55,10.14-14.74,5.9-27.24-4.24-12.5-13.76-20.56-21.26-18.02Z"/><path class="cls-2" d="M65.31,224.74c-4.24-12.5-13.76-20.56-21.26-18.02-7.5,2.55-10.14,14.74-5.9,27.24s13.76,20.56,21.26,18.02c7.5-2.55,10.14-14.74,5.9-27.24Zm-6.34,8.59l-10.22-.67c-2.1-.14-2.98-2.74-1.4-4.13l7.7-6.75c1.9-1.66,4.87-.87,5.68,1.52l1.82,5.36c.81,2.39-1.07,4.83-3.58,4.67Z"/><path class="cls-2" d="M68.42,147.36l4.72,27.65,50.69-.74-14.44-28.71-18.25,6.29s-.25-16.87-.3-20.48c-.05-3.61-21.66-5.71-21.66-5.71l-.48-32.5-17.9,29.77,.43,29.5,17.19-5.07Z"/></g></g></svg>