<?xml version="1.0" encoding="UTF-8"?><svg id="Ebene_2" xmlns="http://www.w3.org/2000/svg" viewBox="0 0 283.46 283.46"><defs><style>.cls-1{fill:#306da5;}</style></defs><g id="dtp_cuttingorinjuringtrees_allowed_regular"><g><path class="cls-1" d="M240.94,8c19.03,0,34.52,15.49,34.52,34.52V240.94c0,19.03-15.49,34.52-34.52,34.52H42.52c-19.03,0-34.52-15.49-34.52-34.52V42.52C8,23.49,23.49,8,42.52,8H240.94m0-8H42.52C19.04,0,0,19.04,0,42.52V240.94c0,23.48,19.04,42.52,42.52,42.52H240.94c23.48,0,42.52-19.04,42.52-42.52V42.52c0-23.48-19.04-42.52-42.52-42.52h0Z"/><g><path class="cls-1" d="M262.36,86.7c-.66-1.71-2.01-2.84-3.52-3.24-1.21-.33-2.53-.19-3.65,.5l-25.25,15.45,3.29-14.92c.58-2.64-1.07-5.38-3.68-6.12-2.62-.74-5.21,.8-5.79,3.45l-5.18,23.53c-.08,.36-.11,.73-.11,1.09l-44.45,27.36c-6.16,2.78-9.59-3.99-10.72-14.91l-3.67-38.81,21.97-21.29c2.31-2.25,1.98-6.26-1.14-7.99-1.88-1.05-4.25-.57-5.8,.93l-16.02,15.52-3.88-48.57c-.18-2.39-1.93-4.49-4.29-4.78-1.77-.22-3.35,.49-4.37,1.69-.82,.96-1.27,2.24-1.17,3.61l2.35,30.75-11.54-10.22c-2.04-1.81-5.15-1.61-6.94,.45-1.79,2.06-1.59,5.19,.46,7l18.2,16.12c.28,.25,.58,.45,.9,.63l3.74,55.03h0c.06,7.81-.3,15.59-1.1,17.95-.91,2.69-2.88,5.57-7.5,4.17l-4.82-2.66-34.49-22.15-3.41-33.45c-.37-3.52-4.04-5.94-7.65-4.4-2.18,.93-3.37,3.31-3.13,5.67l2.48,24.39-44.43-29.4c-2.18-1.45-5.17-1.35-7.02,.51-1.39,1.39-1.85,3.25-1.51,4.94,.27,1.36,1.06,2.62,2.31,3.45l28.05,18.7-16.63,3.13c-2.94,.55-4.88,3.39-4.33,6.33,.55,2.95,3.39,4.88,6.34,4.33l26.22-4.94c.4-.08,.79-.2,1.15-.36l47.66,32.27c3.68,2.63,7.48,5.81,7.48,12.15,0,2.86-3.39,33.09-3.39,33.09l16.83,10.04-19.05,8.87-4.15,34.1c-12.95-12.8-28.51-26.77-38.9-37.74-1.13-1.19,2.98-2.33,1.91-3.46l-14.57-17.2-15.76,14.93,15.16,16.01c16.26,9.04,33.6,28.53,46.25,48.84,3.49,3.68,9.44,3.71,13.29,.07h0c.91-.86,1.62-1.86,2.13-2.92h41.28c1.97,0,3.51-1.69,3.32-3.65l-11.83-109.82c-.62-3.88,10.26-9.12,10.26-9.12l29.41-17.92,28.69,10.77c3.03,1.13,6.31-.91,6.31-4.49,0-2.17-1.53-4.11-3.55-4.87l-20.91-7.85,39.8-24.55c1.96-1.2,2.93-3.7,2.06-5.97Z"/><path class="cls-1" d="M46.81,154.15c-1.29-1.36-3.55-1.3-5.06,.12l-10.27,9.73c-1.51,1.43-1.68,3.68-.4,5.04l.38,.4,15.72-14.89-.38-.4Z"/><path class="cls-1" d="M93.57,170.77c-4.55-5.04-9.09-10.14-13.51-15.1-5.2-5.84-10.57-11.86-15.92-17.76l-14.46,17.8-17.38,16.46,26.35,27.82,16.53-15.65,18.4-13.58Z"/><path class="cls-1" d="M94.58,170.02l15.76-11.63c-8.56-16.68-17.63-26.26-33.82-35.71l-11.57,14.25c5.39,5.95,10.8,12.02,16.05,17.91,4.45,4.99,9.02,10.11,13.59,15.18Z"/></g></g></g></svg>