<?xml version="1.0" encoding="UTF-8"?><svg id="Ebene_2" xmlns="http://www.w3.org/2000/svg" viewBox="0 0 283.46 283.46"><defs><style>.cls-1{fill:#306da5;}</style></defs><g id="dtp_paragliding_forbidden_regular"><g><path class="cls-1" d="M67.99,43.25c.26,.15,.52,.27,.76,.38-.08,.05-.15,.1-.21,.17l2.98,2.98-.46-2.22c-.06-.27-.18-.5-.35-.69,1.76-.25,3.53-.48,5.31-.67,2.47,.16,13.05,.98,28.22,4.06l-2.98,29.27,2.74,2.74,3.2-31.39c27.17,5.83,67.31,18.71,102.28,46.88l-.27,.28-44.47,44.97,2.12,2.12,44.67-45.17,.29-.29c7.31,6.08,14.37,12.84,21.02,20.36,.84,1.33,1.66,2.7,2.47,4.07-.33-.06-.68-.02-1,.15l-57.85,30.47,2.23,2.23,57.02-30.05c.49-.26,.78-.74,.8-1.26h0c3.86,2.75,15.36,4.13,17.1-4.74,0-.01-.02-.02-.02-.04,1.91-3.03-1.15-10.13-7.25-16.47-.3-.31-.6-.6-.9-.89-2.83,2.76-7.81,6.96-14.94,10.84-.3-.58-.62-1.17-.95-1.76,6.82-3.73,11.66-7.79,14.41-10.45-.1-.08-.19-.18-.28-.26-.51-3.55-3.32-8.52-7.73-13.1-2.06-2.15-4.22-3.92-6.3-5.3-2.31,2.83-6.46,7.29-12.66,11.77-.44-.5-.9-1.01-1.35-1.51,5.92-4.27,9.99-8.57,12.28-11.33,0,0,0,0-.01,0-.81-3.49-4.56-8.26-10.04-12.28-2.55-1.87-5.14-3.32-7.55-4.33-1.98,3.22-5.38,7.96-10.51,12.97-.52-.42-1.04-.85-1.57-1.27,5.31-5.16,8.75-10.09,10.65-13.23-1.77-3.02-5.32-6.47-9.94-9.36-3.03-1.89-6.07-3.27-8.79-4.07-1.55,3.19-4.59,8.54-9.71,14.42-.59-.35-1.17-.69-1.76-1.04,5.34-6.09,8.43-11.68,9.88-14.72-3.37-4.58-22.12-13.85-29.26-14.08-1.52,3.43-3.76,9.51-4.9,17.5-.64-.23-1.28-.47-1.93-.69,1.1-7.48,3.11-13.26,4.64-16.84-2.42-1.73-5.62-3.35-9.27-4.57-4.77-1.59-9.33-2.18-12.73-1.82-1.28,3.8-2.88,9.93-3.32,17.64-.65-.13-1.31-.25-1.97-.37,.43-7.22,1.82-13.04,3.06-16.94-2.43-1.36-5.45-2.57-8.82-3.42-5.98-1.51-11.52-1.54-14.89-.33-.71,3.9-1.45,10.39-.7,18.38-.67-.03-1.34-.05-2.02-.07-.73-7.88-.05-14.26,.66-18.28-2.57-.88-5.61-1.53-8.95-1.78-5.92-.45-11.22,.38-14.39,2.02-.28,4.15-.27,10.91,1.48,18.98-.66,.07-1.33,.14-1.99,.23-1.75-8.07-1.8-14.78-1.52-19.05-.74-.1-1.48-.18-2.25-.24-8.78-.68-16.2,1.48-17.32,4.88-.01,0-.03,0-.04,.01-2.09,3.57-1.12,7.51,.85,10.62,1.42,2.24,3.35,4.06,5.01,5.01Z"/><path class="cls-1" d="M110.17,172.54c.11,.05,.22,.1,.33,.15,5.63,2.44,12.19-.14,14.64-5.78l2.32-5.36c1.26-2.89,1.18-6.03,.04-8.72l-5.98-5.99c-5.6-2.33-12.05,.26-14.48,5.85l-2.32,5.36c-2.4,5.53,.04,11.94,5.45,14.49Z"/><path class="cls-1" d="M89.75,207.19c1.56-3.54,0-7.69-3.58-9.23-1.55-.68-3.21-.76-4.72-.33-1.94,.55-3.63,1.93-4.51,3.91l-15.89,36.05c-1.54,3.49-.01,7.54,3.42,9.16,.05,.02,.11,.05,.16,.07,3.54,1.56,7.67-.04,9.23-3.58l10.25-23.25,5.64-12.8Z"/><path class="cls-1" d="M107.74,208.58c-3.54-1.56-7.67,.05-9.23,3.58l-5.36,12.15-10.53,23.9c-1.53,3.49-.01,7.54,3.42,9.16,.05,.02,.11,.05,.16,.07,3.54,1.56,7.67-.04,9.23-3.58l15.89-36.05c.91-2.06,.76-4.32-.23-6.16-.71-1.32-1.85-2.42-3.35-3.07Z"/><path class="cls-1" d="M152.74,178.06c-.42-.68-.97-1.31-1.64-1.83-.2-.15-.4-.3-.61-.42h-.01c-3.01-1.88-6.99-1.21-9.21,1.65l-11.46,14.75-8.87-7.84,24.96-13.15-2.23-2.22-7.05,3.71,5.35-5.41-2.12-2.12-18.94,19.16-4.1-3.62c-.79-.71-1.51-1.33-2.15-1.85-4.06-3.63-7.64-5.01-14.68-6.08l-5.42-.86,4.81-47.23-2.73-2.74-3.13,30.71-8.87-42.7-3.87-3.87,13.67,65.81-11.59-1.84,4.09-18.23c.84-3.78-1.53-7.52-5.3-8.36-3.78-.85-7.52,1.52-8.37,5.3l-5.71,25.51c-.43,1.88-.05,3.86,1.04,5.46,1.08,1.6,2.78,2.68,4.69,2.98l13.72,2.17-3.28,7.01c1.44,.09,2.87,.43,4.26,1.04,.08,.03,.22,.09,.36,.16,5.18,2.44,7.9,7.87,7.07,13.26,3.57-3.93,9.39-5.33,14.5-3.08,.09,.04,.21,.09,.33,.15,1.3,.61,2.45,1.42,3.42,2.36l3.03-6.49,9.42,8.33c1.29,1.14,2.94,1.76,4.64,1.76,.21,0,.43,0,.65-.03,1.92-.18,3.69-1.15,4.87-2.68l16.05-20.64c1.84-2.37,1.92-5.56,.42-7.98h-.01Z"/><path class="cls-1" d="M240.94,0H42.52C19.04,0,0,19.04,0,42.52V240.94c0,23.49,19.04,42.52,42.52,42.52H240.94c23.49,0,42.52-19.03,42.52-42.52V42.52c0-23.48-19.03-42.52-42.52-42.52Zm0,8c19.03,0,34.52,15.49,34.52,34.52V240.94c0,5.21-1.17,10.16-3.25,14.59l-.11-.11L103.25,86.57l-2.73-2.73-26.89-26.89-3.87-3.87L27.93,11.25c4.44-2.08,9.38-3.25,14.59-3.25H240.94ZM42.52,275.46c-19.03,0-34.52-15.49-34.52-34.52V42.52c0-5.06,1.1-9.86,3.07-14.19L78.66,95.92l3.87,3.87,14.85,14.85,48.6,48.6,2.97,2.97,2.23,2.23,103.82,103.82,.13,.13c-4.33,1.96-9.14,3.07-14.19,3.07H42.52Z"/></g></g></svg>