<?xml version="1.0" encoding="UTF-8"?><svg id="Ebene_2" xmlns="http://www.w3.org/2000/svg" viewBox="0 0 283.46 283.46"><defs><style>.cls-1{fill:#306da5;}</style></defs><g id="dtp_designatedpathsplaces_allowed_regular"><g><polygon class="cls-1" points="201.26 53.46 59.54 53.46 28.87 77.66 59.54 101.85 201.26 101.85 201.26 53.46"/><polygon class="cls-1" points="89.78 112.53 89.78 160.92 231.5 160.92 262.17 136.72 231.5 112.53 89.78 112.53"/><rect class="cls-1" x="142.33" y="170.05" width="16.08" height="93.58"/><path class="cls-1" d="M158.41,33.88c0-4.91-3.6-8.88-8.04-8.88s-8.04,3.98-8.04,8.88v9.15l15.52-.05,.57-9.11Z"/><path class="cls-1" d="M240.94,0H42.52C19.04,0,0,19.04,0,42.52V240.94c0,23.48,19.04,42.52,42.52,42.52H240.94c23.48,0,42.52-19.04,42.52-42.52V42.52c0-23.48-19.04-42.52-42.52-42.52Zm34.52,240.94c0,19.03-15.49,34.52-34.52,34.52H42.52c-19.03,0-34.52-15.49-34.52-34.52V42.52c0-19.03,15.49-34.52,34.52-34.52H240.94c19.03,0,34.52,15.49,34.52,34.52V240.94Z"/></g></g></svg>