<?xml version="1.0" encoding="UTF-8"?><svg id="Ebene_2" xmlns="http://www.w3.org/2000/svg" viewBox="0 0 283.46 283.46"><defs><style>.cls-1{fill:#306da5;}</style></defs><g id="dtp_standuppaddling_allowed_regular"><g id="Rahmen_100mm_15mm"><g><path class="cls-1" d="M246.8,219.79c-9.36-1.73-22.12-2.14-36.82-1.9,.09,3.44-.97,6.8-3.06,9.6-2.47,3.32-6.08,5.47-10.17,6.07-1.02,.15-2.05,.19-3.07,.14-7.32-.39-13.41-5.95-14.47-13.21l-.21-1.47h-.01c-6.82,.33-13.79,.7-20.83,1.07l-.74,3.01c-3.38,12.99-20.26,10.81-17.4,10.98-1.08-.11-1.46-.21-2.55-.54-3.66-1.11-7.59-4.66-9.4-8.05-.86-1.63-1.44-2.91-1.69-4.21-24.51,.36-47.87-.56-65.95-.25l-24,19.25c2.44,.61,5.39,.99,8.99,.99,8.54,0,18.48-6.31,20.88-8.24l3.51-2.84,3.52,2.84c2.4,1.93,10.98,8.24,20.88,8.24s18.49-6.31,20.88-8.24l3.52-2.84,3.51,2.84c2.4,1.93,10.99,8.24,20.89,8.24s18.48-6.31,20.88-8.24l3.51-2.84,3.52,2.84c2.4,1.93,10.98,8.24,20.88,8.24s18.49-6.31,20.88-8.24l3.52-2.84,3.51,2.84c2.4,1.93,10.99,8.24,20.88,8.24s18.49-6.31,20.89-8.24l.54-.44c5.46-2.84-4.78-10.87-15.22-12.8Z"/><path class="cls-1" d="M158.25,55.49c.11,0,.23,0,.34,0,8.13,0,14.81-6.5,14.99-14.67l.17-7.87c.18-8.28-6.38-15.15-14.67-15.33-8.27-.17-15.14,6.38-15.33,14.67l-.17,7.87c-.18,8.28,6.38,15.15,14.67,15.33Z"/><path class="cls-1" d="M233.75,54.53c-.31-.55-.68-1.05-1.09-1.5l-36.38,32.53,34.27-19.45c4.08-2.31,5.51-7.5,3.2-11.58Z"/><path class="cls-1" d="M120.97,135.45l12.45-11.13,1.46-1.3,42.45-37.96,.21-2.97,2.22,.8,22.96-20.53-11.58,6.57-25.14-9.1c-.12-.04-.23-.08-.35-.11-.01-.01-.03-.01-.04-.02-2.12-.95-4.44-1.55-6.89-1.72-6.5-.47-12.51,2.15-16.6,6.62-.14,.09-.28,.19-.42,.3l-29.87,22.98c-2.83,2.17-4,5.88-2.93,9.29l12.07,38.28Zm14.83-44.57l-2.04,28.58-6.86-21.73,8.9-6.85Z"/><path class="cls-1" d="M177.46,178.39l5.25,41.46c.74,5.81,5.69,10.06,11.39,10.06,.48,0,.97-.03,1.46-.09,6.3-.8,10.76-6.55,9.97-12.85l-5.55-43.82c-.2-1.55-.71-3.05-1.51-4.4l-24.24-41.07h0c.05-.38,.09-.76,.12-1.15l1.63-22.83-19.32,17.27-18.82,16.83-.74,.67,4.52,36.3-9.45,34.76-1.44,5.29c-.65,2.16-.64,4.36-.07,6.38,1.01,3.7,3.83,6.8,7.76,7.99,.78,.24,1.58,.39,2.36,.46,5.3,.44,10.37-2.86,11.97-8.17l.31-1.14,11.25-41.13c.45-1.47,.59-3.02,.43-4.55l-2.78-22.51h0s15.49,26.24,15.49,26.24Z"/><path class="cls-1" d="M67.41,190.92c.13,.27,.3,.51,.51,.74,.15,.17,.31,.31,.48,.45,0,0,0,.01,0,.01,.62,.46,1.37,.7,2.12,.7,.25,0,.5-.03,.75-.08,.57-.12,1.11-.39,1.58-.81l1.57-1.4,54.36-48.61,7.38-6.59,.49-.45,1.07-.95,16.9-15.11,21.67-19.38,14.31-12.79,39.66-35.47,17.31-15.47c1.44-1.29,1.56-3.5,.28-4.94-1.29-1.44-3.5-1.56-4.95-.28l-27.75,24.81-32.17,28.76-5.97,5.34-30.01,26.83-11.02,9.86-.11,.1-2.23,1.99-11.35,10.15-52.52,46.96-1.59,1.42c-.44,.4-.76,.88-.95,1.4-.33,.91-.28,1.93,.17,2.8h0Z"/><path class="cls-1" d="M53.64,221.47l4.76-3.82,8.12-17.28h.01l1.8-3.84c.12-.26,.22-.53,.28-.79,.05-.14,.08-.29,.09-.43-1.04-.34-2.02-.96-2.81-1.84-.86-.96-1.38-2.11-1.56-3.29,0,0,.03-.12-.02-.12-.25,0-.5,.02-.76,.06-1.19,.18-2.52,.45-3.94,.78-7.57,1.78-17.59,5.46-21.44,8.67-7.44,6.22-22.18,19.96-22.18,19.96,0,0,.65,10.52,10.12,15.47t0,.01c2.12,1.1,4.67,1.93,7.76,2.3l19.75-15.84h.01Z"/><path class="cls-1" d="M240.94,0H42.52C19.03,0,0,19.04,0,42.52V240.94c0,23.49,19.03,42.52,42.52,42.52H240.94c23.48,0,42.52-19.03,42.52-42.52V42.52c0-23.48-19.04-42.52-42.52-42.52Zm0,275.46H42.52c-12.31,0-23.13-6.47-29.24-16.19,2.96-1.36,5.5-2.88,7.52-4.24,5.26,3.55,14.07,8.14,24.4,8.14s19.13-4.59,24.39-8.13c5.26,3.54,14.06,8.13,24.38,8.13s19.14-4.59,24.4-8.14c5.26,3.55,14.07,8.14,24.4,8.14s19.14-4.59,24.4-8.14c5.25,3.55,14.07,8.14,24.39,8.14s19.14-4.59,24.4-8.14c5.26,3.55,14.07,8.14,24.4,8.14s19.14-4.59,24.39-8.14c1.64,1.11,3.63,2.32,5.91,3.45-6.01,10.16-17.08,16.98-29.72,16.98Zm34.52-34.52c0,3.13-.42,6.17-1.21,9.06-2.85-2.47-4.97-5.46-5.98-6.27l-3.52-2.84-3.51,2.84c-2.4,1.93-10.99,8.24-20.88,8.24s-18.49-6.31-20.88-8.24l-3.52-2.84-3.52,2.84c-2.39,1.93-10.98,8.24-20.88,8.24s-18.48-6.31-20.88-8.24l-3.52-2.84-3.51,2.84c-2.4,1.93-10.98,8.24-20.88,8.24s-18.49-6.31-20.88-8.24l-3.52-2.84-3.52,2.84c-2.39,1.93-10.98,8.24-20.88,8.24s-18.48-6.31-20.88-8.24l-3.49-2.82v-.02h0s-.01,0-.01,0v.02l-3.5,2.82c-2.39,1.93-10.98,8.24-20.88,8.24s-18.49-6.31-20.88-8.24l-3.52-2.84-3.51,2.84c-1.28,1.03-4.31,3.3-8.35,5.2-.62-2.57-.94-5.24-.94-7.99V42.52c0-19.04,15.48-34.52,34.52-34.52H240.94c19.04,0,34.52,15.48,34.52,34.52V240.94Z"/></g></g></g></svg>