<?xml version="1.0" encoding="UTF-8"?><svg id="Ebene_2" xmlns="http://www.w3.org/2000/svg" viewBox="0 0 283.46 283.46"><defs><style>.cls-1{fill:#306da5;}</style></defs><g id="dtp_nighttime_forbidden_regular"><g><path class="cls-1" d="M109.27,179.09c16.63,8.83,35,11.06,52.11,7.62L69.21,94.54c-6.65,33.06,8.75,67.92,40.06,84.55Z"/><path class="cls-1" d="M130.92,43.81c1.61-1.49,2.19-3.79,1.49-5.88-.99-2.92-4.16-4.5-7.08-3.51-15.87,4.34-29.84,13.53-40.07,26.1l27.41,27.41c-.11-15.98,5.99-31.99,18.25-44.12Z"/><path class="cls-1" d="M215.14,146.66c.93-1.77,.85-3.9-.22-5.59-1.65-2.61-5.11-3.39-7.72-1.74-9.89,6.4-21.44,9.78-33.22,9.74h-.17l21.61,21.61c7.89-6.41,14.65-14.48,19.72-24.02Z"/><path class="cls-1" d="M240.94,0H42.52C19.04,0,0,19.04,0,42.52V240.94c0,23.48,19.04,42.52,42.52,42.52H240.94c23.48,0,42.52-19.04,42.52-42.52V42.52c0-23.48-19.04-42.52-42.52-42.52Zm0,8c19.03,0,34.52,15.49,34.52,34.52V240.94c0,5.21-1.17,10.16-3.25,14.59l-.12-.12-81.27-81.27-25.76-25.76-51.74-51.74-31.54-31.54L27.93,11.25c4.44-2.08,9.38-3.25,14.59-3.25H240.94ZM8,240.94V42.52c0-5.06,1.1-9.86,3.07-14.19l59.74,59.74,97.05,97.05,87.14,87.14,.14,.14c-.5,.23-1.01,.44-1.52,.64-.03-.05-.07-.1-.1-.14-1.46,.58-2.96,1.06-4.51,1.43l-37.21-37.21c-20.42-10.92-44.4-16.94-70.07-16.94-46.63,0-87.72,19.89-111.88,52.87-12.78-5.06-21.85-17.54-21.85-32.1Z"/></g></g></svg>