<?xml version="1.0" encoding="UTF-8"?><svg id="Ebene_2" xmlns="http://www.w3.org/2000/svg" viewBox="0 0 283.46 283.46"><defs><style>.cls-1{fill:#306da5;}</style></defs><g id="dtp_cycling_allowed_regular"><g><path class="cls-1" d="M151,71.64c.9,.17,1.79,.25,2.68,.25,6.94,0,13.11-4.94,14.41-12.01l1.32-7.19c1.47-7.97-3.8-15.61-11.77-17.08-7.97-1.47-15.62,3.8-17.08,11.77l-1.32,7.19c-1.47,7.97,3.8,15.62,11.77,17.08Z"/><path class="cls-1" d="M68.89,155.86c-30.88,0-56,25.12-56,56s25.12,56,56,56,56-25.12,56-56-25.12-56-56-56Zm0,101.99c-25.36,0-46-20.63-46-46s20.63-46,46-46,46,20.63,46,46-20.63,46-46,46Z"/><path class="cls-1" d="M214.64,155.86c-3.09,0-6.12,.26-9.07,.75l-5.29-16.41c.52-.56,.96-1.21,1.31-1.95,.23-.48,.4-.98,.52-1.48h8.62c2.16,0,3.91-1.75,3.91-3.91s-1.75-3.91-3.91-3.91h-11.19c-.51-.43-1.08-.81-1.72-1.11l-10.1-4.74-15.38-8.12-17.14-31.92c-.23-.44-.51-.84-.8-1.21-1.41-2.33-3.42-4.34-5.97-5.76-7.79-4.32-17.61-1.5-21.93,6.29l-25.79,46.52c-2.98,5.37-2.56,11.71,.54,16.54,.65,1.49,1.64,2.85,2.98,3.96l34.06,28.21-12.95,38.91c-2.41,5.43,.03,11.78,5.46,14.2,1.42,.63,2.9,.93,4.36,.93,4.12,0,8.05-2.38,9.84-6.39l16.26-46.36c1.96-4.41,.74-9.58-2.97-12.65l-28.36-23.49,19.54-35.25,9.44,17.58c.78,1.46,1.98,2.65,3.44,3.42l1.87,.84c.13,.07,.27,.15,.41,.22l23.45,11,6.18,19.17c-20.82,8.17-35.6,28.45-35.6,52.14,0,30.88,25.12,56,56,56s56-25.12,56-56-25.12-56-56-56Zm0,101.99c-25.36,0-46-20.63-46-46,0-19.24,11.88-35.74,28.68-42.6l11.71,36.32c.78,2.52,3.1,4.14,5.61,4.14,.57,0,1.15-.08,1.73-.26,3.1-.95,4.84-4.23,3.88-7.33l-11.57-35.87c1.95-.25,3.94-.4,5.96-.4,25.36,0,46,20.63,46,46s-20.63,46-46,46Z"/><path class="cls-1" d="M240.94,0H42.52C19.04,0,0,19.04,0,42.52V240.94c0,23.48,19.04,42.52,42.52,42.52H240.94c23.48,0,42.52-19.04,42.52-42.52V42.52c0-23.48-19.04-42.52-42.52-42.52Zm34.52,240.94c0,19.03-15.49,34.52-34.52,34.52H42.52c-19.03,0-34.52-15.49-34.52-34.52V42.52c0-19.03,15.49-34.52,34.52-34.52H240.94c19.03,0,34.52,15.49,34.52,34.52V240.94Z"/></g></g></svg>