<?xml version="1.0" encoding="UTF-8"?><svg id="Ebene_2" xmlns="http://www.w3.org/2000/svg" viewBox="0 0 283.46 283.71"><defs><style>.cls-1{fill:#306da5;}</style></defs><g id="dtp_canyoning_allowed_regular"><g><path class="cls-1" d="M230.45,71.05c-8.45-5.48-19.74-3.07-25.22,5.38,0,0-.01,.02-.02,.03-.99,1.53-.5,3.57,1.01,4.58,0,0,0,0,0,0-4.48,6.9-2.51,16.13,4.4,20.61s16.13,2.51,20.61-4.4c0,0,0,0,0,0,1.54,.96,3.6,.57,4.59-.95,0,0,.01-.02,.02-.03,5.48-8.45,3.07-19.74-5.38-25.22Z"/><path class="cls-1" d="M240.94,0H42.52C19.04,0,0,19.04,0,42.52V240.94c0,23.48,19.04,42.52,42.52,42.52H201.32l3.45,.24,.02-.24h36.16c23.48,0,42.52-19.04,42.52-42.52V42.52c0-23.48-19.04-42.52-42.52-42.52Zm-73.54,8l20.65,84.04-14.13-6.95-13.25-19.44c-2.8-4.11-8.4-5.17-12.51-2.37-.57,.39-1.07,.83-1.51,1.31L127.21,8h40.19Zm-69.45,0h11.97c-1.7,4.4-4,12.43-2.23,20.45,2.23,10.09,10.32,17.49,12.75,19.52l3.56,2.97-1.98,4.2c-1.35,2.86-5.57,12.98-3.34,23.07,2.18,9.87,11.86,17.35,14.47,19.56l-.46-1.39,.46-9.19,13.34-10.36,13.87,20.36c.88,1.29,2.07,2.32,3.47,3.01l22.92,11.27-19.16,29.55-11.43-12.39c-2.47-2.68-6.15-3.89-9.73-3.22-3.58,.67-6.56,3.15-7.89,6.54l-13.54,34.63c-.1,.26-.18,.51-.26,.77l9.48-46.07-14.55-14.17,3.06-2.52c-4.76-4.8-12.77-13.89-14.99-23.95-2.33-10.53,.17-20.51,2.44-26.63-4.64-4.6-11.11-12.59-13.44-23.12-1.9-8.59-.59-16.81,1.19-22.87Zm28.46,168.76l-3.29-1.49,1.24-6.01c-.3,2.7,.46,5.37,2.05,7.49Zm-15.18,89.84c-.66,1.44-2.03,4.7-2.94,8.86h-11.5c.63-3.85,1.63-7.25,2.6-9.92-4.67-4.57-11.2-12.52-13.59-23.04-2.4-10.52,.03-20.51,2.27-26.65-4.67-4.57-11.2-12.52-13.59-23.03-2.4-10.52,.03-20.51,2.27-26.65-4.67-4.57-11.2-12.52-13.59-23.03-2.4-10.52,.03-20.51,2.27-26.65-4.67-4.57-11.2-12.52-13.59-23.03-2.4-10.51,.03-20.5,2.26-26.64-4.67-4.57-11.19-12.51-13.58-23.03-2.4-10.52,.03-20.51,2.27-26.65-2.16-2.11-4.71-4.97-7.06-8.45,2.21-.44,4.49-.68,6.82-.68h7.17c1.38,1.42,2.57,2.46,3.28,3.04l3.58,2.95-1.95,4.21c-1.33,2.87-5.48,13.02-3.18,23.1,2.3,10.08,10.44,17.42,12.88,19.43l3.56,2.93h.02s0,0,0,0h.01s-.01,.01-.02,.01l-1.94,4.19c-1.33,2.87-5.48,13.02-3.18,23.09,2.3,10.08,10.44,17.42,12.88,19.43l3.58,2.95-1.95,4.21c-1.33,2.87-5.48,13.02-3.18,23.1,2.3,10.08,10.44,17.42,12.88,19.43l3.58,2.95-1.95,4.21c-1.33,2.87-5.48,13.02-3.19,23.1,2.3,10.08,10.44,17.42,12.88,19.43l3.58,2.95-1.95,4.21c-1.33,2.87-5.48,13.02-3.19,23.09,2.3,10.08,10.44,17.42,12.88,19.43l3.58,2.95-1.95,4.21Zm13.39,8.86c.14-6.62,1.72-12.52,3.23-16.66-4.67-4.57-11.2-12.52-13.59-23.04-2.4-10.52,.03-20.51,2.27-26.65-4.67-4.57-11.2-12.52-13.59-23.03s.03-20.51,2.27-26.65c-4.67-4.57-11.2-12.52-13.59-23.03-2.4-10.52,.03-20.51,2.27-26.65-4.67-4.57-11.2-12.52-13.59-23.03-2.4-10.51,.03-20.5,2.26-26.64-4.67-4.57-11.19-12.51-13.58-23.03-2.4-10.52,.03-20.51,2.27-26.65-.73-.71-1.51-1.51-2.31-2.39h15.75l-1.6,3.46c-1.33,2.87-5.48,13.02-3.18,23.1,2.3,10.08,10.44,17.42,12.88,19.43l3.56,2.93h.02s0,0,0,0h.01s-.01,.01-.02,.01l-1.94,4.19c-1.33,2.87-5.48,13.02-3.18,23.09,2.3,10.08,10.44,17.42,12.88,19.43l3.58,2.95-1.95,4.21c-1.33,2.87-5.48,13.02-3.18,23.1,2.3,10.08,10.44,17.42,12.88,19.43l3.58,2.95-1.95,4.21c-1.33,2.87-5.48,13.02-3.19,23.1,2.3,10.08,10.44,17.42,12.88,19.43l3.58,2.95-1.95,4.21c-1.33,2.87-5.48,13.02-3.19,23.09,2.3,10.08,10.44,17.42,12.88,19.43l3.58,2.95-1.95,4.21c-.61,1.32-2.78,9.7-2.56,15.6h-12.51Zm73.79,0h-58.98l16.63-33.17-22.98-12.26,8.65-46.34-6.04-2.74c3.91-.31,7.49-2.79,9.01-6.69l7.39-18.89,9.72,10.54c.15,.16,.31,.31,.47,.46l-7.13,8.71c-.61,.74-1.11,1.56-1.5,2.44l-18.12,41.23c-2.35,5.34,.08,11.58,5.42,13.93,1.38,.61,2.83,.9,4.25,.9,4.07,0,7.94-2.36,9.68-6.32l17.54-39.9,17.75-21.68c.92-.8,1.75-1.72,2.44-2.79l.58-.9,.52-.64c.64-.78,1.14-1.63,1.52-2.51l6.67-10.29,3.8,15.47c-.15,1.15-.07,2.31,.22,3.42l-7.54,108.03Zm77.05-34.52c0,19.03-15.49,34.52-34.52,34.52h-35.6l7.09-101.59c.73,.19,1.47,.29,2.21,.29,3,0,5.94-1.5,7.65-4.24l13.03-20.9c1.74-2.79,1.82-6.31,.21-9.17l-13.94-24.8c-.12-.22-.26-.43-.4-.64-4.21-6.2-9.43-9.4-14.48-12.5-1.43-.88-2.92-1.79-4.42-2.79-.33-.22-.66-.41-1.01-.58l-5.11-2.51L174.52,8h66.42c19.03,0,34.52,15.49,34.52,34.52V240.94Zm-68.37-100.36l4.39-6.76,5.74,10.21-6.66,10.68-3.47-14.12Z"/></g></g></svg>