<?xml version="1.0" encoding="UTF-8"?><svg id="Ebene_2" xmlns="http://www.w3.org/2000/svg" viewBox="0 0 283.46 283.46"><defs><style>.cls-1{fill:#306da5;}</style></defs><g id="dtp_smoking_allowed_regular"><g><path class="cls-1" d="M88.53,75.06c2.08-4.99,.17-10.89-3.76-14.65-3.92-3.77-9.52-5.64-15.1-6.26-6.73-.74-13.88,.27-19.58,3.84-5.71,3.56-9.68,9.94-9.1,16.33,.73,8.09,8.06,14.13,15.61,17.88,7.55,3.76,16,6.25,22.34,11.64,4.37,3.72,7.5,8.71,8.89,14.14-.02-.02-.04-.03-.06-.04-5.46-3.39-11.79-5.52-18.32-6.18-8.72-.88-17.75,.84-26.23-1.2-12.85-3.09-22.15-14.98-23.19-27.53-1.05-12.55,5.38-25.19,15.38-33.66,9.81-8.32,23.28-12.95,36.23-11.42,12.94,1.53,24.97,9.56,29.8,20.99,3.35,7.92,2.81,17.94-3.6,24.07-6.41,6.14-19.16,5.72-23.08-1.95,5.1,2.2,11.69-1.02,13.77-6Z"/><path class="cls-1" d="M81.69,100.51c-5.79-5.07-13.65-7.29-20.79-10.49-7.13-3.2-14.26-8.24-15.69-15.62-1.33-6.83,3.36-14.34,10.36-16.59,2.3-.74,4.73-.96,7.15-.89-2.12,.49-4.12,1.4-5.69,2.82-2.41,2.18-3.6,5.34-3.99,8.45-.87,6.97,2.05,14.22,7.59,18.79,6.43,5.31,15.91,7.09,21.06,13.53Z"/><path class="cls-1" d="M81.51,63.11c-2.71-2.93-9.9-5.56-17.04-6.1-.58-.05-1.17-.08-1.75-.09,1.12-.26,2.27-.39,3.41-.42,5.86-.18,11.7,2.34,15.38,6.61Z"/><path class="cls-1" d="M79.8,134.69c-4.63,3.97-11,5.45-17.13,6.42-6.13,.96-12.47,1.59-18,4.32-6.15,3.03-10.86,8.62-12.58,14.97-1.72,6.34-.44,13.32,3.44,18.66-6.27-5.96-9.37-14.8-8.12-23.21,1.24-8.42,6.8-16.23,14.59-20.52,8.44-4.65,18.57-5.08,28.19-6.38,2.9-.4,5.87-.91,8.38-2.37,2.5-1.46,4.47-4.1,4.22-6.85-.05-.66,.35-.88,.48-1.13,3.29,4.96,1.16,12.12-3.47,16.09Z"/><path class="cls-1" d="M240.95,0H42.52C19.04,0,0,19.04,0,42.52V240.94c0,23.49,19.04,42.52,42.52,42.52H240.95c23.48,0,42.51-19.03,42.51-42.52V42.52c0-23.48-19.03-42.52-42.51-42.52Zm34.51,240.94c0,19.04-15.48,34.52-34.51,34.52H42.52c-19.03,0-34.52-15.48-34.52-34.52V42.52c0-19.03,15.49-34.52,34.52-34.52H240.95c19.03,0,34.51,15.49,34.51,34.52V240.94Z"/><path class="cls-1" d="M259.48,74.95c-4.97-8.89-14.19-18.71-23.82-17.13-1.59,.26-4.24,.69-31.05,23.58-12.93,11.04-25.37,22.12-25.49,22.23l-3.14,2.79L57.79,200.93c-3.3-3.8-6.19-7.86-7.99-12.46-3.01-7.72-2.18-17.45,4.31-23.07,6.16-5.34,15.34-5.61,23-8.71,9.88-3.99,17.22-13.25,18.5-23.32,.39-3.06,.23-6.26-1.19-9.01-1.41-2.7-3.92-4.73-6.59-6.38,.27,1.01,.46,2.04,.6,3.07,.59,4.39-.01,9.12-2.72,12.77-2.89,3.88-7.7,6.02-12.4,7.64-12.12,4.17-26.38,6.99-33.1,17.45-5.59,8.7-3.68,20.21,1.91,28.75,3.69,5.63,8.73,10.24,14.21,14.55-.14,.16-.28,.33-.42,.5-.08,.06-.17,.11-.25,.18-.86,.77-1.28,2-1.34,3.56-.1,.63-.14,1.27-.1,1.91l.06,.9c.87,14.5,10.06,27.25,22.88,31.73,.83,.29,1.69,.43,2.53,.43,1.68,0,3.31-.56,4.62-1.64l125.92-100.68,.04-.03c.56-.46,1.04-.99,1.44-1.57,14.55-12.02,47.99-39.73,50.6-42.75,4.65-5.38-.99-16.52-2.83-19.8ZM81.74,233.26c.46-4.34-2.43-11.71-7.77-18.93-3.18-4.3-6.66-7.77-9.82-9.91l118.05-94.39,1.88,.7c9.5,3.57,16.78,14.47,16.94,25.36l.02,1.79-119.3,95.38Z"/></g></g></svg>