<?xml version="1.0" encoding="UTF-8"?><svg id="Ebene_2" xmlns="http://www.w3.org/2000/svg" viewBox="0 0 283.46 283.46"><defs><style>.cls-1{fill:#306da5;}</style></defs><g id="dtp_snow_allowed_regular"><g><path class="cls-1" d="M232.95,89.65c-1.93-3.35-6.21-4.5-9.56-2.57l-25.68,14.81,3.27-19.72c.63-3.81-1.95-7.42-5.76-8.05-3.82-.64-7.42,1.95-8.05,5.76l-5.14,31.06-32.83,18.93,.02-38.41,23.4-19.03c3-2.44,3.45-6.85,1.01-9.85-2.44-3-6.85-3.45-9.85-1.01l-14.55,11.84v-29.71c.01-3.87-3.12-7-6.98-7h0c-3.86,0-7,3.13-7,7v29.64s-15.46-12.69-15.46-12.69c-2.99-2.45-7.4-2.02-9.85,.97s-2.02,7.4,.97,9.85l24.33,19.98-.02,37.89-33.26-19.22-4.79-29.78c-.61-3.82-4.2-6.41-8.02-5.8-3.82,.61-6.41,4.21-5.8,8.02l2.98,18.52-25.73-14.87c-3.35-1.93-7.63-.79-9.56,2.56-1.93,3.35-.79,7.63,2.56,9.56l25.66,14.83-18.71,7.03c-3.62,1.36-5.45,5.4-4.09,9.02,1.06,2.81,3.72,4.54,6.55,4.54,.82,0,1.65-.14,2.46-.45l29.47-11.08,32.81,18.96-33.27,19.19-28.18-10.74c-3.61-1.38-7.66,.43-9.03,4.05-1.38,3.61,.43,7.66,4.05,9.03l17.53,6.68-25.74,14.85c-3.35,1.93-4.5,6.21-2.57,9.56,1.3,2.25,3.65,3.5,6.07,3.5,1.19,0,2.39-.3,3.49-.94l25.68-14.81-3.27,19.72c-.63,3.81,1.95,7.42,5.76,8.05,.39,.06,.77,.1,1.15,.1,3.36,0,6.33-2.43,6.9-5.86l5.14-31.06,32.83-18.93-.02,38.41-23.4,19.03c-3,2.44-3.45,6.85-1.01,9.85,2.44,3,6.85,3.45,9.85,1.01l14.55-11.84v29.71c-.01,3.87,3.12,7,6.98,7h0c3.86,0,7-3.13,7-7v-29.64s15.46,12.69,15.46,12.69c1.3,1.07,2.88,1.59,4.44,1.59,2.02,0,4.03-.87,5.41-2.56,2.45-2.99,2.02-7.4-.97-9.85l-24.33-19.98,.02-37.89,33.26,19.22,4.79,29.78c.55,3.44,3.53,5.89,6.9,5.89,.37,0,.74-.03,1.12-.09,3.82-.61,6.41-4.21,5.8-8.02l-2.98-18.52,25.73,14.87c1.1,.64,2.31,.94,3.5,.94,2.42,0,4.77-1.25,6.07-3.5,1.93-3.35,.79-7.63-2.56-9.56l-25.66-14.83,18.71-7.03c3.62-1.36,5.45-5.4,4.09-9.02-1.36-3.62-5.4-5.45-9.02-4.09l-29.47,11.08-32.81-18.96,33.28-19.19,28.18,10.74c.82,.31,1.66,.46,2.49,.46,2.82,0,5.48-1.72,6.54-4.51,1.38-3.61-.43-7.66-4.05-9.03l-17.53-6.68,25.74-14.85c3.35-1.93,4.5-6.21,2.57-9.56Z"/><path class="cls-1" d="M240.94,0H42.52C19.04,0,0,19.04,0,42.52V240.94c0,23.48,19.04,42.52,42.52,42.52H240.94c23.48,0,42.52-19.04,42.52-42.52V42.52c0-23.48-19.04-42.52-42.52-42.52Zm34.52,240.94c0,19.03-15.49,34.52-34.52,34.52H42.52c-19.03,0-34.52-15.49-34.52-34.52V42.52c0-19.03,15.49-34.52,34.52-34.52H240.94c19.03,0,34.52,15.49,34.52,34.52V240.94Z"/></g></g></svg>