<?xml version="1.0" encoding="UTF-8"?><svg id="Ebene_2" xmlns="http://www.w3.org/2000/svg" viewBox="0 0 283.46 283.46"><defs><style>.cls-1{fill:#306da5;}</style></defs><g id="dtp_dronesmodelplanes_forbidden_regular"><g><path class="cls-1" d="M240.94,0H42.52C19.04,0,0,19.04,0,42.52V240.94c0,23.48,19.04,42.52,42.52,42.52H240.94c23.48,0,42.52-19.04,42.52-42.52V42.52c0-23.48-19.04-42.52-42.52-42.52Zm0,8c19.03,0,34.52,15.49,34.52,34.52V240.94c0,5.21-1.17,10.16-3.25,14.59l-.12-.12-60.64-60.64-5.9-5.9-36.99-36.99-2.92-2.92-3-3-.35-.35-9.27-9.27-14.85-14.85L27.93,11.25c4.44-2.08,9.38-3.25,14.59-3.25H240.94ZM42.52,275.46c-19.03,0-34.52-15.49-34.52-34.52V42.52c0-5.06,1.1-9.86,3.07-14.19L80.44,97.7l31.22,31.22,7.43,7.43,9.27,9.27,.35,.35,3,3,9.77,9.77,1.11,1.11,5.74,5.74,10.71,10.71,14.03,14.03,81.93,81.93,.14,.14c-4.33,1.96-9.14,3.07-14.19,3.07H42.52Z"/><path class="cls-1" d="M170.36,145.62l.35,.35,.52,.52,2.48,2.48h29.04l2.2,31.24,7.04,7.04,2.7-38.28h3.64c9.73,0,17.62-7.89,17.62-17.62v-1.32c4.28-1.96,7.25-6.28,7.25-11.3v-6.67h-29.54v6.67c0,5.55,3.64,10.26,8.67,11.85v2.71c0,1.69-1.37,3.06-3.06,3.06h-44.8l-5.12-14.85h-23.11l14.85,14.85,9.27,9.27Z"/><path class="cls-1" d="M53.7,108.72c.11-1.12-.44-2.18-1.34-2.55l-29.56-12.11c-.42-.17-.88-.17-1.3,0l-10.4,4.36c-1.95,.82-1.7,4.22,.34,4.62l39.96,7.75c1.12,.22,2.16-.73,2.3-2.08Z"/><path class="cls-1" d="M57.99,110.81l24.02-3.47-7.51-7.51-17.77,6.39c-.76,.28-1.24,1.07-1.24,1.99,0,.15,.01,.3,.04,.46,.22,1.33,1.34,2.3,2.46,2.14Z"/><path class="cls-1" d="M185.31,103.05l39.96,7.75c1.12,.22,2.16-.73,2.3-2.08,.11-1.12-.44-2.18-1.34-2.55l-29.56-12.11c-.42-.17-.88-.17-1.3,0l-10.4,4.36c-1.95,.82-1.7,4.22,.34,4.62Z"/><path class="cls-1" d="M231.87,110.81l40.26-5.82c2.06-.3,2.11-3.63,.06-4.53l-10.86-4.76c-.44-.19-.91-.22-1.33-.06l-29.4,10.57c-.89,.32-1.39,1.34-1.21,2.45,.22,1.33,1.34,2.31,2.47,2.15Z"/><path class="cls-1" d="M141.79,201.3c-10.19,0-18.45-8.26-18.45-18.45,0-9.32,6.92-17.04,15.9-18.28l-4.71-4.72-1.11-1.11-9.78-9.77-3-3-.35-.35-9.27-9.27-1.42-1.43-.5,1.43H63.89c-1.69,0-3.06-1.37-3.06-3.06v-2.76c4.94-1.65,8.5-6.31,8.5-11.8v-6.67h-29.54v6.67c0,5.46,3.52,10.1,8.42,11.78v.84c0,9.62,7.72,17.45,17.3,17.61l3.71,52.68c.25,2.75,4.27,2.75,4.52,0l3.71-52.67h36.12l5.35,10.88h.32c-5.94,5.84-9.62,13.96-9.62,22.94,0,17.77,14.4,32.17,32.17,32.17,12.94,0,24.09-7.64,29.2-18.65l-10.93-10.92c-1.23,8.99-8.94,15.91-18.27,15.91Z"/><path class="cls-1" d="M129.46,182.85c0,6.8,5.52,12.32,12.33,12.32s12.32-5.52,12.32-12.32c0-1.45-.25-2.84-.71-4.13l-7.5-7.5c-1.28-.45-2.67-.7-4.11-.7-6.81,0-12.33,5.52-12.33,12.33Z"/></g></g></svg>