<?xml version="1.0" encoding="UTF-8"?><svg id="Ebene_2" xmlns="http://www.w3.org/2000/svg" viewBox="0 0 283.46 283.46"><defs><style>.cls-1{fill:#306da5;}</style></defs><g id="dtp_noise_forbidden_regular"><g><path class="cls-1" d="M240.94,0H42.52C19.04,0,0,19.04,0,42.52V240.94c0,23.48,19.04,42.52,42.52,42.52H240.94c23.48,0,42.52-19.04,42.52-42.52V42.52c0-23.48-19.04-42.52-42.52-42.52Zm0,8c19.03,0,34.52,15.49,34.52,34.52V240.94c0,5.21-1.17,10.16-3.25,14.59l-.12-.12-49.27-49.27-8.11-8.11-26.81-26.81h0l-8.75-8.76-16.71-16.71L27.93,11.25c4.44-2.08,9.38-3.25,14.59-3.25H240.94ZM42.52,275.46c-19.03,0-34.52-15.49-34.52-34.52V42.52c0-5.06,1.1-9.86,3.07-14.19L77.8,95.06l14.39,14.39,11.07,11.07,59.18,59.18,92.56,92.56,.14,.14c-4.33,1.96-9.14,3.07-14.19,3.07H42.52Z"/><path class="cls-1" d="M175.61,211.7v11.38c6.62-.23,13.05-1.24,19.19-2.95l-9.48-9.49c-3.17,.57-6.41,.93-9.71,1.06Z"/><path class="cls-1" d="M243.94,140.57c0,21.52-9.6,40.84-24.73,53.9l8.05,8.05c17.2-15.13,28.06-37.29,28.06-61.95,0-44.58-35.5-80.99-79.71-82.51v11.37c37.93,1.52,68.33,32.84,68.33,71.14Z"/><path class="cls-1" d="M219.76,140.57c0,14.85-6.93,28.12-17.71,36.74l8.08,8.08c12.83-10.72,21.01-26.83,21.01-44.82,0-31.24-24.66-56.83-55.53-58.33v11.4c24.59,1.49,44.15,21.96,44.15,46.93Z"/><path class="cls-1" d="M195.57,140.57c0,8.2-4.34,15.39-10.85,19.41l8.19,8.19c8.51-6.22,14.04-16.27,14.04-27.6,0-17.9-13.82-32.62-31.34-34.09v11.45c11.24,1.42,19.96,11.02,19.96,22.64Z"/><path class="cls-1" d="M47.45,95.06c-4.16,0-7.54,3.37-7.54,7.54v77.33c0,4.16,3.38,7.54,7.54,7.54h44.74V117.52l-22.46-22.46h-22.28Z"/><path class="cls-1" d="M162.44,66.45c0-5.37-6.04-8.52-10.44-5.44l-39,27.25,49.44,49.44V66.45Z"/><path class="cls-1" d="M103.26,187.47l48.74,34.05c4.4,3.08,10.44-.07,10.44-5.44v-28.32l-59.18-59.17v58.88Z"/></g></g></svg>