<?xml version="1.0" encoding="UTF-8"?><svg id="Ebene_2" xmlns="http://www.w3.org/2000/svg" viewBox="0 0 276.82 276.83"><defs><style>.cls-1{fill:#306da5;}</style></defs><g id="dtp_discouraged_allowed_regular_1"><path class="cls-1" d="M105.8,155.94l-2,6.29c-.36,4.98-.18,8.39-.18,8.39,.66-5.71,1.59-10.63,2.7-14.88-.34,.13-.52,.2-.52,.2Zm0,0l-2,6.29c-.36,4.98-.18,8.39-.18,8.39,.66-5.71,1.59-10.63,2.7-14.88-.34,.13-.52,.2-.52,.2ZM138.42,0h-.71c-1.15,.01-2.29,.03-3.43,.07-1.55,.04-3.08,.11-4.61,.2-.28,.02-.55,.04-.82,.06-1.32,.09-2.64,.19-3.95,.32-3.84,.37-7.64,.9-11.38,1.58-2.18,.4-4.35,.85-6.49,1.34-2.32,.54-4.62,1.14-6.89,1.79C42.31,21.97,0,75.26,0,138.42c0,76.44,61.96,138.41,138.42,138.41s138.4-61.97,138.4-138.41S214.86,0,138.42,0Zm-2.23,165.04c-.46,11.23-11.27,27.3-22.98,32.04-4.19,1.72-10.9,5.08-18.84,8.92-1.74,.83-3.53,1.69-5.37,2.56-1.74,.82-3.52,1.66-5.34,2.5-1.55,.7-3.12,1.41-4.7,2.11-4.58,2.03-9.29,4-13.94,5.75-5.12,1.92-10.17,3.57-14.93,4.75-1.39-.72-2.74-1.56-4.02-2.48-1.63-1.17-3.15-2.48-4.55-3.9-2.7-2.76-4.97-5.96-6.72-9.45-.77-1.52-1.43-3.08-2-4.7-.62-1.74-1.13-3.54-1.51-5.38-.8-3.81-1.1-7.79-.85-11.81,2.97-.07,6.06-.17,9.2-.29,1.79-.08,3.6-.16,5.41-.26s3.64-.21,5.46-.33c.86-.07,1.72-.14,2.58-.21,14.33-1.14,27.86-3.45,34.61-8.43,13.39-38.81,13.47-32.43,17.16-49.33,2.79-12.81,5.63-15.71,8.14-30.04,.53-4.52,1.31-9.96,2.24-15.69,.99-6.17,2.15-12.68,3.33-18.75,.34-1.7,.67-3.36,1.01-4.98,.78-3.84,1.56-7.41,2.29-10.43h0c.21-.88,.42-1.7,.62-2.48,3.29-12.84,4.67-29.38,9.06-29.89,2.27-.26,3.89,1.07,4.93,3.42,2.37,5.31,1.85,15.82-.63,25.28,.12,.75,.23,1.55,.34,2.36,.38,3.04,.61,6.41,.66,9.73,0,.01,0,.02,.01,.03,.07,3.82-.06,7.59-.4,10.76-.32,3.04-.81,5.51-1.48,6.93,.23,3.45,.37,5.99,.43,7.98,.27,6.81-.24,6.91-.53,14.09-.26-.16-.51-.32-.78-.46-1.45-.81-2.99-1.27-4.53-1.33-1.42-.06-2.86,.23-4.23,.96-2.87,1.47-5.47,4.77-7.22,10.48-2.67,8.69,1.31,19.92-5.32,28.51-3.97,5.13-6.24,11.71-7.54,17.91-.82,3.89-1.25,7.62-1.46,10.74-.36,4.98-.18,8.39-.18,8.39,.66-5.71,1.59-10.63,2.7-14.88,.5-1.98,1.04-3.82,1.6-5.52,4.69-14.25,10.81-19.93,10.94-25.53,.16-6.38-.35-23.86,6.76-27.86,1.19-.67,2.61-.97,4.27-.76,2.08,.17,3.64,1.04,4.81,2.42,2.33,2.78,3.03,7.64,2.96,13.16-.06,7.1-1.4,15.26-2.14,21.41-.33,2.88-.54,5.32-.43,7.01,.64,9.43,1.58,13.75,1.1,24.97Zm91.74,56.15c-.88,.63-1.78,1.21-2.71,1.76-9.29-2.6-19.49-6.78-28.98-11.08-13.19-5.99-25.04-12.2-31.28-14.77-11.7-4.73-22.51-20.8-22.98-32.04-.48-11.22,.47-15.54,1.1-24.97,.64-9.44-8.96-42.84,5.2-44,11.57-1.44,10.85,21.18,11.02,28.62,.18,7.73,11.77,15.59,15.25,45.94,0,0,1.25-23.56-9.18-37.05-6.64-8.59-2.65-19.82-5.32-28.5-3.66-11.96-11.06-13.34-16.76-9.65-.37-9.28-1.12-6.75-.1-22.08-.9-1.93-1.5-5.81-1.75-10.4h0c.28-2.56,.24-4.94-.13-7.12v-.03c.08-4.26,.41-8.61,1.01-12.25-3.59-13.69-3.08-29.54,4.29-28.7,4.41,.51,5.78,17.04,9.07,29.88,3.19,12.42,7.75,37.39,9.49,52.33,2.51,14.34,5.35,17.23,8.14,30.04,3.68,16.9,3.77,10.53,17.16,49.33,6.14,4.53,17.87,6.85,30.73,8.09,7.37,.73,15.1,1.08,22.37,1.32,.89,14.12-4.93,27.65-15.64,35.33Zm-122.13-65.25l-2,6.29c-.36,4.98-.18,8.39-.18,8.39,.66-5.71,1.59-10.63,2.7-14.88-.34,.13-.52,.2-.52,.2Zm0,0l-2,6.29c-.36,4.98-.18,8.39-.18,8.39,.66-5.71,1.59-10.63,2.7-14.88-.34,.13-.52,.2-.52,.2Z"/></g></svg>