<?xml version="1.0" encoding="UTF-8"?><svg id="Ebene_2" xmlns="http://www.w3.org/2000/svg" viewBox="0 0 283.46 283.46"><defs><style>.cls-1{fill:#306da5;}</style></defs><g id="dtp_nighttime_allowed_regular"><g><path class="cls-1" d="M207.2,139.33c-9.9,6.4-21.44,9.78-33.22,9.73-16.36-.05-32.03-6.62-43.53-18.25-23.89-24.15-23.68-63.1,.47-87,1.61-1.5,2.19-3.8,1.49-5.88-.99-2.93-4.16-4.5-7.08-3.52-20.82,5.7-38.36,19.73-48.48,38.8-20.28,38.19-5.76,85.59,32.43,105.87,38.19,20.28,85.59,5.76,105.87-32.43,.93-1.77,.84-3.9-.23-5.59-1.65-2.61-5.11-3.39-7.72-1.74Z"/><path class="cls-1" d="M240.94,0H42.52C19.04,0,0,19.04,0,42.52V240.94c0,23.48,19.04,42.52,42.52,42.52H240.94c23.48,0,42.52-19.04,42.52-42.52V42.52c0-23.48-19.04-42.52-42.52-42.52Zm34.52,240.94c0,14.56-9.07,27.04-21.85,32.1-24.17-32.98-65.25-52.86-111.88-52.86s-87.72,19.88-111.88,52.86c-12.78-5.06-21.85-17.54-21.85-32.1V42.52c0-19.03,15.49-34.52,34.52-34.52H240.94c19.03,0,34.52,15.49,34.52,34.52V240.94Z"/></g></g></svg>