<?xml version="1.0" encoding="UTF-8"?><svg id="Ebene_2" xmlns="http://www.w3.org/2000/svg" viewBox="0 0 283.46 283.46"><defs><style>.cls-1{fill:#306da5;}</style></defs><g id="dtp_clock_filled2"><g id="dtp_clock_filled2-2"><path class="cls-1" d="M240.94,0H42.52C19.04,0,0,19.04,0,42.52V240.94c0,23.48,19.04,42.52,42.52,42.52H240.94c23.48,0,42.52-19.04,42.52-42.52V42.52c0-23.48-19.04-42.52-42.52-42.52Zm-99.21,256.03c-63.02,0-114.3-51.27-114.3-114.3S78.71,27.43,141.73,27.43s114.3,51.27,114.3,114.3-51.27,114.3-114.3,114.3Z"/><path class="cls-1" d="M141.73,43.43c-54.2,0-98.3,44.1-98.3,98.3s44.1,98.3,98.3,98.3,98.3-44.1,98.3-98.3-44.1-98.3-98.3-98.3Zm-77.51,108.29c-5.51,0-9.99-4.48-9.99-9.99s4.48-9.99,9.99-9.99,9.99,4.48,9.99,9.99-4.48,9.99-9.99,9.99Zm77.51,74.69c-5.51,0-9.99-4.48-9.99-9.99s4.48-9.99,9.99-9.99,9.99,4.48,9.99,9.99-4.48,9.99-9.99,9.99Zm50.41-100.9l-49.7,34.49c-1.28,.89-2.77,1.34-4.28,1.34-1.19,0-2.38-.28-3.48-.85-2.47-1.29-4.02-3.85-4.02-6.65V71.92c0-4.14,3.36-7.5,7.5-7.5s7.5,3.36,7.5,7.5v67.59l37.93-26.32c3.4-2.36,8.08-1.52,10.44,1.89,2.36,3.4,1.52,8.08-1.89,10.44Zm27.94,26.21c-5.51,0-9.99-4.48-9.99-9.99s4.48-9.99,9.99-9.99,9.99,4.48,9.99,9.99-4.48,9.99-9.99,9.99Z"/></g></g></svg>