<?xml version="1.0" encoding="UTF-8"?><svg id="Ebene_2" xmlns="http://www.w3.org/2000/svg" viewBox="0 0 283.46 283.46"><defs><style>.cls-1{fill:#306da5;}</style></defs><g id="dtp_campingvehicletrailer_forbidden_regular"><g><path class="cls-1" d="M240.94,0H42.52C19.04,0,0,19.04,0,42.52V240.94c0,23.48,19.04,42.52,42.52,42.52H240.94c23.48,0,42.52-19.04,42.52-42.52V42.52c0-23.48-19.04-42.52-42.52-42.52Zm0,8c19.03,0,34.52,15.49,34.52,34.52V240.94c0,5.21-1.17,10.16-3.25,14.59L27.93,11.25c4.44-2.08,9.38-3.25,14.59-3.25H240.94ZM42.52,275.46c-19.03,0-34.52-15.49-34.52-34.52V42.52c0-5.06,1.1-9.86,3.07-14.19l36.3,36.3,95.38,95.38,43.27,43.27,6.78,6.78,62.2,62.2,.14,.14c-4.33,1.96-9.14,3.07-14.19,3.07H42.52Z"/><path class="cls-1" d="M191.29,217.42c0,10.27,8.26,18.61,18.44,18.61,.32,0,.63-.01,.95-.02l-19.37-19.38c-.01,.26-.02,.53-.02,.79Z"/><ellipse class="cls-1" cx="82.55" cy="217.42" rx="18.44" ry="18.61"/><path class="cls-1" d="M39.53,64.86c-4.56,.97-7.97,5.05-7.97,9.94v54.88h.4c-.26,1.29-.4,2.64-.4,4.01v20.92h97.73L39.53,64.86Z"/><path class="cls-1" d="M31.56,160.01v39.14c0,10.09,8.11,18.27,18.1,18.27h5.35c0-15.33,12.36-27.8,27.54-27.8s27.54,12.47,27.54,27.8h72.1c0-2.99,.47-5.87,1.34-8.57l-48.84-48.84H31.56Z"/><path class="cls-1" d="M227.51,113.68h-89.09l76.43,76.43c11.01,2.09,19.72,10.81,21.89,21.89l5.41,5.41c17.72-.19,23.61-7.61,23.8-16.82,0-.23-3.51-28.64-3.51-28.64-.83-4.15-2.99-7.92-6.14-10.71l-6.83-6.04s-7-29.06-7.19-30.67c-.98-8.54-6.04-10.85-14.77-10.85Zm6.55,43.22h-35.45c-1.83,0-3.32-1.49-3.32-3.34v-28.08c0-2.16,1.74-3.91,3.88-3.91h29.2c3.01,0,5.62,2.1,6.28,5.06l5.68,22.37c.9,4.05-2.16,7.9-6.27,7.9Z"/><path class="cls-1" d="M134.36,108.07h91.54c7.93,0,14.36-6.49,14.36-14.49v-16.32c0-6.98-5.61-12.63-12.52-12.63H89.37l44.05,44.05c.26-.23,.57-.43,.94-.61Z"/></g></g></svg>