<?xml version="1.0" encoding="UTF-8"?><svg id="Ebene_2" xmlns="http://www.w3.org/2000/svg" viewBox="0 0 283.43 283.28"><defs><style>.cls-1{fill:#306da5;}</style></defs><g id="dtp_skiing_allowed_regular"><g><path class="cls-1" d="M230.31,246.54c-8.86,6.85-19.86,2.77-20.34,2.58l-98.48-38.1s0,0,0,0c.51-.56,.96-1.19,1.36-1.86l.8-1.37h0s70.79,27.39,70.79,27.39c.42,.17,6.06,2.35,13.63,2.35,6.3,0,13.93-1.52,20.99-6.97,3.19-2.47,3.78-7.05,1.31-10.24-2.47-3.19-7.05-3.78-10.24-1.31-8.86,6.85-19.86,2.77-20.34,2.58l-41.7-16.13s.03-.07,.05-.11l16.25-36.56c1.2-2.69,1.32-5.74,.33-8.51l-4.57-12.84h0s32.12-6.14,32.12-6.14l1.01,.73c1.5,1.07,3.23,1.59,4.95,1.59,2.65,0,5.25-1.23,6.91-3.54,2.74-3.81,1.87-9.11-1.94-11.85l-25.42-18.25,9.36-31.07c.54-1.78,.47-3.69-.18-5.43-.52-1.39-1.35-2.76-2.41-4.1-3.56-.53-6.89-2.1-9.59-4.54-2.13-1.93-3.75-4.27-4.77-6.87-.74-.44-1.45-.84-2.1-1.2-1.65-.92-3.56-1.26-5.43-.96l-41.81,6.53c-2.29,.36-4.33,1.63-5.66,3.53-1.32,1.89-1.82,4.24-1.37,6.51l1.8,9.1,3.49,17.72,1.05,5.32,2.15,10.87c.31,1.59,1.05,2.99,2.08,4.1,.67,.74,1.47,1.35,2.35,1.8,1.65,.86,3.59,1.18,5.56,.8,.43-.08,.84-.2,1.24-.35,3.16-1.13,5.33-4.04,5.58-7.34,.07-.75,.02-1.52-.13-2.3l-.73-3.68-4.7-23.85-1.17-5.91-.18-.91,9.55-1.49-5.04,5.11,4.99,27.61,.79,4.37c.03,.21,.05,.42,.06,.63,.2,2.76-.73,5.42-2.66,7.58-.46,.51-.97,.99-1.52,1.41-1.37,1.07-2.99,1.85-4.75,2.28-.68,.18-1.39,.3-2.11,.36-.58,.05-.66,.07-.94,.05-.12-.01-.27-.02-.51-.04-.76-.06-1.5-.19-2.22-.37-2.91-.73-5.42-2.35-7.11-4.51-1.17-1.5-1.95-3.25-2.2-5.15l-1.96-9.92-.64-3.26-.44,.44c-4.41,4.47-6.08,10.6-5.04,16.33l.13,5.06-85.16,29.36c-2.06,.71-3.15,2.95-2.44,5,.56,1.63,2.09,2.65,3.72,2.65,.42,0,.86-.07,1.28-.21l82.8-28.55,.42,16.3h0s-52.03,9.96-52.03,9.96c-2.13,.41-3.53,2.47-3.12,4.6,.36,1.88,2.01,3.19,3.86,3.19,.25,0,.49-.02,.74-.07l50.75-9.71h0s.23,8.97,.23,8.97l-12.24,20.9-57.67-22.31c-3.76-1.45-7.99,.41-9.45,4.17-1.46,3.76,.41,7.99,4.17,9.44l55.65,21.53s0,0,0,0c-.46,1.24-.68,2.53-.69,3.8,0,0,0,0,0,0l-54.2-20.97c-3.76-1.45-7.99,.41-9.45,4.17-1.46,3.76,.41,7.99,4.17,9.44l172.67,66.81c.42,.17,6.06,2.35,13.63,2.35,6.3,0,13.93-1.52,20.99-6.97,3.19-2.47,3.78-7.05,1.31-10.24-2.47-3.19-7.05-3.78-10.24-1.31Zm-46.86-111.57h0s-25.97,4.97-25.97,4.97h0s-7.02-19.74-7.02-19.74l9.31-9.43-.03,.11c-1.05,3.48,.23,7.24,3.18,9.35l20.53,14.74Zm-49.34,9.43l-.04-1.67,.56,1.57h0s-.52,.11-.52,.11h0Zm-12.98,50.61l12.02-20.51c1.08-1.85,1.63-3.96,1.57-6.1l-.41-16.04h0s2.99-.58,2.99-.58l4.21,11.85-14.39,32.36c-.17,.38-.32,.77-.44,1.16,0,0,0,0,0,0l-5.55-2.15h0Z"/><path class="cls-1" d="M240.92,0H42.52C19.04,0,0,19.03,0,42.49V240.79c0,23.48,19.04,42.49,42.52,42.49H240.92c23.49,0,42.52-19.02,42.52-42.49V42.49c0-23.47-19.03-42.49-42.52-42.49Zm34.52,240.79c0,19.02-15.48,34.5-34.52,34.5H42.52c-19.03,0-34.52-15.48-34.52-34.5V42.49C8,23.47,23.48,7.99,42.52,7.99H240.92c19.03,0,34.52,15.48,34.52,34.5V240.79Z"/><path class="cls-1" d="M178.4,63.43c.14,.1,.27,.19,.41,.28,.31,.21,.63,.41,.95,.59,.16,.09,.31,.18,.47,.26,.34,.18,.68,.33,1.03,.48,.14,.06,.27,.12,.4,.17,.48,.19,.97,.35,1.46,.49,.07,.02,.15,.03,.22,.05,.42,.11,.85,.2,1.28,.27,.16,.03,.33,.05,.49,.07,.35,.05,.7,.08,1.06,.1,.17,0,.34,.02,.51,.02,.11,0,.21,.01,.32,.01,.25,0,.5-.02,.75-.04,.17,0,.33,0,.5-.02,.51-.04,1.03-.11,1.53-.2,3.04-.58,5.92-2.12,8.15-4.59l5.19-5.73c5.45-6.03,4.99-15.34-1.05-20.8-.37-.33-.74-.64-1.13-.92-.13-.1-.26-.18-.4-.27-.26-.18-.53-.37-.8-.53-.16-.1-.32-.18-.49-.27-.25-.14-.5-.28-.76-.4-.18-.08-.36-.15-.54-.23-.25-.11-.5-.21-.76-.31-.19-.07-.38-.13-.57-.19-.25-.08-.5-.16-.76-.22-.2-.05-.39-.09-.59-.13-.25-.05-.5-.1-.76-.15-.2-.03-.4-.06-.61-.08-.25-.03-.51-.05-.76-.07-.2-.01-.41-.02-.61-.03-.12,0-.24-.02-.36-.02s-.23,.02-.35,.02c-.27,0-.54,.02-.8,.04-.22,.02-.44,.04-.65,.06-.27,.03-.54,.08-.8,.12-.21,.04-.43,.08-.64,.13-.27,.06-.53,.13-.8,.21-.21,.06-.41,.12-.62,.19-.26,.09-.52,.19-.79,.29-.2,.08-.4,.15-.59,.24-.26,.12-.52,.25-.78,.39-.18,.1-.37,.19-.55,.29-.26,.15-.52,.32-.77,.49-.16,.11-.33,.21-.5,.33-.27,.2-.54,.42-.8,.64-.13,.11-.27,.21-.39,.32-.38,.34-.75,.71-1.11,1.1l-5.18,5.73c-5.46,6.03-4.99,15.34,1.04,20.8,.41,.37,.83,.7,1.27,1.01Z"/></g></g></svg>