<?xml version="1.0" encoding="UTF-8"?><svg id="Ebene_2" xmlns="http://www.w3.org/2000/svg" viewBox="0 0 283.46 283.46"><defs><style>.cls-1{fill:#306da5;}</style></defs><g id="dtp_dogswithleash_allowed_regular"><g><path class="cls-1" d="M240.94,0H42.52C19.04,0,0,19.04,0,42.52V240.94c0,23.48,19.04,42.52,42.52,42.52H240.94c23.48,0,42.52-19.04,42.52-42.52V42.52c0-23.48-19.04-42.52-42.52-42.52Zm34.52,240.94c0,19.03-15.49,34.52-34.52,34.52H42.52c-19.03,0-34.52-15.49-34.52-34.52V42.52c0-19.03,15.49-34.52,34.52-34.52h15.04l108.57,98.22c-8.86,8.59-23.47,11.61-36,12h-.05l-28.94-2.38c-16.85,0-37.03-12.19-39.7-15.53-2.67-3.35-11.79-15.46-11.79-15.46-3.05-4.36-6.96-2.46-7.23,2.85-.31,6.03,2.56,9.76,6.13,17.23,4.71,9.86,15,19.34,27.74,25.59-.04,3.35-.83,40.76-17.29,56.81-2.03,1.98-2.88,4.88-2.33,7.66l8.35,42.42c1.42,7.42,5.09,12.66,12.64,12.26l11.72,.02c11.94,0,0-13.15,0-13.15l-7.41-6.29-1.75-24.34s22.44-11.11,35.18-26.04c15.95-3.74,31.29-2.44,48.87,2.76l10.44,54.77c1.42,7.42,6.09,12.66,13.64,12.26l11.72,.02c11.94,0,0-13.15,0-13.15l-7.41-6.29,1.73-22.44c-.13,.12-.19,.06,.04-.5l5.43-21.68c8.54-6.12,15.6-17.54,15.68-26.62,0-.04,0-.09,0-.13l.99-34.43c-.49,.24-1.03,.37-1.59,.37-.45,0-.91-.08-1.36-.26l-.47-.19-12.56-5.04-29.99-12.02s.01-.02,.01-.03c-.06-.02-.09-.02-.13-.02-.07-.03-.16-.07-.27-.11,0,0,0,0,0,0,0,0,0,0,0,0-.45-.18-1.12-.45-1.12-.45-.71-.29-1.29-.77-1.68-1.37-.13-.16-.14-.22-.14-.22-.53-.93-.64-2.08-.21-3.15,.42-1.04,1.25-1.77,2.24-2.1,.42-.14,.86-.2,1.31-.17,0,0,.2,.02,.49,.05,.23,.04,.47,.11,.7,.2l.64,.26,24.66,9.89,18.71,7.5,.52,.21c.15,.06,.29,.13,.42,.21l.06-1.93c.01-.42,.05-.83,.12-1.23,.52-1.25,1.02-2.44,1.5-3.58,1.56-2.19,4.11-3.62,6.99-3.7,9.11-.25,23.09-3.66,28.37-21.15,1.09-3.59-1.26-7.29-4.95-7.93-5.38-.94-13.55-2.79-22.33-6.4-2.61-6.18-7.56-11.38-14.26-14.15-5.97-2.47-13.12-2.6-19.28-.8,0,0,0,0,0,0l-10.68-3.86c-3.12-1.13-6.12,.58-7.21,3.2-.15-.07-.24-.11-.24-.11-2.38,6.35-14.38,14.35-8.38,18.35,2.23,1.49,7.24,.76,11.53-1.51-3.56,8.29-5.65,17.08-8.35,25.59L70.71,8H240.94c19.03,0,34.52,15.49,34.52,34.52V240.94ZM78.29,131.49c-.02,.1-.05,.2-.07,.3l-1.08-.84c.38,.18,.76,.36,1.15,.53Z"/><path class="cls-1" d="M194.41,207.32l-.04,.5c.28-.25,.9-1.31,.04-.5Z"/></g></g></svg>