<?xml version="1.0" encoding="UTF-8"?><svg id="Ebene_2" xmlns="http://www.w3.org/2000/svg" viewBox="0 0 283.46 283.46"><defs><style>.cls-1{fill:#306da5;}</style></defs><g id="dtp_collectingplants_allowed_regular"><path class="cls-1" d="M240.94,0H42.52C19.04,0,0,19.04,0,42.52V240.94c0,23.48,19.04,42.52,42.52,42.52H240.94c23.48,0,42.52-19.04,42.52-42.52V42.52c0-23.48-19.04-42.52-42.52-42.52Zm0,275.46H89.85c.55-.77,.87-1.71,.85-2.74l-.19-7.82c6.53,0,18.95-.93,30.04-7.18,15.94-8.99,26.27-20.45,23.08-25.58-3.19-5.13-18.7-2-34.63,7-8.84,4.99-14.96,12.3-18.67,17.83l-.86-36.12c5.7-3.68,9.6-13.45,9.32-25.07-.01-.44-.03-.88-.05-1.31,.38,.24,.77,.47,1.17,.7,13.39,7.78,27.51,8.41,31.54,1.4,4.03-7.01-3.57-18.99-16.96-26.77-.39-.23-.79-.45-1.19-.67,.39-.2,.77-.4,1.16-.61,13.04-7.14,20.06-18.78,15.7-25.99-4.37-7.21-18.47-7.26-31.51-.12-.38,.21-.76,.43-1.14,.64,0-.43,0-.87-.01-1.31-.36-14.92-7.45-27.18-15.84-27.38-8.39-.2-14.91,11.73-14.55,26.65,.01,.44,.03,.88,.05,1.31-.38-.24-.77-.47-1.17-.7-13.39-7.78-27.51-8.41-31.54-1.4-4.03,7.01,3.57,18.99,16.96,26.77,.39,.23,.79,.45,1.19,.67-.39,.2-.77,.4-1.16,.61-13.04,7.14-20.06,18.78-15.7,25.99,4.37,7.21,18.47,7.26,31.51,.12,.38-.21,.76-.43,1.14-.64,0,.43,0,.87,.01,1.31,.29,12.16,5.05,22.55,11.35,26.09l.85,35.8c-3.97-5.74-10.5-13.47-19.68-18.94-16.38-9.77-32.06-13.66-35.01-8.67-2.95,4.98,7.94,16.95,24.33,26.72,11.48,6.84,24.04,8.35,30.54,8.64l.19,7.81c.03,1.12,.46,2.14,1.14,2.97H42.52c-19.03,0-34.52-15.49-34.52-34.52V42.52c0-19.03,15.49-34.52,34.52-34.52H240.94c1.1,0,2.18,.06,3.26,.16-3.51,5.53-9.83,13.8-10.24,13.98-11.66,5.13-24.04,4.74-36.65,6.85-13.13,2.2-25.91,5.81-38.1,10.44-11.49,4.36-35.86,15.13-35.86,15.13,0,0-7.14,3.35-3.7,9.52,2.07,3.71,6.62,3.28,10.94,1.64,0,0,30.57-11.68,35.95-10.34q1.43,.1,1.86,.65c.65,.85,.3,1.97-.71,2.29-15.66,4.85-36.02,14.8-52.04,24.86-4.17,1.87-5.48,6.22-2.94,9.73,2.55,3.51,7.99,4.84,12.16,2.97,16.12-9.2,50.22-21.9,50.69-21.3l1.1,1.43c.67,.86-35.87,16.36-52.35,27.55-4.09,1.97-5.25,6.36-2.58,9.81,2.65,3.42,8.06,4.64,12.14,2.73,.07-.03,.13-.07,.19-.1,17.84-10.89,53.91-25.35,54.37-24.76l1.31,1.7c.65,.84-27.69,16.39-37.62,25.04-.09,.08-.17,.16-.27,.22-3.67,2.32-4.23,6.74-1.21,9.94,3.02,3.2,8.47,3.99,12.28,1.8,.11-.06,.19-.16,.29-.22,10.01-5.75,20.08-11.4,30.15-17.06,5.38-3.03,10.82-5.97,16.14-9.07,12.15-7.09,16.59-4.61,20.28-1.9,3.6,2.64-2.38,16.06-3.35,19.49-1.08,3.84-.75,8.61-.04,12.58,.71,3.94,4.12,10.63,9.57,10.41,1.59-.06,2.79-1.27,3.41-2.58,.77-1.61,1.45-3.29,2.07-5.01,3.87-10.71,6.78-26.56,11.06-37.15,2.39-5.92,5.48-11.51,8.24-17.25,.66-1.38,1.31-2.76,1.92-4.16,1.58-3.62,3.07-7.38,3.91-11.26,.71-3.32,.63-6.95,2.81-9.77,2.02-2.6,3.99-2.96,6.05-3.46V240.94c0,19.03-15.49,34.52-34.52,34.52ZM82.93,183.25c-8.14,0-14.73-6.6-14.73-14.73s6.6-14.73,14.73-14.73,14.73,6.6,14.73,14.73-6.6,14.73-14.73,14.73Z"/></g></svg>