<?xml version="1.0" encoding="UTF-8"?><svg id="Ebene_2" xmlns="http://www.w3.org/2000/svg" viewBox="0 0 283.46 283.46"><defs><style>.cls-1{fill:#306da5;}</style></defs><g id="dtp_noise_allowed_regular"><g><path class="cls-1" d="M240.94,0H42.52C19.04,0,0,19.04,0,42.52V240.94c0,23.48,19.04,42.52,42.52,42.52H240.94c23.48,0,42.52-19.04,42.52-42.52V42.52c0-23.48-19.04-42.52-42.52-42.52Zm34.52,240.94c0,19.03-15.49,34.52-34.52,34.52H42.52c-19.03,0-34.52-15.49-34.52-34.52V42.52c0-19.03,15.49-34.52,34.52-34.52H240.94c19.03,0,34.52,15.49,34.52,34.52V240.94Z"/><path class="cls-1" d="M175.61,58.06v11.38c37.94,1.51,68.34,32.83,68.34,71.14s-30.4,69.62-68.34,71.14v11.38c44.21-1.52,79.72-37.94,79.72-82.51s-35.5-80.99-79.72-82.51Z"/><path class="cls-1" d="M231.14,140.57c0-31.24-24.66-56.83-55.53-58.33v11.4c24.6,1.49,44.15,21.96,44.15,46.93s-19.56,45.44-44.15,46.93v11.4c30.87-1.5,55.53-27.09,55.53-58.33Z"/><path class="cls-1" d="M206.95,140.57c0-17.9-13.82-32.62-31.35-34.08v11.45c11.24,1.42,19.97,11.02,19.97,22.64s-8.73,21.22-19.97,22.64v11.45c17.53-1.46,31.35-16.19,31.35-34.08Z"/><path class="cls-1" d="M39.91,102.6v77.33c0,4.16,3.38,7.54,7.54,7.54h44.74V95.06H47.45c-4.16,0-7.54,3.38-7.54,7.54Z"/><path class="cls-1" d="M152,61.01l-48.73,34.05v92.41l48.73,34.05c4.4,3.08,10.44-.07,10.44-5.44V66.45c0-5.37-6.04-8.52-10.44-5.44Z"/></g></g></svg>