<?xml version="1.0" encoding="UTF-8"?><svg id="Ebene_2" xmlns="http://www.w3.org/2000/svg" viewBox="0 0 283.46 283.46"><defs><style>.cls-1{fill:#306da5;}</style></defs><g id="dtp_canoeing_forbidden_regular"><g><path class="cls-1" d="M240.94,0H42.52C19.04,0,0,19.04,0,42.52V240.94c0,23.48,19.04,42.52,42.52,42.52H240.94c23.48,0,42.52-19.04,42.52-42.52V42.52c0-23.48-19.04-42.52-42.52-42.52Zm0,8c19.03,0,34.52,15.49,34.52,34.52V188.52c-2.36-1.38-4.11-2.71-5-3.43l-3.52-2.83-3.51,2.83c-2.4,1.94-10.99,8.24-20.89,8.24s-18.48-6.3-20.88-8.24l-3.49-2.82h0s-.02,0-.02,0h0s-3.5,2.83-3.5,2.83c-.58,.48-1.54,1.21-2.81,2.06l13.19,13.18c4.85,2.3,10.86,4.2,17.51,4.2,10.33,0,19.14-4.59,24.4-8.13,2.25,1.51,5.15,3.2,8.52,4.66v11.96c-2.69-1.52-4.7-3.03-5.67-3.81l-3.52-2.84-3.51,2.84c-2.38,1.91-10.83,8.12-20.62,8.23l9.8,9.8c5.92-1.64,10.89-4.41,14.33-6.73,2.4,1.62,5.53,3.44,9.19,4.96v15.48c0,5.23-1.17,10.18-3.26,14.63h0s-114.52-114.52-114.52-114.52l-13.34-13.35L27.9,11.26c4.44-2.09,9.4-3.26,14.62-3.26H240.94ZM42.52,275.46c-19.03,0-34.52-15.49-34.52-34.52v-13.72c5.91-1.64,10.88-4.39,14.32-6.71,5.26,3.55,14.07,8.14,24.4,8.14s19.14-4.59,24.4-8.14c5.25,3.55,14.07,8.14,24.39,8.14s19.14-4.59,24.4-8.14c5.26,3.55,14.07,8.14,24.4,8.14s19.14-4.59,24.4-8.14c5.25,3.55,14.06,8.14,24.39,8.14,3.18,0,6.2-.44,9.03-1.14l-10.09-10.09c-9.45-.41-17.51-6.35-19.82-8.21l-3.51-2.84-3.52,2.84c-2.4,1.93-10.98,8.24-20.88,8.24s-18.49-6.31-20.88-8.24l-3.52-2.84-3.52,2.84c-2.39,1.93-10.98,8.24-20.88,8.24s-18.48-6.31-20.88-8.24l-3.51-2.84-3.52,2.84c-2.4,1.93-10.98,8.24-20.88,8.24s-18.49-6.31-20.88-8.24l-3.52-2.84-3.51,2.84c-1.52,1.22-5.55,4.2-10.81,6.22v-12.14c6.21-1.61,11.42-4.49,14.99-6.89,5.26,3.54,14.07,8.13,24.4,8.13s19.14-4.59,24.4-8.13c5.25,3.54,14.07,8.13,24.39,8.13s19.14-4.59,24.4-8.13c5.26,3.54,14.07,8.13,24.4,8.13s19.14-4.59,24.4-8.13c1.21,.82,2.62,1.69,4.19,2.55l-11.29-11.3c-3.8,2.43-9.78,5.42-16.44,5.66l6.76-13.37c.51-.14,1.02-.3,1.51-.46l-16.75-16.75-2.17-2.16-6.22-6.22-3.17-3.18-12.97-12.97-1.55,7.12c-.71,3.25-.25,6.48,1.09,9.25-31.48-.09-62.77-3.21-78.33-13.76-1.7-1.15-22.63,10.82-7.45,31.73l.28,.23c2.39,1.93,6.21,8.17,20.88,8.24,14.33,.06,18.48-6.31,20.88-8.24l3.52-2.84,3.51,2.84c2.4,1.93,10.99,8.24,20.88,8.24s18.49-6.31,20.88-8.24l3.52-2.84,3.52,2.84c2.39,1.93,10.95,8.21,20.82,8.24l-5.91,11.68c-7.41-1.65-13.35-6.04-15.27-7.6l-3.52-2.83-3.52,2.83c-2.39,1.93-10.98,8.24-20.88,8.24s-18.48-6.31-20.88-8.24l-3.52-2.83-3.51,2.83c-2.4,1.94-10.98,8.24-20.88,8.24s-18.49-6.3-20.88-8.24l-3.52-2.83-3.51,2.83c-1.59,1.28-5.89,4.46-11.48,6.48V42.52c0-5.05,1.1-9.84,3.05-14.17l103.23,103.23,12.12,12.12,2.17,2.17,8.21,8.22,1.02,1.02,.16,.16,6.84,6.84,6.67,6.66,4.39,4.39,3.86,3.87,26.76,26.76,12.86,12.86,8.86,8.86,46.9,46.9c-4.32,1.95-9.11,3.05-14.16,3.05H42.52Z"/><path class="cls-1" d="M176.23,151.54l27.61,27.61h0c5.45-2.02,9.61-5.13,11.16-6.38l3.52-2.84,3.52,2.84c2.39,1.93,10.98,8.24,20.88,8.24,1.41,0,2.8-.14,4.14-.37,9.35-3.44,20.4-10.49,18.5-24.41-2.3-16.83-43.66-30.63-43.66-30.63,0,0,3.83,22.04-19.84,23.52-2.95,.19-12.54,1.27-25.83,2.42h-.01Z"/><path class="cls-1" d="M138.33,89.7c.89,.18,1.77,.27,2.64,.27,6.02,0,11.42-4.22,12.69-10.35l1.38-6.66c1.45-7.02-3.06-13.88-10.08-15.33-7.02-1.45-13.88,3.06-15.33,10.08l-1.38,6.66c-1.45,7.02,3.06,13.88,10.08,15.33Z"/><path class="cls-1" d="M145.78,121.09l14.3,14.3c.34-.14,.68-.31,1-.5l10.77-6.45-6.08,12.04h-.01c-.2-.01-.4-.02-.6-.02h0l.42,.42,4.39,4.39,5.1,5.1h0c0-.29-.01-.55-.04-.84-.25-2.77-1.61-5.17-3.6-6.81l10.16-20.1,3.02-1.81c3.34-1.99,4.51-6.22,2.77-9.64l12.11-23.95c.75-1.5,.16-3.32-1.33-4.07-1.5-.76-3.32-.16-4.07,1.33l-11.57,22.88c-1.8-.43-3.75-.18-5.46,.84l-17.66,10.56-12.15-17.3c-1.77-4.02-5.37-7.16-9.98-8.17-5.49-1.2-10.94,.94-14.22,5.06l20.84,20.84,1.9,1.9Z"/></g></g></svg>