<?xml version="1.0" encoding="UTF-8"?><svg id="Ebene_2" xmlns="http://www.w3.org/2000/svg" viewBox="0 0 283.46 283.46"><defs><style>.cls-1{fill:#306da5;}</style></defs><g id="dtp_canoeing_allowed_regular"><g><g id="Wandern"><g><path class="cls-1" d="M165.76,140.48l-.08,.17-.18-.18c.09,0,.17,.01,.26,.01Z"/><path class="cls-1" d="M155.04,72.96l-1.38,6.67c-1.27,6.13-6.67,10.35-12.69,10.35-.87,0-1.75-.09-2.64-.28-7.01-1.45-11.52-8.31-10.07-15.32l1.37-6.67c1.45-7.01,8.31-11.53,15.33-10.07,7.02,1.44,11.53,8.31,10.08,15.32Z"/></g></g><g><path class="cls-1" d="M274.41,249.37c-.51,2.07-1.22,4.07-2.1,5.97-3.44,7.48-9.49,13.53-16.97,16.97-1.9,.88-3.9,1.59-5.97,2.1l.19,.19c2.08-.51,4.09-1.2,6-2.07,7.51-3.39,13.59-9.39,17.1-16.84,.89-1.88,1.61-3.87,2.15-5.92l-.4-.4Z"/><path class="cls-1" d="M240.95,0H42.52C19.04,0,0,19.04,0,42.52V240.95c0,23.48,19.04,42.51,42.52,42.51H240.95c23.48,0,42.51-19.03,42.51-42.51V42.52c0-23.48-19.03-42.52-42.51-42.52Zm34.51,240.95c0,2.9-.36,5.73-1.05,8.42l.4,.4c-.54,2.05-1.26,4.04-2.15,5.92-3.51,7.45-9.59,13.45-17.1,16.84-1.91,.87-3.92,1.56-6,2.07l-.19-.19c-2.69,.69-5.52,1.05-8.42,1.05H42.52c-19.03,0-34.52-15.48-34.52-34.51v-13.73c5.92-1.63,10.88-4.39,14.32-6.71,5.26,3.55,14.07,8.14,24.4,8.14s19.14-4.59,24.4-8.14c5.25,3.55,14.07,8.14,24.39,8.14s19.14-4.59,24.4-8.14c5.26,3.55,14.07,8.14,24.4,8.14s19.14-4.59,24.4-8.14c5.25,3.55,14.06,8.14,24.39,8.14,3.28,0,6.4-.46,9.31-1.21,2.14-.55,4.16-1.25,6.03-2.03,3.61-1.5,6.69-3.3,9.05-4.89,5.26,3.54,14.06,8.13,24.38,8.13,1.21,0,2.4-.06,3.57-.18,2.36-.24,4.63-.7,6.76-1.31,5.81-1.64,10.68-4.36,14.07-6.65,2.39,1.62,5.52,3.44,9.19,4.96v15.48Zm0-27.93c-2.69-1.51-4.69-3.02-5.67-3.81l-3.52-2.84-3.51,2.84c-2.35,1.89-10.64,7.98-20.28,8.23-.2,.01-.4,.01-.61,.01-3.23,0-6.31-.67-9.09-1.64-5.74-2.01-10.17-5.3-11.79-6.6l-3.49-2.82v-.02h-.01s-.01,0-.01,0v.02l-3.5,2.82c-1.84,1.49-7.38,5.59-14.37,7.37-2.06,.54-4.25,.87-6.51,.87-.24,0-.47,0-.7-.02-9.6-.28-17.84-6.34-20.18-8.22l-3.51-2.84-3.52,2.84c-2.4,1.93-10.98,8.24-20.88,8.24s-18.49-6.31-20.88-8.24l-3.52-2.84-3.52,2.84c-2.39,1.93-10.98,8.24-20.88,8.24s-18.48-6.31-20.88-8.24l-3.51-2.84-3.52,2.84c-2.4,1.93-10.98,8.24-20.88,8.24s-18.49-6.31-20.88-8.24l-3.52-2.84-3.51,2.84c-1.52,1.22-5.55,4.21-10.81,6.23v-12.15c6.21-1.6,11.42-4.49,14.99-6.89,5.26,3.54,14.07,8.13,24.4,8.13s19.14-4.59,24.4-8.13c5.25,3.54,14.07,8.13,24.39,8.13s19.14-4.59,24.4-8.13c5.26,3.54,14.07,8.13,24.4,8.13s19.14-4.59,24.4-8.13c1.4,.95,3.06,1.97,4.94,2.96,3.52,1.86,7.8,3.6,12.58,4.51,2.19,.42,4.49,.66,6.87,.66,8.59,0,16.13-3.17,21.45-6.28,1.08-.62,2.06-1.25,2.94-1.84,2.02,1.36,4.56,2.87,7.51,4.22,4.73,2.16,10.51,3.9,16.87,3.9,10.33,0,19.14-4.59,24.4-8.13,2.25,1.51,5.14,3.21,8.52,4.67v11.95Zm0-24.51c-2.36-1.37-4.11-2.7-5-3.42l-3.52-2.83-3.51,2.83c-2.4,1.94-10.99,8.24-20.89,8.24s-18.48-6.3-20.88-8.24l-3.49-2.82h0s-.02,0-.02,0h0s-3.5,2.83-3.5,2.83c-.55,.45-1.44,1.13-2.6,1.92-1.36,.92-3.09,1.98-5.1,2.97-3.68,1.8-8.27,3.35-13.18,3.35-9.9,0-18.48-6.3-20.88-8.24l-3.51-2.83-2.27,1.82-1.25,1.01c-.68,.55-1.84,1.44-3.38,2.43-3.79,2.45-9.87,5.55-16.64,5.79l6.76-13.36c.6-.17,1.19-.36,1.76-.56,2.05-.71,3.93-1.58,5.58-2.48,3.01-1.61,5.23-3.29,6.28-4.14l3.51-2.84,3.52,2.84c2.4,1.93,10.99,8.24,20.88,8.24,1.22,0,2.41-.1,3.58-.27,2.26-.33,4.4-.94,6.38-1.69,5.32-2.02,9.39-5.05,10.92-6.28l3.52-2.84,3.52,2.84c2.39,1.93,10.98,8.24,20.88,8.24,1.41,0,2.8-.14,4.14-.37,9.35-3.44,20.4-10.49,18.5-24.41-2.3-16.83-43.66-30.63-43.66-30.63,0,0,3.83,22.04-19.84,23.52-2.93,.18-12.39,1.25-25.53,2.39-.51,.04-1.03,.09-1.56,.13,.07-.53,.09-1.07,.07-1.63-.01-.14-.02-.29-.03-.44-.24-2.78-1.6-5.2-3.6-6.85l10.16-20.1,3.02-1.81c3.34-1.99,4.51-6.22,2.77-9.64l12.11-23.95c.76-1.5,.16-3.32-1.33-4.07-1.49-.76-3.31-.16-4.07,1.33l-11.57,22.88c-1.8-.43-3.75-.18-5.46,.84l-17.66,10.56-12.15-17.3c-1.77-4.02-5.38-7.16-10-8.17-5.4-1.17-10.76,.88-14.05,4.86-1.25,1.52-2.21,3.31-2.75,5.32-.07,.24-.13,.48-.18,.72l-5.92,27.12-1.44,6.62-1.62,7.4c-.71,3.24-.25,6.47,1.09,9.24-31.47-.08-62.77-3.2-78.33-13.76-1.7-1.15-22.63,10.82-7.45,31.73l.28,.23c2.39,1.93,6.21,8.17,20.88,8.24,14.33,.06,18.48-6.31,20.88-8.24l3.52-2.84,3.51,2.84c2.4,1.93,10.99,8.24,20.88,8.24s18.49-6.31,20.88-8.24l3.52-2.84,3.52,2.84c2.39,1.93,10.95,8.21,20.82,8.24l-5.91,11.68c-7.41-1.65-13.35-6.04-15.27-7.6l-3.52-2.83-3.52,2.83c-2.39,1.93-10.98,8.24-20.88,8.24s-18.48-6.31-20.88-8.24l-3.52-2.83-3.51,2.83c-2.4,1.94-10.98,8.24-20.88,8.24s-18.49-6.3-20.88-8.24l-3.52-2.83-3.51,2.83c-1.59,1.28-5.89,4.46-11.48,6.48V42.52c0-5.14,1.13-10.02,3.15-14.4,3.45-7.48,9.49-13.52,16.97-16.97,4.38-2.02,9.26-3.15,14.4-3.15H240.95c19.03,0,34.51,15.49,34.51,34.52V188.51Zm-134.35-46.05l3.29-15.03,.74-3.39,6.15,8.76c1.42,2.03,3.7,3.13,6.02,3.13,1.02,0,2.05-.21,3.01-.65,.26-.11,.51-.24,.76-.39l10.77-6.45-6.09,12.04-.08,.17-.18-.18c-.4-.01-.81,0-1.23,.03l-6.27,.53-16.89,1.43Z"/></g></g></g></svg>