<?xml version="1.0" encoding="UTF-8"?><svg id="Ebene_2" xmlns="http://www.w3.org/2000/svg" viewBox="0 0 283.46 283.46"><defs><style>.cls-1{fill:#306da5;}</style></defs><g id="dtp_windsurfing_allowed_regular"><g><path class="cls-1" d="M137.94,205.98l-.04,.14-.39,1.23-1.94,6.21c-1.9,.29-3.78,.57-5.62,.84l5.92-6.84,1.11-1.28,.1-.03,.86-.27Z"/><path class="cls-1" d="M232.78,80.6c-11.86-30.7-27.46-61.8-30.09-64.08-1.23-1.06-2.94-1.2-4.28-.35-.39,.24-1.4,1.01-1.61,2.47l-56.7,97.82,.57-1.89c-29.32-8.94-40.31-8.96-43.56-.08-1.2,3.28-.53,8.95,19.02,20.43,2.47,1.44,5.12,2.91,7.93,4.39,.26,.95,.69,1.85,1.27,2.66l-37.95,65.48c-40.73-7.19-69.04-9.21-71.16,3.3-2.61,15.33,33.5,28.76,77.28,37.28,55.97,10.89,122.81,15.12,125.23,2.92,1.69-8.52-21.52-18.25-54.75-27.12l-.34,1.09c-2.4,7.65-10.36,12.09-18.13,10.11-.26-.07-.52-.14-.79-.22-3.84-1.21-6.99-3.84-8.86-7.41-1.73-3.31-2.17-7.05-1.26-10.65-1.86-.41-3.74-.82-5.63-1.22l-16.54,19.09c-3.88,4.48-9.86,6.35-15.61,4.88-2.31-.59-4.5-1.73-6.32-3.31-4.89-4.23-6.49-10.88-4.56-16.67,.62-1.88,1.61-3.67,2.99-5.26l4.89-5.64,2.29-2.65s0,.04,0-.01l.69-.8,19.54-22.55c1.88-2.17,4.31-3.77,7.05-4.64l12.99-3.62c-5.76-2.95-11.08-6.29-15.87-10.09l10.64-18.38,21.53,9.84c1.28,.59,2.68,.84,4.08,.75,.45-.03,.91-.09,1.37-.2l2.69-.62c1.86,.71,3.73,1.41,5.62,2.1,.49,.19,.99,.36,1.48,.54l-5.84,12.48-.51,1.09-18.24,5.78h-.01l-18.81,5.97c-1.83,.58-3.46,1.66-4.72,3.11l-19.84,22.9-.1,.12-1.38,1.59-6.1,7.04c-.18,.21-.34,.42-.5,.63-3.21,4.33-2.58,10.47,1.56,14.06,1.26,1.09,2.71,1.83,4.23,2.22,3.7,.94,7.78-.19,10.45-3.28l14.34-16.55,.94-1.09,5.11-5.9h.01l.77-.89,.12-.14,4.21-4.86,11.75-3.73-2,6.37-.44,1.41-1.9,6.08-1.61,5.11-.11,.36c-1.65,5.25,1.27,10.84,6.52,12.48,.18,.06,.35,.11,.52,.15,5.1,1.3,10.37-1.6,11.97-6.67l.52-1.65,4.31-13.77,.81-2.59,4.71-3.42,4.66-3.38,9.03-6.55c.71-.52,1.33-1.11,1.85-1.76,.23-.19,.46-.4,.68-.62,1.21-1.2,2.24-2.63,3-4.27l1.18-2.52,7.54-16.1h0c8.33,2.3,16.12,4.1,23.01,5.29,7.18,1.24,12.48,1.68,16.41,1.6-3.92,3.63-9.39,6.99-15.95,10.08-6.57,3.09-14.24,5.91-22.57,8.47-2.37-.45-4.72-.9-7.05-1.38l-6.67,5.23-5.53,4.32-7.76,6.07c44.72-9.67,70.76-22.19,77.44-37.23,6.87-15.46,1.77-45.52-15.16-89.35Zm-99.69,47.98c-.28-.03-.57-.04-.85-.04-.2,0-.4,.01-.6,.02-.18,0-.37,.03-.55,.06-.04,0-.08,0-.12,.02-.16,.02-.32,.05-.48,.08-.38,.08-.76,.19-1.13,.32-.37,.13-.72,.29-1.07,.48-.17,.09-.34,.18-.51,.29-.12,.07-.24,.15-.35,.23-.08,.06-.17,.11-.25,.17t-.02,.02c-.11,.08-.22,.17-.33,.26-.16,.13-.3,.26-.45,.4-.14,.13-.28,.27-.41,.42-.14,.15-.27,.3-.39,.46-.13,.16-.25,.32-.36,.49-.12,.17-.23,.34-.33,.52s-.2,.36-.29,.55c-1.66-.89-3.25-1.78-4.78-2.66-14.73-8.52-17.65-13.3-17.52-14.28,1.25-3.41,6.53-5.68,35.98,3.23l-5.19,8.96Zm110.76,25.72c0,.34-.01,.68-.03,1.02,0,.18-.01,.35-.02,.53-.01,.41-.04,.82-.07,1.23-.03,.4-.06,.8-.1,1.2-.06,.62-.13,1.23-.21,1.83-.05,.3-.09,.59-.14,.89-.1,.57-.21,1.14-.33,1.68-.13,.6-.28,1.19-.45,1.75-.06,.19-.11,.39-.18,.58-.05,.18-.12,.36-.18,.54-.03,.09-.06,.19-.1,.28-.06,.19-.13,.37-.21,.55-.09,.25-.19,.49-.3,.72-.16,.37-.34,.74-.55,1.1,0,0,0,.01-.01,.01-2.35,.75-8.46,1.28-21.43-1.04-6.21-1.12-13.15-2.73-20.55-4.75h0s4.5-9.63,4.5-9.63c3.5-7.47,.28-16.37-7.2-19.86-4.18-1.96-8.8-1.81-12.68,.02h-.01l-26.47,6.11-17.4-7.95,26.93-46.48s29.87,17.87,66.92,18.96c.21,.65,.42,1.29,.63,1.92,.41,1.28,.81,2.54,1.19,3.79,1.16,3.73,2.2,7.33,3.12,10.79,.15,.58,.3,1.15,.45,1.72,.22,.86,.44,1.7,.64,2.54,.16,.62,.31,1.24,.45,1.85,.18,.76,.35,1.5,.52,2.24,.24,1.07,.47,2.13,.69,3.17,.12,.62,.25,1.23,.37,1.84,.08,.41,.16,.82,.23,1.22,.1,.5,.19,1,.27,1.5,.09,.49,.18,.98,.26,1.47s.16,.97,.23,1.45c.15,.95,.29,1.89,.41,2.81s.23,1.82,.32,2.71c.05,.44,.09,.88,.13,1.31,.03,.26,.05,.51,.07,.76,.03,.39,.06,.78,.09,1.16,.02,.24,.04,.48,.05,.71,.02,.23,.03,.47,.04,.7,.02,.3,.03,.58,.05,.88v.05c0,.06,.01,.13,.01,.19v.17c.02,.44,.04,.87,.04,1.29,.01,.24,.01,.48,.01,.71,.01,.24,.01,.47,.01,.7,0,.36,0,.71-.01,1.06Z"/><path class="cls-1" d="M196.47,129.54c-.35,.08-.7,.14-1.05,.19-6.1,.8-11.9-3.18-13.26-9.29l-1.54-6.93c-1.43-6.47,2.64-12.87,9.11-14.31,6.44-1.43,12.87,2.64,14.3,9.11l1.54,6.93c1.44,6.46-2.64,12.87-9.1,14.3Z"/><path class="cls-1" d="M253.13,215.53c-2.47,11.47-13.1,20.67-24.81,21.47-11.93,.81-35.02-8.41-42.47-17.8,3.29-1.74,24.79-10.19,21.31-17.58,3.54,7.53-.78,17.69-8.66,20.36,18.01,2.36,36.8-10.12,41.62-27.63,2.25,6.95,1.19,14.9-2.81,21.01-4,6.12-10.86,10.28-18.13,11,12.16,2.61,25.55-1.67,33.95-10.83Z"/><path class="cls-1" d="M49.07,254.11c1.48-1.2,2.95-2.41,4.43-3.61-8.97-2.16-18.75-.74-26.73,3.87,2.09-5.4,7.59-9.29,13.37-9.47-8.6-4.07-19.1-3.85-27.52,.57,4.69-6.98,13.95-9.71,22.32-8.87,16.66,1.68,30.76,14.72,48.32,11.77-11.4,1.91-22.79,3.83-34.19,5.74Z"/><path class="cls-1" d="M240.94,0H42.52C19.04,0,0,19.04,0,42.52V240.94c0,23.49,19.04,42.52,42.52,42.52H240.94c23.49,0,42.52-19.03,42.52-42.52V42.52c0-23.48-19.03-42.52-42.52-42.52Zm34.52,240.94c0,19.04-15.49,34.52-34.52,34.52H42.52c-19.04,0-34.52-15.48-34.52-34.52V42.52C8,23.49,23.48,8,42.52,8H240.94c19.03,0,34.52,15.49,34.52,34.52V240.94Z"/><path class="cls-1" d="M196.47,129.54c-.35,.08-.7,.14-1.05,.19-6.1,.8-11.9-3.18-13.26-9.29l-1.54-6.93c-1.43-6.47,2.64-12.87,9.11-14.31,6.44-1.43,12.87,2.64,14.3,9.11l1.54,6.93c1.44,6.46-2.64,12.87-9.1,14.3Z"/></g></g></svg>