<?xml version="1.0" encoding="UTF-8"?><svg id="Ebene_2" xmlns="http://www.w3.org/2000/svg" viewBox="0 0 283.46 283.46"><defs><style>.cls-1{fill:#306da5;}</style></defs><g id="dtp_dogs_forbidden_regular"><g><path class="cls-1" d="M240.94,0H42.52C19.04,0,0,19.04,0,42.52V240.94c0,23.48,19.04,42.52,42.52,42.52H240.94c23.48,0,42.52-19.04,42.52-42.52V42.52c0-23.48-19.04-42.52-42.52-42.52Zm0,8c19.03,0,34.52,15.49,34.52,34.52V240.94c0,5.21-1.17,10.16-3.25,14.59l-70.97-70.97-.91-.91-45.19-45.19-13.43-13.43-6.39-6.39-.68-.68L27.93,11.25c4.44-2.08,9.38-3.25,14.59-3.25H240.94ZM42.52,275.46c-19.03,0-34.52-15.49-34.52-34.52V42.52c0-5.06,1.1-9.86,3.07-14.19L98.48,115.74l.15,.15,1.44,1.44,63.92,63.92,91.01,91.01,.14,.14c-4.33,1.96-9.14,3.07-14.19,3.07H42.52Z"/><path class="cls-1" d="M192.64,230.27l.88-11.43-27.63-27.63,8.81,46.21c1.42,7.42,6.09,12.66,13.64,12.26l11.72,.02c11.93,0,0-13.15,0-13.15l-7.42-6.28Z"/><path class="cls-1" d="M91.56,116.89l-2.87-2.88c-13.1-3.52-25.22-11.16-27.25-13.7-2.67-3.35-11.79-15.46-11.79-15.46-3.04-4.36-6.96-2.46-7.23,2.86-.32,6.03,2.56,9.76,6.13,17.23,4.71,9.86,14.99,19.35,27.73,25.6,0,0,0,0,0,0-.04,3.45-.85,40.77-17.29,56.8-2.03,1.98-2.88,4.88-2.33,7.66l8.35,42.42c1.42,7.42,5.09,12.66,12.64,12.26l11.72,.02c11.94,0,0-13.15,0-13.15l-7.41-6.29-1.75-24.34s22.44-11.11,35.18-26.04c0,0,0,0,0,0,13.05-3.07,25.7-2.76,39.5,.32l-58.2-58.2-5.13-5.12Zm-14.39,14.08c.37,.18,.74,.35,1.12,.52-.03,.1-.05,.2-.07,.3l-1.06-.82s0,0,0,0Z"/><path class="cls-1" d="M141.8,117.06l2.31,2.31,13.15,13.15,3.87,3.87,20.26,20.26,12.83,12.83,7.73,7.73,3.47,3.47c5.83-6.28,10.04-14.66,10.1-21.65,0,0,0-.01,0-.02h0s1.22-42.92,1.22-42.92c.01-.46,.07-.9,.15-1.34,.51-1.21,1.01-2.36,1.47-3.46h0s0-.01,0-.01c1.56-2.18,4.11-3.62,6.99-3.7,9.11-.25,23.08-3.66,28.37-21.15,1.08-3.58-1.27-7.29-4.95-7.93-5.38-.93-13.55-2.8-22.33-6.4-2.61-6.18-7.56-11.37-14.26-14.14-5.97-2.47-13.12-2.6-19.28-.8,0,0,0,0,0,0l-10.68-3.86c-3.12-1.13-6.12,.58-7.21,3.2-.15-.07-.24-.11-.24-.11-2.38,6.35-14.38,14.35-8.38,18.35,2.23,1.49,7.24,.76,11.53-1.51-4.38,10.22-6.55,21.18-10.34,31.46-6.16,6.98-15.9,10.69-25.79,12.38Z"/></g></g></svg>