<?xml version="1.0" encoding="UTF-8"?><svg id="Ebene_2" xmlns="http://www.w3.org/2000/svg" viewBox="0 0 283.44 283.29"><defs><style>.cls-1{fill:#306da5;}</style></defs><g id="dtp_snowboarding_forbidden_regular"><g><path class="cls-1" d="M128.26,211.59c-3.27,2.33-7.09,3.62-11.08,3.75l-7.29,9.55c-3.68,4.83-9.27,7.6-15.34,7.6-4.25,0-8.29-1.37-11.68-3.95-7.35-5.6-9.55-15.49-5.76-23.54-7.82,3.69-15.65,6.94-23.48,9.66-29.21,4.17-19.77,24.23-10.85,33.64l.3,.32c10.55,10.18,25.01,14.09,34.8,7.79,33.46-17.91,63.71-38.77,92.05-61.41l-7.65-7.65-34.03,24.23Z"/><path class="cls-1" d="M72.48,106.09c-5.25,2.78-7.26,9.27-4.49,14.52,1.93,3.66,5.66,5.74,9.52,5.74,1.69,0,3.41-.4,5.01-1.25l11.43-6.03-15.92-15.91-5.55,2.93Z"/><path class="cls-1" d="M86.66,224.04c2.47,1.88,5.37,2.79,8.24,2.79,4.1,0,8.16-1.85,10.84-5.36l9.1-11.93c.68,.1,1.36,.15,2.05,.15,2.92,0,5.87-.88,8.43-2.71l33.05-23.54-18.54-18.52-.58,1.06-.68,1.23v-3.56l-28.03-28,1.56,32.59-28.01,36.74c-4.56,5.97-3.41,14.5,2.57,19.06Z"/><path class="cls-1" d="M185,86.62c2.33,1.12,4.8,1.65,7.23,1.65,5.75,0,11.27-2.97,14.36-8.12l2.91,1.39,4.29-8.94c4.83-10.08,.57-22.16-9.51-26.98-10.08-4.83-22.17-.57-27,9.51l-4.29,8.94,3.53,1.69c-2.96,8.02,.62,17.11,8.48,20.87Z"/><path class="cls-1" d="M240.92,0H42.52C19.03,0,0,19.02,0,42.49V240.8c0,23.47,19.03,42.49,42.52,42.49H240.92c23.48,0,42.52-19.02,42.52-42.49V42.49c0-23.47-19.03-42.49-42.52-42.49Zm0,8c19.03,0,34.52,15.48,34.52,34.5v31.51c-26.04,5.94-55.24,14.89-86.97,26.7l-4.14-7.16c-.43-.74-.93-1.41-1.51-2.01,.01,0,0,0-.01-.02-.82-1.25-1.78-2.45-2.86-3.56-6.2-6.34-15.04-8.52-23.06-6.51-.61-.04-1.24-.02-1.87,.05l-43.55,5.04,32.06,32.04,7.63,7.63,11.54,11.53,.07,.07c.09-.06,.18-.12,.27-.18,2.2-1.51,3.86-3.03,5.09-4.56l9.09-8.87,7.3,12.61,13.77,29.85c1.82,3.94,5.71,6.26,9.77,6.26,1.51,0,3.04-.32,4.5-.99,5.39-2.49,7.75-8.87,5.26-14.26l-13.97-30.3c-.14-.31-.29-.6-.46-.89l-9.84-17c29.81-11.02,57.28-19.48,81.89-25.23V240.8c0,5.17-1.15,10.08-3.2,14.48l-.19-.19-113.64-113.58-12.92-12.91-7-7-13.54-13.53-1.3-1.3-18.13-18.12L28.02,11.19c4.41-2.05,9.32-3.2,14.49-3.2H240.92ZM42.52,275.29c-19.03,0-34.52-15.48-34.52-34.5v-45.74s0,0,0,0c.4-.23,40.95-23.11,95.98-48.48,2.51-1.16,3.6-4.12,2.45-6.63-1.16-2.51-4.13-3.6-6.63-2.44-44.31,20.43-79.32,39.27-91.79,46.12V42.49c0-5.09,1.12-9.93,3.11-14.29L83.31,100.37l15.92,15.91,11.71,11.7,27.63,27.61v.02h.02l.05,.05,.12,.25v-.13l24.24,24.22,3.83,3.83,7.58,7.58,80.54,80.5,.27,.27c-4.36,1.99-9.2,3.11-14.29,3.11H42.52Z"/></g></g></svg>