<?xml version="1.0" encoding="UTF-8"?><svg id="Ebene_2" xmlns="http://www.w3.org/2000/svg" viewBox="0 0 283.46 283.46"><defs><style>.cls-1{fill:#306da5;}</style></defs><g id="dtp_smoking_forbidden_regular"><g><g><path class="cls-1" d="M240.94,0H42.52C19.04,0,0,19.04,0,42.52V240.94c0,23.49,19.04,42.52,42.52,42.52H240.94c23.49,0,42.52-19.03,42.52-42.52V42.52c0-23.48-19.03-42.52-42.52-42.52Zm0,275.46H42.52c-19.03,0-34.52-15.48-34.52-34.52V42.52c0-5.06,1.09-9.87,3.06-14.2l22.61,22.61,11.42,11.42,2.12,2.12,5.7,5.7,202.09,202.09,.14,.15c-4.34,1.96-9.14,3.05-14.2,3.05Zm34.52-34.52c0,5.21-1.16,10.16-3.24,14.6l-92.25-92.25-4.76-4.76-23.85-23.85-62.13-62.13-12.58-12.58-1.69-1.69-3.96-3.96L27.92,11.24c4.43-2.08,9.38-3.24,14.6-3.24H240.94c19.04,0,34.52,15.49,34.52,34.52V240.94Z"/><path class="cls-1" d="M45.08,70.41l10.54,10.54c1.27,2.28,2.96,4.34,5.01,6.03,1.06,.88,2.2,1.65,3.39,2.37l3.37,3.37c-2.18-.88-4.37-1.75-6.49-2.7-7.13-3.2-14.26-8.24-15.69-15.62-.26-1.32-.29-2.66-.13-3.99Zm-17.67,85.44c1.24-8.42,6.8-16.23,14.59-20.52,8.44-4.65,18.57-5.08,28.19-6.38,2.9-.4,5.87-.91,8.38-2.37,2.5-1.46,4.47-4.1,4.22-6.85-.05-.66,.35-.88,.48-1.13,3.29,4.96,1.16,12.12-3.47,16.09-4.63,3.97-11,5.45-17.13,6.42-6.13,.96-12.47,1.59-18,4.32-6.15,3.03-10.86,8.62-12.58,14.97-1.72,6.34-.44,13.32,3.44,18.66-6.27-5.96-9.37-14.8-8.12-23.21Zm56.9,83.93c-1.31,1.08-2.94,1.64-4.62,1.64-.84,0-1.7-.14-2.53-.43-12.82-4.48-22.01-17.23-22.88-31.73l-.06-.9c-.04-.65,0-1.29,.09-1.92,0-.04,0-.09,.01-.13,.07-1.49,.51-2.67,1.34-3.42,.08-.07,.17-.14,.25-.2,.01-.01,.02-.02,.03-.02,.12-.16,.24-.31,.39-.46-5.49-4.31-10.52-8.92-14.21-14.55-5.59-8.54-7.5-20.05-1.91-28.75,6.72-10.46,20.98-13.28,33.1-17.45,4.7-1.62,9.51-3.76,12.4-7.64,2.71-3.65,3.31-8.38,2.72-12.77-.14-1.03-.33-2.06-.6-3.07-.02-.02-.04-.03-.06-.04-5.46-3.39-11.79-5.52-18.32-6.18-8.72-.88-17.75,.84-26.23-1.2-12.85-3.09-22.15-14.98-23.19-27.53-.83-9.98,3.06-20.01,9.71-27.96l12.32,12.32c-.88,2.22-1.28,4.57-1.07,6.93,.73,8.09,8.06,14.13,15.61,17.88,6.81,3.39,14.36,5.75,20.42,10.15,.66,.46,1.3,.96,1.92,1.49,1.77,1.5,3.33,3.21,4.65,5.07,1.96,2.75,3.41,5.83,4.24,9.07,2.67,1.65,5.18,3.68,6.59,6.38,1.42,2.75,1.58,5.95,1.19,9.01-1.28,10.07-8.62,19.33-18.5,23.32-7.66,3.1-16.84,3.37-23,8.71-6.49,5.62-7.32,15.35-4.31,23.07,1.79,4.6,4.68,8.66,7.98,12.45l65.47-52.34,4.77,4.77-63.86,51.06c3.15,2.15,6.63,5.62,9.81,9.92,4.97,6.72,7.83,13.58,7.83,18,0,.32-.02,.63-.05,.93l70.12-56.07,4.76,4.77-72.32,57.82Z"/></g><g><g><path class="cls-1" d="M56.33,202.21c-.15,.15-.27,.3-.39,.46,.18-.13,.36-.24,.56-.33-.06-.04-.12-.08-.17-.13Z"/><path class="cls-1" d="M151.87,177.19l-70.12,56.07c.03-.3,.05-.61,.05-.93,0-4.42-2.86-11.28-7.83-18-3.18-4.3-6.66-7.77-9.81-9.92l63.86-51.06-4.77-4.77-65.47,52.34-.68,.55c-.28,.23-.54,.48-.77,.74,.05,.05,.11,.09,.17,.13-.2,.09-.38,.2-.56,.33-.01,0-.02,.01-.03,.02-.82,1.03-1.33,2.28-1.59,3.62-.01,.04-.01,.09-.01,.13-.1,.63-.13,1.27-.09,1.92l.06,.9c.87,14.5,10.06,27.25,22.88,31.73,.83,.29,1.69,.43,2.53,.43,1.68,0,3.31-.56,4.62-1.64l72.32-57.82-4.76-4.77Zm-86.09,32.08c.21,.15,.43,.3,.65,.46-.06,0-.16-.01-.65-.46Z"/></g><path class="cls-1" d="M262.31,94.75c-2.61,3.02-36.01,30.69-50.57,42.71h0c-.41,.61-.9,1.14-1.47,1.61l-.04,.03-25.78,20.61-4.76-4.76,21.35-17.07-.02-1.79c-.16-10.89-7.44-21.79-16.94-25.36l-1.88-.7-26.36,21.07-4.76-4.76,24.86-19.88,.09-.07,3.09-2.76c.12-.11,12.56-11.19,25.49-22.23,26.81-22.89,29.46-23.32,31.05-23.58,9.63-1.58,18.85,8.24,23.82,17.13,1.84,3.28,7.48,14.42,2.83,19.8Z"/><g><path class="cls-1" d="M66.43,209.73c-.06,0-.16-.01-.65-.46,.21,.15,.43,.3,.65,.46Z"/><path class="cls-1" d="M55.66,202.89c-.83,.75-1.27,1.93-1.34,3.42,.26-1.34,.77-2.59,1.59-3.62-.08,.06-.17,.13-.25,.2Z"/></g><g><g><path class="cls-1" d="M66.43,209.73c-.06,0-.16-.01-.65-.46,.21,.15,.43,.3,.65,.46Z"/><path class="cls-1" d="M87.83,117.98s-.04-.03-.06-.04c-5.46-3.39-11.79-5.52-18.32-6.18-8.72-.88-17.75,.84-26.23-1.2-12.85-3.09-22.15-14.98-23.19-27.53-.83-9.98,3.06-20.01,9.71-27.96l12.32,12.32c-.88,2.22-1.28,4.57-1.07,6.93,.73,8.09,8.06,14.13,15.61,17.88,6.81,3.39,14.36,5.75,20.42,10.15,.66,.46,1.3,.96,1.92,1.49,1.77,1.5,3.33,3.21,4.65,5.07,1.96,2.75,3.41,5.83,4.24,9.07Z"/><path class="cls-1" d="M95.61,133.37c-1.28,10.07-8.62,19.33-18.5,23.32-7.66,3.1-16.84,3.37-23,8.71-6.49,5.62-7.32,15.35-4.31,23.07,1.79,4.6,4.68,8.66,7.98,12.45l-.68,.55c-.28,.23-.54,.48-.77,.74-5.49-4.31-10.52-8.92-14.21-14.55-5.59-8.54-7.5-20.05-1.91-28.75,6.72-10.46,20.98-13.28,33.1-17.45,4.7-1.62,9.51-3.76,12.4-7.64,2.71-3.65,3.31-8.38,2.72-12.77-.14-1.03-.33-2.06-.6-3.07,2.67,1.65,5.18,3.68,6.59,6.38,1.42,2.75,1.58,5.95,1.19,9.01Z"/><path class="cls-1" d="M101.86,77.12L62.6,37.86c3.01-.29,6.04-.26,9.04,.09,12.94,1.53,24.97,9.56,29.8,20.99,2.42,5.72,2.81,12.53,.42,18.18Z"/></g><path class="cls-1" d="M67.39,92.72c-2.18-.88-4.37-1.75-6.49-2.7-7.13-3.2-14.26-8.24-15.69-15.62-.26-1.32-.29-2.66-.13-3.99l10.54,10.54c1.27,2.28,2.96,4.34,5.01,6.03,1.06,.88,2.2,1.65,3.39,2.37l3.37,3.37Z"/><path class="cls-1" d="M79.8,134.69c-4.63,3.97-11,5.45-17.13,6.42-6.13,.96-12.47,1.59-18,4.32-6.15,3.03-10.86,8.62-12.58,14.97-1.72,6.34-.44,13.32,3.44,18.66-6.27-5.96-9.37-14.8-8.12-23.21,1.24-8.42,6.8-16.23,14.59-20.52,8.44-4.65,18.57-5.08,28.19-6.38,2.9-.4,5.87-.91,8.38-2.37,2.5-1.46,4.47-4.1,4.22-6.85-.05-.66,.35-.88,.48-1.13,3.29,4.96,1.16,12.12-3.47,16.09Z"/></g></g></g></g></svg>