<?xml version="1.0" encoding="UTF-8"?><svg id="Ebene_2" xmlns="http://www.w3.org/2000/svg" viewBox="0 0 283.46 283.46"><defs><style>.cls-1{fill:#306da5;}</style></defs><g id="dtp_dryness_allowed_regular"><g><path class="cls-1" d="M240.94,0H42.52C19.04,0,0,19.04,0,42.52V240.94c0,23.48,19.04,42.52,42.52,42.52H240.94c23.48,0,42.52-19.04,42.52-42.52V42.52c0-23.48-19.04-42.52-42.52-42.52Zm-4.09,275.46c2.81-1.49,4.17-5.1,2.47-8.2l-12.49-22.85c-.6-1.09-1.52-1.98-2.64-2.52l-36.61-17.86c-2.35-1.15-5.17-.64-6.98,1.25l-25.58,26.72c-1.07,1.12-1.67,2.61-1.67,4.16v13.99c0,2.31,1.3,4.31,3.21,5.32h-16.41c1.91-1.01,3.21-3.01,3.21-5.32v-13.83c0-1.6-.64-3.14-1.77-4.27l-36.67-36.47c-1.55-1.54-3.81-2.12-5.9-1.52l-37.14,10.67c-2.24,.64-3.91,2.53-4.28,4.83l-6.33,39.63c-.42,2.65,.95,5.11,3.14,6.27h-11.87c-1.7,0-3.37-.13-5-.37,1.03-.56,2.96-1.87,3.31-4l6.8-42.62c.39-2.44-.75-4.87-2.88-6.13l-35.67-21.11c-.35-.21-.72-.36-1.08-.49v-11.77l44.2,26.16c1.43,.84,3.13,1.06,4.73,.6l40.63-11.68c1.7-.49,3.1-1.7,3.82-3.31l7.88-17.47c1.8-3.98-1.12-8.49-5.48-8.49H8V42.52c0-19.03,15.49-34.52,34.52-34.52H240.94c19.03,0,34.52,15.49,34.52,34.52V174.8h-86.31c-3.65,0-6.46,3.22-5.96,6.83l3.84,28.03c.27,1.99,1.52,3.71,3.32,4.59l36.54,17.82c1.67,.81,3.62,.81,5.28,0l43.28-21.17v11.18c-.22,.08-.44,.16-.66,.27l-32.71,16c-3.08,1.51-4.28,5.28-2.64,8.29l14.23,26.04c.06,.11,.13,.19,.19,.24-4,1.62-8.36,2.52-12.93,2.52h-4.09Z"/><path class="cls-1" d="M172.87,180c-.41-2.98-2.95-5.2-5.96-5.2h-38.96c-2.37,0-4.51,1.39-5.48,3.54l-10.93,24.22c-1.03,2.29-.54,4.97,1.24,6.74l31.13,30.97c2.39,2.37,6.26,2.33,8.59-.11l23.02-24.05c1.27-1.33,1.86-3.16,1.62-4.98l-4.27-31.14Z"/><path class="cls-1" d="M183.43,90.57c0,3.34,3.49,6.04,7.79,6.04h15.58c4.3,0,7.79-2.7,7.79-6.04s-3.49-6.04-7.79-6.04h-15.58c-4.3,0-7.79,2.7-7.79,6.04Z"/><path class="cls-1" d="M180.83,59.92l11.02-11.02c3.04-3.04,3.6-7.42,1.24-9.78-2.36-2.36-6.74-1.8-9.78,1.24l-11.02,11.02c-3.04,3.04-3.6,7.42-1.24,9.78,2.36,2.36,6.74,1.8,9.78-1.24Z"/><path class="cls-1" d="M141.49,49.11c3.34,0,6.04-3.49,6.04-7.79v-15.58c0-4.3-2.7-7.79-6.04-7.79s-6.04,3.49-6.04,7.79v15.58c0,4.3,2.7,7.79,6.04,7.79Z"/><path class="cls-1" d="M102.3,60.26c3.04,3.04,7.42,3.6,9.78,1.24,2.36-2.36,1.8-6.74-1.24-9.78l-11.02-11.02c-3.04-3.04-7.42-3.6-9.78-1.24s-1.8,6.74,1.24,9.78l11.02,11.02Z"/><path class="cls-1" d="M100.03,91.05c0-3.34-3.49-6.04-7.79-6.04h-15.58c-4.3,0-7.79,2.7-7.79,6.04s3.49,6.04,7.79,6.04h15.58c4.3,0,7.79-2.7,7.79-6.04Z"/><path class="cls-1" d="M112.42,122.31c-2.36-2.36-6.74-1.8-9.78,1.24l-11.02,11.02c-3.04,3.04-3.6,7.42-1.24,9.78s6.74,1.8,9.78-1.24l11.02-11.02c3.04-3.04,3.6-7.42,1.24-9.78Z"/><path class="cls-1" d="M135.93,142.14v15.58c0,4.3,2.7,7.79,6.04,7.79s6.04-3.49,6.04-7.79v-15.58c0-4.3-2.7-7.79-6.04-7.79s-6.04,3.49-6.04,7.79Z"/><path class="cls-1" d="M193.42,144c2.36-2.36,1.8-6.74-1.24-9.78l-11.02-11.02c-3.04-3.04-7.42-3.6-9.78-1.24-2.36,2.36-1.8,6.74,1.24,9.78l11.02,11.02c3.04,3.04,7.42,3.6,9.78,1.24Z"/><circle class="cls-1" cx="141.73" cy="91.73" r="32.14" transform="translate(-23.35 127.09) rotate(-45)"/></g></g></svg>