<?xml version="1.0" encoding="UTF-8"?><svg id="Ebene_2" xmlns="http://www.w3.org/2000/svg" viewBox="0 0 283.47 283.47"><defs><style>.cls-1{fill:#306da5;}</style></defs><g id="dtp_windsurfing_allowed_regular_Kopie"><g><g><path class="cls-1" d="M179.85,204.68l-2.9-2.9-6.44,5.03c3.21-.69,6.32-1.4,9.34-2.13Z"/><path class="cls-1" d="M145.69,120.46l20.98-36.2,.08-.14-.07,.13s29.87,17.88,66.91,18.96c0,0,0,0,0,0,9.99,30.34,12.82,52.56,7.95,63.51-.16,.37-.34,.74-.55,1.1-2.35,.76-8.47,1.29-21.44-1.03-6.21-1.12-13.15-2.73-20.55-4.75h0s4.5-9.63,4.5-9.63c3.5-7.47,.28-16.37-7.2-19.86-4.18-1.96-8.8-1.81-12.68,.02h-.03s-20.94,4.84-20.94,4.84l10.14,10.14,4.03,4.03,5.41,5.41,8.42,8.42,4.61,4.61,1.36-2.9c8.33,2.3,16.12,4.1,23.01,5.29,7.18,1.24,12.48,1.68,16.41,1.6-5.33,4.94-13.53,9.37-23.47,13.32l5.37,5.37c16.17-6.85,26.22-14.59,30.01-23.13,6.87-15.46,1.77-45.52-15.16-89.35-11.86-30.7-27.46-61.8-30.09-64.08-1.23-1.06-3.02-1.32-4.28-.35-1,.77-.9,1.25-1.61,2.47l-56.26,97.05,5.14,5.14Z"/><path class="cls-1" d="M135.88,207.19l-5.92,6.84c1.84-.27,3.72-.55,5.62-.84l1.94-6.21,.39-1.23,.04-.14-.86,.27-.1,.03-1.11,1.28Z"/><path class="cls-1" d="M163.99,223.46l-.34,1.09c-2.4,7.65-10.36,12.09-18.13,10.11-.26-.07-.52-.14-.79-.22-3.84-1.21-6.99-3.84-8.86-7.41-1.73-3.31-2.17-7.05-1.26-10.65-1.86-.41-3.74-.82-5.63-1.22l-16.54,19.09c-3.88,4.48-9.86,6.35-15.61,4.88-2.31-.59-4.5-1.73-6.32-3.31-4.89-4.23-6.49-10.88-4.56-16.67,.62-1.88,1.61-3.67,2.99-5.26l4.89-5.64,2.3-2.64s0,0,0,0c0,0,0,0,0-.02l.69-.8,19.54-22.55c1.88-2.17,4.31-3.77,7.05-4.64l12.99-3.62c-5.76-2.95-11.08-6.29-15.87-10.09l6.79-11.74-5.12-5.12-34.81,60.05c-40.73-7.19-69.04-9.21-71.16,3.3-2.61,15.33,33.5,28.76,77.28,37.28,55.97,10.89,122.81,15.12,125.23,2.92,1.69-8.52-21.52-18.25-54.75-27.12Z"/><path class="cls-1" d="M166.84,191.67l-6.07-6.07-1.24-1.24-1.51-1.51-7.77-7.77-6.9,2.19h-.01l-18.81,5.97c-1.83,.58-3.46,1.66-4.72,3.11l-19.84,22.9-.1,.12-1.38,1.59-6.1,7.04c-.18,.21-.34,.42-.5,.63-3.21,4.33-2.58,10.47,1.56,14.06,1.26,1.09,2.71,1.83,4.23,2.22,3.7,.94,7.78-.19,10.45-3.28l14.34-16.55,.94-1.09,5.11-5.9h.01l.77-.89,.12-.14,4.21-4.86,11.75-3.73-2,6.37-.44,1.41-1.9,6.08-1.61,5.11-.11,.36c-1.65,5.25,1.27,10.84,6.52,12.48,.18,.06,.35,.11,.52,.15,5.1,1.3,10.37-1.6,11.97-6.67l.52-1.65,4.31-13.77,.81-2.59,4.71-3.42,4.66-3.38,.45-.33-5.61-5.61-1.34-1.34Z"/><path class="cls-1" d="M195.43,129.36c.35-.05,.7-.11,1.05-.19,6.46-1.44,10.54-7.84,9.1-14.31l-1.54-6.93c-1.44-6.46-7.86-10.54-14.31-9.1-6.46,1.44-10.54,7.84-9.1,14.31l1.54,6.93c1.36,6.11,7.16,10.09,13.25,9.29Z"/><path class="cls-1" d="M140.68,114.2c-.6-.18-1.2-.36-1.79-.54l1.5,1.5,.29-.96Z"/><path class="cls-1" d="M191.4,216.23c-2.57,1.23-4.68,2.15-5.54,2.6,4.05,5.11,12.74,10.17,21.73,13.59l-16.19-16.19Z"/><path class="cls-1" d="M238.4,213.17c3.09-5.82,3.76-12.91,1.73-19.19-1.39,5.04-3.94,9.67-7.28,13.64l5.55,5.55Z"/><path class="cls-1" d="M249.32,224.09c1.81-2.71,3.13-5.73,3.82-8.93-2.05,2.23-4.39,4.18-6.95,5.8l3.13,3.13Z"/><path class="cls-1" d="M34.95,236.23c-8.37-.84-17.63,1.89-22.32,8.87,8.42-4.42,18.92-4.64,27.52-.58-5.78,.18-11.28,4.08-13.38,9.47,7.99-4.61,17.76-6.02,26.73-3.87-1.47,1.2-2.95,2.41-4.42,3.61,11.4-1.92,22.79-3.83,34.19-5.75-17.56,2.95-31.66-10.09-48.32-11.76Z"/></g><path class="cls-1" d="M240.95,0H42.52C19.04,0,0,19.04,0,42.52V240.95c0,23.48,19.04,42.52,42.52,42.52H240.95c23.48,0,42.52-19.04,42.52-42.52V42.52c0-23.48-19.04-42.52-42.52-42.52ZM42.52,8H240.95c19.03,0,34.52,15.49,34.52,34.52V240.95c0,5.08-1.1,9.91-3.09,14.26l-.14-.14-26.55-26.55-90.91-90.91-12.04-12.04-5.14-5.14L70.97,53.8l-15.29-15.29L28.26,11.09c4.35-1.99,9.18-3.09,14.26-3.09ZM240.95,275.47H42.52c-19.03,0-34.52-15.49-34.52-34.52V42.52c0-5.19,1.15-10.12,3.21-14.54L47.22,63.99l5.71,5.71,44.26,44.26,22.72,22.73h.02s5.22,5.23,5.22,5.23l4.97,4.97,.16,.16,26.09,26.09,2.36,2.36,14.23,14.23,4.34,4.34,1.16,1.16,4.68,4.68,3.16,3.16,10.43,10.43,5.85,5.85,2.48,2.48,13.96,13.96,36.47,36.47c-4.42,2.06-9.35,3.21-14.54,3.21Z"/></g></g></svg>