<?xml version="1.0" encoding="UTF-8"?><svg id="Ebene_2" xmlns="http://www.w3.org/2000/svg" viewBox="0 0 283.46 283.46"><defs><style>.cls-1{fill:#306da5;}</style></defs><g id="dtp_daytime_forbidden_regular"><g><path class="cls-1" d="M240.94,0H42.52C19.04,0,0,19.04,0,42.52V240.94c0,23.48,19.04,42.52,42.52,42.52H240.94c23.48,0,42.52-19.04,42.52-42.52V42.52c0-23.48-19.04-42.52-42.52-42.52Zm0,8c19.03,0,34.52,15.49,34.52,34.52V240.94c0,5.21-1.17,10.16-3.25,14.59l-.12-.12-76.96-76.96-18.78-18.78L27.93,11.25c4.44-2.08,9.38-3.25,14.59-3.25H240.94ZM8,240.94V42.52c0-5.06,1.1-9.86,3.07-14.19L104.17,121.43l150.83,150.83,.14,.14c-.5,.23-1.01,.44-1.52,.64-.03-.05-.07-.1-.1-.14-1.46,.58-2.96,1.06-4.51,1.43l-37.21-37.21c-20.42-10.92-44.4-16.94-70.07-16.94-46.63,0-87.72,19.89-111.88,52.87-12.78-5.06-21.85-17.54-21.85-32.1Z"/><path class="cls-1" d="M188.76,153.13c-3.57-3.57-8.7-4.22-11.47-1.45-.15,.15-.29,.3-.41,.46l25.8,25.8c.16-.13,.31-.26,.46-.41,2.77-2.77,2.12-7.91-1.45-11.47l-12.93-12.93Z"/><path class="cls-1" d="M191.42,117c0,3.91,4.09,7.09,9.14,7.09h18.28c5.05,0,9.14-3.17,9.14-7.09s-4.09-7.09-9.14-7.09h-18.28c-5.05,0-9.14,3.17-9.14,7.09Z"/><path class="cls-1" d="M188.37,81.04l12.92-12.92c3.57-3.57,4.22-8.71,1.45-11.47-2.77-2.77-7.9-2.12-11.47,1.45l-12.92,12.92c-3.57,3.57-4.22,8.71-1.45,11.47,2.77,2.77,7.9,2.12,11.47-1.45Z"/><path class="cls-1" d="M142.22,68.36c3.91,0,7.09-4.09,7.09-9.14v-18.28c0-5.05-3.17-9.14-7.09-9.14s-7.09,4.09-7.09,9.14v18.28c0,5.05,3.17,9.14,7.09,9.14Z"/><path class="cls-1" d="M107.7,82.88c2.77-2.76,2.12-7.9-1.45-11.47l-12.92-12.92c-3.57-3.57-8.71-4.22-11.48-1.45,0,.01-.03,.03-.03,.04l25.84,25.84s.03-.03,.04-.04Z"/><path class="cls-1" d="M64.63,126.18h18.27c5.05,0,9.14-3.17,9.14-7.09,0-.75-.15-1.48-.43-2.16l-3.82-3.82c-1.41-.7-3.09-1.1-4.89-1.1h-18.27c-5.05,0-9.14,3.17-9.14,7.08s4.09,7.09,9.14,7.09Z"/><path class="cls-1" d="M80.72,179.45c2.77,2.77,7.9,2.12,11.47-1.45l12.92-12.92c3.57-3.57,4.22-8.71,1.45-11.47-2.77-2.77-7.9-2.12-11.47,1.45l-12.92,12.92c-3.57,3.57-4.22,8.71-1.45,11.47Z"/><path class="cls-1" d="M141.25,204.29c3.91,0,7.08-4.09,7.08-9.14v-18.27c0-1.4-.24-2.72-.68-3.91l-5.07-5.06c-.43-.12-.88-.17-1.33-.17-3.92,0-7.09,4.09-7.09,9.14v18.27c0,5.05,3.17,9.14,7.09,9.14Z"/><path class="cls-1" d="M127.76,153.08l-21.06-21.06c1.83,4.62,4.63,8.95,8.37,12.69,3.74,3.74,8.07,6.54,12.69,8.37Z"/><path class="cls-1" d="M168.4,91.38c-14.56-14.56-38.05-14.73-52.8-.52l53.32,53.32c14.2-14.75,14.03-38.24-.52-52.8Z"/></g></g></svg>