<?xml version="1.0" encoding="UTF-8"?><svg id="Ebene_2" xmlns="http://www.w3.org/2000/svg" viewBox="0 0 283.44 283.29"><defs><style>.cls-1{fill:#306da5;}</style></defs><g id="dtp_snowshoeing_allowed_regular"><g><path class="cls-1" d="M143.65,187.76c-.21-1.36-1.49-2.3-2.85-2.09-5.19,.79-10.48,1.35-15.73,1.66-1.38,.08-2.43,1.26-2.35,2.64,.08,1.33,1.18,2.35,2.49,2.35,.05,0,.1,0,.15,0,5.4-.32,10.85-.89,16.19-1.7,1.37-.21,2.3-1.48,2.1-2.85Z"/><path class="cls-1" d="M143.78,74.83c1.26,.33,2.53,.48,3.77,.48,6.67,0,12.76-4.48,14.51-11.23l2.17-8.35c2.08-8.01-2.74-16.2-10.76-18.27-8.02-2.08-16.2,2.74-18.28,10.75l-2.17,8.35c-2.08,8.01,2.74,16.2,10.76,18.27Z"/><path class="cls-1" d="M186.99,210.39c-3.11,.43-6.81,.94-11.36,1.28l-9.27-39.27c-.59-2.49-1.99-4.72-3.99-6.32l-27.25-21.86,12.39-31.33,6.94,11.91c.61,1.05,1.44,1.95,2.42,2.65l28.34,20.12c1.49,1.06,3.21,1.57,4.92,1.57,2.66,0,5.28-1.24,6.94-3.57,2.72-3.82,1.82-9.13-2.01-11.85l-26.84-19.06-16.84-28.93c-.88-1.51-2.15-2.65-3.62-3.36-1.38-1.2-2.97-2.2-4.76-2.91-3.41-1.35-6.99-1.46-10.28-.59-.53,0-1.07,.05-1.62,.15l-35.93,6.92c-2.35,.45-4.41,1.88-5.65,3.93l-21.82,35.9c-2.44,4.01-1.16,9.23,2.85,11.67,1.38,.84,2.9,1.24,4.41,1.24,2.87,0,5.67-1.45,7.27-4.08l19.87-32.68,15.47-2.98-15.66,39.6c-.63,1.6-.99,3.23-1.11,4.86-.52,1.28-.84,2.66-.87,4.13l-.82,40.3-13.08,34.02c-8.35-1.62-15.33-.4-19.54,3.56-2.94,2.76-4.1,6.6-3.18,10.53,1.56,6.64,8.42,12.24,18.81,15.37,10.76,3.25,19.1,4.43,25.54,4.43,10.26,0,15.7-3.01,18.42-5.47,3.56-3.21,5.02-7.59,4.1-12.33-1.83-9.47-7.27-9.92-15.49-10.6-1.76-.14-3.72-.31-5.92-.56l12.52-32.58c.48-1.24,.74-2.56,.76-3.89l.54-26.68,22.31,17.9,7.12,30.19c-9.04-.05-14.13,.8-17.35,3.8-2.12,1.97-3.22,4.8-3.35,8.64-.1,3.01,.81,5.56,2.7,7.58,4.28,4.55,13.06,5.72,24.94,6.07,1.99,.06,3.9,.09,5.73,.09,29.71,0,38.55-7.4,41.17-12,1.86-3.26,1.72-6.89-.4-10.23-4.56-7.19-9.8-6.46-18.47-5.26Zm-72.78,22.5c8.37,.69,9.48,.98,10.47,6.1,.54,2.78-.28,5.25-2.36,7.13-5.97,5.39-20.4,5.33-38.61-.16-11.56-3.48-16.26-9.74-14.94-14.12,.62-2.06,2.59-3.66,5.54-4.49,1.23-.35,2.87-.63,4.98-.63,1.36,0,2.92,.12,4.69,.42-2.26,5.92,.7,12.55,6.62,14.82,1.36,.52,2.75,.77,4.12,.77,4.62,0,8.98-2.8,10.74-7.37l1.23-3.21c2.85,.37,5.34,.57,7.52,.75Zm86.95-9.69c-2.82,4.96-15.35,9.96-42.04,9.19-8.68-.26-17.97-.97-21.16-4.36-.9-.96-1.29-2.13-1.24-3.69,.1-3.1,.98-4.26,1.63-4.86,1.91-1.77,6.13-2.35,12.9-2.35,.66,0,1.34,0,2.04,.02l.63,2.66c1.25,5.29,5.97,8.86,11.18,8.86,.87,0,1.76-.1,2.65-.31,5.34-1.26,8.92-6.06,8.85-11.32,4.43-.35,8.06-.85,11.13-1.27,8.63-1.2,10.55-1.31,13.16,2.8,1.04,1.63,1.12,3.16,.27,4.66Z"/><path class="cls-1" d="M240.92,0H42.52C19.03,0,0,19.02,0,42.49V240.8c0,23.47,19.03,42.49,42.52,42.49H240.92c23.48,0,42.52-19.02,42.52-42.49V42.49c0-23.47-19.03-42.49-42.52-42.49Zm0,275.29H42.52c-19.03,0-34.52-15.48-34.52-34.5v-26.97c7.59-2.95,43.65-16.4,79.29-20.27,1.37-.15,2.36-1.38,2.21-2.75-.15-1.37-1.39-2.36-2.76-2.21-33.91,3.69-68.14,15.87-78.74,19.89V42.49C8,23.47,23.48,8,42.52,8H240.92c19.03,0,34.52,15.48,34.52,34.5V127.72s-.05,0-.07,0c-33.42,6.35-95.46,39.79-103.94,46.68-1.07,.87-1.23,2.44-.36,3.51,.49,.61,1.21,.92,1.94,.92,.55,0,1.11-.18,1.58-.56,7.96-6.47,68.62-38.99,100.86-45.48v107.99c0,19.02-15.48,34.5-34.52,34.5Z"/></g></g></svg>