<?xml version="1.0" encoding="UTF-8"?><svg id="Ebene_2" xmlns="http://www.w3.org/2000/svg" viewBox="0 0 283.46 283.46"><defs><style>.cls-1{fill:#306da5;}</style></defs><g id="dtp_climbing_allowed_regular"><g><path class="cls-1" d="M240.94,0H42.52C19.04,0,0,19.04,0,42.52V240.94c0,23.48,19.04,42.52,42.52,42.52H240.94c23.48,0,42.52-19.04,42.52-42.52V42.52c0-23.48-19.04-42.52-42.52-42.52Zm-100.61,118.26l.86,.47v-43.88l.28-.39c2.07-2.93,2.01-6.72,.15-9.55h0s25.87-35.43,25.87-35.43l-13.35,59.11,19.64,29.12-8.53,14.3-1.29,2.17,.41,1.22-21.9-12.73c-.42-.24-.84-.45-1.28-.64-2.87-1.22-6.12-1.22-9,.02-.19,.07-.37,.15-.55,.24l-11.99,5.87-11.45,5.61h0l-17.09-20.77,19.37-.47c2.69-.07,5.19-1.4,6.74-3.61l14.97-21.27v30.64c2.79-.78,5.54-.74,8.14-.02Zm-21.34,35.83h.01s12.12-5.95,12.12-5.95l1.07-.52,4.04-1.98,4.96,2.88,31.1,18.09-1.19,2.39-6.11,12.22-2.33,4.68-19.89-15.45c-.5-.38-1.03-.73-1.58-1.03-.01-.01-.02-.01-.03-.02l-8.97-4.81-10.27-5.52-3.33-1.79h-.01c.23-1.06,.37-2.12,.41-3.19ZM8,240.94V42.52c0-19.03,15.49-34.52,34.52-34.52H172.03l-38.82,53.17c-2.2,.34-4.26,1.54-5.64,3.5l-21.78,30.95-36.09,.88c-.86,.02-1.69,.17-2.49,.44-3.32,.39-6.57,1.69-9.35,3.97-2.02,1.67-3.58,3.68-4.67,5.89-.09,.13-.19,.24-.27,.37l-22.4,36.67c-1.7,2.78-1.66,6.29,.11,9.04l21.91,33.99c1.09,1.69,2.69,2.85,4.46,3.44v.02s.26,79.5,.26,79.5l9-.03-.17-52.38c6.2,13.8,16.47,26.31,33.3,26.31h.28c12.96-.11,23.21-4.08,30.47-11.82,9.13-9.73,10.78-22.64,11.03-28.53l-8.98-7.24v4.58c.02,.14,.74,15.07-8.61,25.03-5.51,5.87-13.58,8.89-23.99,8.98-22.82,.18-30.58-33.6-32.83-47.77,1.81-2.73,1.96-6.38,.07-9.31l-19.02-29.5,10.91-17.86,28.41,34.52c1.66,2.02,3.68,3.57,5.89,4.66,.02,.01,.03,.03,.05,.04,.47,.37,.98,.7,1.52,.99l17.14,9.2,17.7,9.51,2.77,2.15,9,6.99,12.43,9.65-.52,5.01-6.44,62.45H42.52c-19.03,0-34.52-15.49-34.52-34.52Z"/><path class="cls-1" d="M141.2,166.54v-14.62c-3.02-1.79-5.14-3.04-5.67-3.35l-3.33,1.98v10.35c.23,.16,.46,.33,.69,.51l8.31,5.13Z"/><path class="cls-1" d="M38.74,87.89c2.49,5.59,7.97,8.91,13.71,8.91,2.04,0,4.11-.42,6.09-1.3,7.57-3.37,10.97-12.23,7.61-19.8l-3.02-6.78c-3.37-7.57-12.23-10.97-19.8-7.61-7.57,3.37-10.97,12.23-7.61,19.8l3.02,6.78Z"/></g></g></svg>