<?xml version="1.0" encoding="UTF-8"?><svg id="Ebene_2" xmlns="http://www.w3.org/2000/svg" viewBox="0 0 283.46 283.46"><defs><style>.cls-1{fill:#306da5;}</style></defs><g id="dtp_officiallypublicdedicatedstreetsplaces_allowed_regular"><g><path class="cls-1" d="M125.12,185.57c1.64,13.62,4.3,30.27,7.91,49.49l13.62-2.56c-3.55-18.92-6.17-35.27-7.77-48.58l-13.76,1.66Z"/><path class="cls-1" d="M137.08,154.65c.63-13.16,2.16-25.45,4.67-37.58l-13.57-2.81c-2.66,12.84-4.28,25.84-4.94,39.72-.07,1.4-.1,2.92-.1,4.51,0,2.08,.06,4.37,.17,6.8l13.84-.66c-.11-2.21-.16-4.27-.16-6.14,0-1.37,.03-2.66,.09-3.84Z"/><path class="cls-1" d="M152.78,77.89c2.98-9.16,5.8-17.81,8.18-27.27l-13.44-3.38c-2.26,8.99-5.01,17.42-7.92,26.35-2.17,6.66-4.42,13.55-6.51,20.89l13.32,3.81c2.03-7.09,4.23-13.86,6.37-20.41Z"/><path class="cls-1" d="M283.46,42.52c0-23.48-19.04-42.52-42.52-42.52H42.52C19.04,0,0,19.04,0,42.52V240.94c0,23.48,19.04,42.52,42.52,42.52H240.94c23.48,0,42.52-19.04,42.52-42.52V42.52Zm-103.31,111.46c-1.22,25.47,8.92,79.38,17.97,121.48h-42.74c-1.75-8.1-3.42-16.02-4.95-23.57l-13.58,2.75c1.35,6.69,2.82,13.68,4.35,20.82h-42.74c-12.73-58.73-19.23-101.63-18.31-120.82,1.61-33.53,8.77-55.5,15.69-76.75,6.89-21.14,13.4-41.14,13.86-69.89h43.03c-.12,7.02-.61,13.75-1.54,20.44l13.73,1.91c1.02-7.33,1.55-14.68,1.68-22.35h43.06c-.48,26.57-6.64,45.56-13.17,65.6-7.21,22.12-14.66,44.99-16.36,80.38ZM8,240.94V42.52c0-19.03,15.49-34.52,34.52-34.52h53.33c-.48,26.57-6.64,45.56-13.17,65.6-7.21,22.12-14.66,44.99-16.36,80.38-1.22,25.47,8.92,79.38,17.97,121.48H42.52c-19.03,0-34.52-15.49-34.52-34.52Zm232.94,34.52h-28.64c-12.73-58.73-19.23-101.63-18.31-120.82,1.61-33.53,8.77-55.5,15.69-76.75,6.89-21.14,13.4-41.14,13.86-69.89h17.39c19.03,0,34.52,15.49,34.52,34.52V240.94c0,19.03-15.49,34.52-34.52,34.52Z"/></g></g></svg>